{"glyphs":{"0":{"ha":932,"x_min":75,"x_max":857,"o":"m 465 -22 q 259 40 347 -22 q 123 219 171 103 q 75 492 75 335 q 123 765 75 649 q 259 945 171 882 q 465 1008 347 1008 q 673 946 585 1008 q 809 767 761 883 q 857 492 857 650 q 809 219 857 335 q 673 40 761 103 q 465 -22 585 -22 m 465 94 q 663 198 593 94 q 732 492 732 301 q 663 788 732 683 q 465 892 593 892 q 269 788 338 892 q 200 492 200 683 q 269 198 200 301 q 465 94 338 94 z "},"1":{"ha":533,"x_min":56,"x_max":381,"o":"m 261 731 l 56 731 l 56 833 l 139 833 q 253 867 221 833 q 286 986 286 900 l 381 986 l 381 0 l 261 0 l 261 731 z "},"2":{"ha":860,"x_min":83,"x_max":776,"o":"m 83 0 q 117 192 83 108 q 233 350 150 275 q 461 503 315 425 q 574 572 535 542 q 633 635 614 601 q 651 719 651 669 q 601 844 651 797 q 454 892 550 892 q 290 838 351 892 q 214 683 229 785 l 89 692 q 201 924 106 839 q 454 1008 296 1008 q 627 972 554 1008 q 738 872 700 936 q 776 722 776 807 q 751 592 776 646 q 669 492 726 539 q 506 389 611 444 q 306 248 376 321 q 231 117 235 175 l 776 117 l 776 0 l 83 0 z "},"3":{"ha":851,"x_min":69,"x_max":782,"o":"m 418 -22 q 167 53 257 -22 q 69 254 76 129 l 193 263 q 260 135 201 176 q 418 94 319 94 q 590 138 524 94 q 657 275 657 182 q 593 417 657 369 q 419 465 529 465 l 342 465 l 342 582 l 419 582 q 567 619 513 582 q 622 736 622 656 q 572 852 622 813 q 425 892 522 892 q 219 751 239 892 l 94 760 q 194 941 108 874 q 425 1008 281 1008 q 661 937 575 1008 q 747 742 747 865 q 576 531 747 583 q 727 437 672 504 q 782 275 782 369 q 682 57 782 136 q 418 -22 582 -22 z "},"4":{"ha":882,"x_min":69,"x_max":813,"o":"m 571 214 l 69 214 l 69 322 l 563 986 l 690 986 l 690 331 l 813 331 l 813 214 l 690 214 l 690 0 l 571 0 l 571 214 m 571 331 l 571 803 l 214 331 l 571 331 z "},"5":{"ha":869,"x_min":83,"x_max":785,"o":"m 433 -22 q 187 53 279 -22 q 83 254 94 129 l 208 263 q 278 138 218 181 q 433 94 338 94 q 599 153 538 94 q 660 317 660 213 q 599 483 660 422 q 431 543 539 543 q 306 513 361 543 q 228 432 251 483 l 100 432 l 165 986 l 718 986 l 718 869 l 275 869 l 239 572 q 333 635 276 614 q 453 657 389 657 q 626 613 550 657 q 743 492 701 569 q 785 317 785 414 q 740 141 785 218 q 616 21 696 64 q 433 -22 536 -22 z "},"6":{"ha":867,"x_min":83,"x_max":782,"o":"m 433 -22 q 175 92 267 -22 q 83 417 83 206 q 175 847 83 685 q 472 1008 267 1008 q 778 775 713 1008 l 653 764 q 592 859 635 826 q 472 892 550 892 q 290 803 358 892 q 208 538 222 714 q 310 629 246 594 q 456 664 375 664 q 626 622 551 664 q 741 504 700 581 q 782 328 782 428 q 738 142 782 221 q 614 20 693 63 q 433 -22 535 -22 m 436 94 q 596 157 535 94 q 657 328 657 219 q 599 490 657 429 q 447 550 540 550 q 280 489 346 550 q 214 328 214 428 q 274 160 214 225 q 436 94 335 94 z "},"7":{"ha":811,"x_min":56,"x_max":756,"o":"m 275 0 q 367 452 275 226 q 625 869 458 678 l 56 869 l 56 986 l 756 986 l 756 878 q 483 456 568 664 q 397 0 397 249 l 275 0 z "},"8":{"ha":839,"x_min":56,"x_max":783,"o":"m 419 -22 q 156 54 256 -22 q 56 271 56 131 q 106 432 56 365 q 246 531 157 499 q 103 738 103 590 q 142 877 103 815 q 253 974 182 939 q 419 1008 325 1008 q 585 974 514 1008 q 697 877 657 939 q 736 738 736 815 q 593 531 736 590 q 733 432 682 499 q 783 271 783 365 q 683 54 783 131 q 419 -22 583 -22 m 419 94 q 595 140 532 94 q 658 278 658 186 q 599 417 658 367 q 419 468 539 468 q 240 417 300 468 q 181 278 181 367 q 244 140 181 186 q 419 94 307 94 m 419 579 q 562 619 513 579 q 611 738 611 660 q 562 851 611 810 q 419 892 513 892 q 277 851 326 892 q 228 738 228 810 q 277 619 228 660 q 419 579 326 579 z "},"9":{"ha":867,"x_min":83,"x_max":782,"o":"m 400 -22 q 203 36 282 -22 q 96 190 124 94 l 222 200 q 283 122 239 149 q 400 94 328 94 q 579 179 515 94 q 654 444 643 264 q 551 348 614 382 q 411 314 489 314 q 242 357 317 314 q 125 478 167 400 q 83 658 83 557 q 127 843 83 764 q 249 965 171 922 q 426 1008 328 1008 q 694 888 606 1008 q 782 551 782 767 q 400 -22 782 -22 m 419 432 q 586 492 522 432 q 650 656 650 551 q 590 826 650 760 q 426 892 529 892 q 267 827 326 892 q 208 658 208 763 q 267 494 208 556 q 419 432 325 432 z "}," ":{"ha":347,"x_min":0,"x_max":0,"o":""},"A":{"ha":931,"x_min":29,"x_max":901,"o":"m 385 986 l 546 986 l 901 0 l 771 0 l 672 281 l 258 281 l 160 0 l 29 0 l 385 986 m 632 397 l 465 882 l 299 397 l 632 397 z "},"Á":{"ha":931,"x_min":29,"x_max":901,"o":"m 385 986 l 546 986 l 901 0 l 771 0 l 672 281 l 258 281 l 160 0 l 29 0 l 385 986 m 632 397 l 465 882 l 299 397 l 632 397 m 506 1265 l 636 1265 l 511 1088 l 414 1088 l 506 1265 z "},"Ă":{"ha":931,"x_min":29,"x_max":901,"o":"m 385 986 l 546 986 l 901 0 l 771 0 l 672 281 l 258 281 l 160 0 l 29 0 l 385 986 m 632 397 l 465 882 l 299 397 l 632 397 m 465 1088 q 328 1135 381 1088 q 271 1265 275 1183 l 351 1265 q 465 1174 364 1174 q 578 1265 565 1174 l 658 1265 q 602 1135 654 1183 q 465 1088 550 1088 z "},"Ǎ":{"ha":931,"x_min":29,"x_max":901,"o":"m 385 986 l 546 986 l 901 0 l 771 0 l 672 281 l 258 281 l 160 0 l 29 0 l 385 986 m 632 397 l 465 882 l 299 397 l 632 397 m 367 1265 l 460 1142 l 553 1265 l 650 1265 l 525 1081 l 394 1081 l 269 1265 l 367 1265 z "},"Â":{"ha":931,"x_min":29,"x_max":901,"o":"m 385 986 l 546 986 l 901 0 l 771 0 l 672 281 l 258 281 l 160 0 l 29 0 l 385 986 m 632 397 l 465 882 l 299 397 l 632 397 m 400 1265 l 531 1265 l 656 1081 l 558 1081 l 465 1204 l 372 1081 l 275 1081 l 400 1265 z "},"Ä":{"ha":931,"x_min":29,"x_max":901,"o":"m 385 986 l 546 986 l 901 0 l 771 0 l 672 281 l 258 281 l 160 0 l 29 0 l 385 986 m 632 397 l 465 882 l 299 397 l 632 397 m 283 1238 l 406 1238 l 406 1101 l 283 1101 l 283 1238 m 525 1238 l 647 1238 l 647 1101 l 525 1101 l 525 1238 z "},"À":{"ha":931,"x_min":29,"x_max":901,"o":"m 385 986 l 546 986 l 901 0 l 771 0 l 672 281 l 258 281 l 160 0 l 29 0 l 385 986 m 632 397 l 465 882 l 299 397 l 632 397 m 297 1265 l 428 1265 l 519 1088 l 422 1088 l 297 1265 z "},"Ā":{"ha":931,"x_min":29,"x_max":901,"o":"m 385 986 l 546 986 l 901 0 l 771 0 l 672 281 l 258 281 l 160 0 l 29 0 l 385 986 m 632 397 l 465 882 l 299 397 l 632 397 m 279 1218 l 651 1218 l 651 1118 l 279 1118 l 279 1218 z "},"Ą":{"ha":931,"x_min":29,"x_max":950,"o":"m 385 986 l 546 986 l 901 0 l 853 -62 q 810 -158 810 -119 q 821 -187 810 -176 q 850 -197 832 -197 q 917 -178 889 -197 l 950 -256 q 901 -281 935 -271 q 831 -292 867 -292 q 738 -261 772 -292 q 704 -181 704 -231 q 718 -112 704 -144 q 761 -42 732 -79 l 794 0 l 771 0 l 672 281 l 258 281 l 160 0 l 29 0 l 385 986 m 632 397 l 465 882 l 299 397 l 632 397 z "},"Å":{"ha":931,"x_min":29,"x_max":901,"o":"m 385 986 l 546 986 l 901 0 l 771 0 l 672 281 l 258 281 l 160 0 l 29 0 l 385 986 m 632 397 l 465 882 l 299 397 l 632 397 m 464 1050 q 373 1087 410 1050 q 336 1178 336 1124 q 373 1269 336 1232 q 464 1306 410 1306 q 555 1269 518 1306 q 592 1178 592 1232 q 555 1087 592 1124 q 464 1050 518 1050 m 464 1119 q 506 1136 489 1119 q 522 1178 522 1153 q 506 1219 522 1203 q 464 1236 489 1236 q 422 1219 439 1236 q 406 1178 406 1203 q 422 1136 406 1153 q 464 1119 439 1119 z "},"Ã":{"ha":931,"x_min":29,"x_max":901,"o":"m 385 986 l 546 986 l 901 0 l 771 0 l 672 281 l 258 281 l 160 0 l 29 0 l 385 986 m 632 397 l 465 882 l 299 397 l 632 397 m 533 1097 q 436 1139 488 1097 q 397 1168 410 1161 q 364 1175 383 1175 q 304 1088 308 1175 l 232 1088 q 269 1208 233 1165 q 364 1250 306 1250 q 419 1239 394 1250 q 469 1206 443 1228 q 507 1180 492 1188 q 539 1172 522 1172 q 579 1192 565 1172 q 597 1264 593 1213 l 669 1264 q 629 1141 665 1185 q 533 1097 593 1097 z "},"Æ":{"ha":1353,"x_min":29,"x_max":1274,"o":"m 557 986 l 1263 986 l 1263 869 l 806 869 l 806 551 l 1246 551 l 1246 438 l 806 438 l 806 117 l 1274 117 l 1274 0 l 686 0 l 686 281 l 308 281 l 164 0 l 29 0 l 557 986 m 686 397 l 686 874 l 615 874 l 368 397 l 686 397 z "},"B":{"ha":944,"x_min":128,"x_max":858,"o":"m 128 986 l 467 986 q 730 922 643 986 q 817 721 817 857 q 770 581 817 638 q 642 510 724 524 q 801 431 743 496 q 858 271 858 367 q 772 69 858 138 q 522 0 685 0 l 128 0 l 128 986 m 522 117 q 678 158 624 117 q 733 278 733 200 q 678 399 733 356 q 522 443 624 443 l 247 443 l 247 117 l 522 117 m 467 560 q 633 601 575 560 q 692 715 692 642 q 467 869 692 869 l 247 869 l 247 560 l 467 560 z "},"C":{"ha":988,"x_min":68,"x_max":926,"o":"m 511 -22 q 279 40 379 -22 q 124 218 179 101 q 68 492 68 335 q 124 766 68 649 q 279 946 179 883 q 511 1008 379 1008 q 785 921 685 1008 q 918 672 886 833 l 792 664 q 701 832 771 772 q 511 892 631 892 q 344 844 417 892 q 233 706 272 796 q 193 492 193 615 q 233 278 193 368 q 344 142 272 189 q 511 94 417 94 q 709 160 638 94 q 800 344 781 225 l 926 336 q 791 74 899 171 q 511 -22 683 -22 z "},"Ć":{"ha":988,"x_min":68,"x_max":926,"o":"m 511 -22 q 279 40 379 -22 q 124 218 179 101 q 68 492 68 335 q 124 766 68 649 q 279 946 179 883 q 511 1008 379 1008 q 785 921 685 1008 q 918 672 886 833 l 792 664 q 701 832 771 772 q 511 892 631 892 q 344 844 417 892 q 233 706 272 796 q 193 492 193 615 q 233 278 193 368 q 344 142 272 189 q 511 94 417 94 q 709 160 638 94 q 800 344 781 225 l 926 336 q 791 74 899 171 q 511 -22 683 -22 m 549 1265 l 679 1265 l 554 1088 l 457 1088 l 549 1265 z "},"Č":{"ha":988,"x_min":68,"x_max":926,"o":"m 511 -22 q 279 40 379 -22 q 124 218 179 101 q 68 492 68 335 q 124 766 68 649 q 279 946 179 883 q 511 1008 379 1008 q 785 921 685 1008 q 918 672 886 833 l 792 664 q 701 832 771 772 q 511 892 631 892 q 344 844 417 892 q 233 706 272 796 q 193 492 193 615 q 233 278 193 368 q 344 142 272 189 q 511 94 417 94 q 709 160 638 94 q 800 344 781 225 l 926 336 q 791 74 899 171 q 511 -22 683 -22 m 410 1265 l 503 1142 l 596 1265 l 693 1265 l 568 1081 l 438 1081 l 313 1265 l 410 1265 z "},"Ç":{"ha":988,"x_min":68,"x_max":926,"o":"m 496 -306 q 390 -276 432 -306 q 333 -197 349 -246 l 404 -169 q 438 -214 417 -200 q 493 -228 458 -228 q 548 -213 528 -228 q 568 -172 568 -199 q 546 -127 568 -143 q 463 -111 524 -111 l 424 -69 l 456 -19 q 251 60 339 -6 q 116 235 164 125 q 68 492 68 346 q 124 766 68 649 q 279 946 179 883 q 511 1008 379 1008 q 785 921 685 1008 q 918 672 886 833 l 792 664 q 701 832 771 772 q 511 892 631 892 q 344 844 417 892 q 233 706 272 796 q 193 492 193 615 q 233 278 193 368 q 344 142 272 189 q 511 94 417 94 q 709 160 638 94 q 800 344 781 225 l 926 336 q 800 82 900 178 q 539 -22 700 -14 l 518 -50 q 618 -86 585 -53 q 651 -175 651 -119 q 608 -269 651 -233 q 496 -306 564 -306 z "},"Ĉ":{"ha":988,"x_min":68,"x_max":926,"o":"m 511 -22 q 279 40 379 -22 q 124 218 179 101 q 68 492 68 335 q 124 766 68 649 q 279 946 179 883 q 511 1008 379 1008 q 785 921 685 1008 q 918 672 886 833 l 792 664 q 701 832 771 772 q 511 892 631 892 q 344 844 417 892 q 233 706 272 796 q 193 492 193 615 q 233 278 193 368 q 344 142 272 189 q 511 94 417 94 q 709 160 638 94 q 800 344 781 225 l 926 336 q 791 74 899 171 q 511 -22 683 -22 m 443 1265 l 574 1265 l 699 1081 l 601 1081 l 508 1204 l 415 1081 l 318 1081 l 443 1265 z "},"Ċ":{"ha":988,"x_min":68,"x_max":926,"o":"m 511 -22 q 279 40 379 -22 q 124 218 179 101 q 68 492 68 335 q 124 766 68 649 q 279 946 179 883 q 511 1008 379 1008 q 785 921 685 1008 q 918 672 886 833 l 792 664 q 701 832 771 772 q 511 892 631 892 q 344 844 417 892 q 233 706 272 796 q 193 492 193 615 q 233 278 193 368 q 344 142 272 189 q 511 94 417 94 q 709 160 638 94 q 800 344 781 225 l 926 336 q 791 74 899 171 q 511 -22 683 -22 m 447 1238 l 569 1238 l 569 1101 l 447 1101 l 447 1238 z "},"D":{"ha":975,"x_min":128,"x_max":907,"o":"m 128 986 l 433 986 q 784 858 661 986 q 907 492 907 729 q 786 128 907 256 q 442 0 665 0 l 128 0 l 128 986 m 433 117 q 782 492 782 117 q 433 869 782 869 l 247 869 l 247 117 l 433 117 z "},"Ď":{"ha":975,"x_min":128,"x_max":907,"o":"m 128 986 l 433 986 q 784 858 661 986 q 907 492 907 729 q 786 128 907 256 q 442 0 665 0 l 128 0 l 128 986 m 433 117 q 782 492 782 117 q 433 869 782 869 l 247 869 l 247 117 l 433 117 m 350 1265 l 443 1142 l 536 1265 l 633 1265 l 508 1081 l 378 1081 l 253 1265 l 350 1265 z "},"Đ":{"ha":1097,"x_min":68,"x_max":1029,"o":"m 68 544 l 250 544 l 250 986 l 556 986 q 906 858 783 986 q 1029 492 1029 729 q 908 128 1029 256 q 564 0 788 0 l 250 0 l 250 442 l 68 442 l 68 544 m 556 117 q 904 492 904 117 q 556 869 904 869 l 369 869 l 369 544 l 582 544 l 582 442 l 369 442 l 369 117 l 556 117 z "},"Ð":{"ha":1097,"x_min":68,"x_max":1029,"o":"m 68 544 l 250 544 l 250 986 l 556 986 q 906 858 783 986 q 1029 492 1029 729 q 908 128 1029 256 q 564 0 788 0 l 250 0 l 250 442 l 68 442 l 68 544 m 556 117 q 904 492 904 117 q 556 869 904 869 l 369 869 l 369 544 l 582 544 l 582 442 l 369 442 l 369 117 l 556 117 z "},"E":{"ha":838,"x_min":128,"x_max":758,"o":"m 128 986 l 747 986 l 747 869 l 247 869 l 247 551 l 731 551 l 731 438 l 247 438 l 247 117 l 758 117 l 758 0 l 128 0 l 128 986 z "},"É":{"ha":838,"x_min":128,"x_max":758,"o":"m 128 986 l 747 986 l 747 869 l 247 869 l 247 551 l 731 551 l 731 438 l 247 438 l 247 117 l 758 117 l 758 0 l 128 0 l 128 986 m 481 1267 l 611 1267 l 486 1089 l 389 1089 l 481 1267 z "},"Ě":{"ha":838,"x_min":128,"x_max":758,"o":"m 128 986 l 747 986 l 747 869 l 247 869 l 247 551 l 731 551 l 731 438 l 247 438 l 247 117 l 758 117 l 758 0 l 128 0 l 128 986 m 342 1267 l 435 1143 l 528 1267 l 625 1267 l 500 1082 l 369 1082 l 244 1267 l 342 1267 z "},"Ê":{"ha":838,"x_min":128,"x_max":758,"o":"m 128 986 l 747 986 l 747 869 l 247 869 l 247 551 l 731 551 l 731 438 l 247 438 l 247 117 l 758 117 l 758 0 l 128 0 l 128 986 m 375 1267 l 506 1267 l 631 1082 l 533 1082 l 440 1206 l 347 1082 l 250 1082 l 375 1267 z "},"Ë":{"ha":838,"x_min":128,"x_max":758,"o":"m 128 986 l 747 986 l 747 869 l 247 869 l 247 551 l 731 551 l 731 438 l 247 438 l 247 117 l 758 117 l 758 0 l 128 0 l 128 986 m 258 1239 l 381 1239 l 381 1103 l 258 1103 l 258 1239 m 500 1239 l 622 1239 l 622 1103 l 500 1103 l 500 1239 z "},"Ė":{"ha":838,"x_min":128,"x_max":758,"o":"m 128 986 l 747 986 l 747 869 l 247 869 l 247 551 l 731 551 l 731 438 l 247 438 l 247 117 l 758 117 l 758 0 l 128 0 l 128 986 m 379 1239 l 501 1239 l 501 1103 l 379 1103 l 379 1239 z "},"È":{"ha":838,"x_min":128,"x_max":758,"o":"m 128 986 l 747 986 l 747 869 l 247 869 l 247 551 l 731 551 l 731 438 l 247 438 l 247 117 l 758 117 l 758 0 l 128 0 l 128 986 m 272 1267 l 403 1267 l 494 1089 l 397 1089 l 272 1267 z "},"Ē":{"ha":838,"x_min":128,"x_max":758,"o":"m 128 986 l 747 986 l 747 869 l 247 869 l 247 551 l 731 551 l 731 438 l 247 438 l 247 117 l 758 117 l 758 0 l 128 0 l 128 986 m 254 1219 l 626 1219 l 626 1119 l 254 1119 l 254 1219 z "},"Ę":{"ha":838,"x_min":128,"x_max":807,"o":"m 128 986 l 747 986 l 747 869 l 247 869 l 247 551 l 731 551 l 731 438 l 247 438 l 247 117 l 758 117 l 758 0 l 710 -62 q 667 -158 667 -119 q 678 -187 667 -176 q 707 -197 689 -197 q 774 -178 746 -197 l 807 -256 q 758 -281 792 -271 q 688 -292 724 -292 q 595 -261 629 -292 q 561 -181 561 -231 q 575 -112 561 -144 q 618 -42 589 -79 l 651 0 l 128 0 l 128 986 z "},"Ẽ":{"ha":838,"x_min":128,"x_max":758,"o":"m 128 986 l 747 986 l 747 869 l 247 869 l 247 551 l 731 551 l 731 438 l 247 438 l 247 117 l 758 117 l 758 0 l 128 0 l 128 986 m 522 1099 q 425 1140 476 1099 q 385 1169 399 1163 q 353 1176 372 1176 q 293 1089 297 1176 l 221 1089 q 258 1209 222 1167 q 353 1251 294 1251 q 408 1240 383 1251 q 458 1207 432 1229 q 496 1181 481 1189 q 528 1174 511 1174 q 568 1194 554 1174 q 586 1265 582 1214 l 658 1265 q 618 1142 654 1186 q 522 1099 582 1099 z "},"Ə":{"ha":1001,"x_min":68,"x_max":933,"o":"m 490 -22 q 286 30 378 -22 q 136 192 194 82 q 69 472 78 303 l 68 542 l 807 542 q 757 720 801 640 q 642 846 713 800 q 490 892 572 892 q 333 842 401 892 q 226 696 264 792 l 94 707 q 244 927 138 846 q 490 1008 351 1008 q 724 945 624 1008 q 878 765 824 882 q 933 493 933 649 q 877 226 933 343 q 720 43 821 108 q 490 -22 619 -22 m 490 94 q 700 181 618 94 q 806 425 782 267 l 197 425 q 293 181 217 267 q 490 94 369 94 z "},"F":{"ha":819,"x_min":128,"x_max":747,"o":"m 128 986 l 747 986 l 747 869 l 247 869 l 247 539 l 722 539 l 722 425 l 247 425 l 247 0 l 128 0 l 128 986 z "},"G":{"ha":983,"x_min":68,"x_max":908,"o":"m 508 -22 q 273 44 372 -22 q 121 226 174 110 q 68 492 68 343 q 122 758 68 640 q 275 942 175 875 q 511 1008 375 1008 q 778 919 679 1008 q 906 683 876 831 l 781 675 q 511 892 738 892 q 272 778 351 892 q 193 492 193 665 q 273 203 193 313 q 511 94 353 94 q 660 133 596 94 q 760 239 725 172 q 797 385 796 306 l 514 385 l 514 499 l 908 499 l 908 0 l 819 0 l 814 165 q 693 30 778 82 q 508 -22 608 -22 z "},"Ğ":{"ha":983,"x_min":68,"x_max":908,"o":"m 508 -22 q 273 44 372 -22 q 121 226 174 110 q 68 492 68 343 q 122 758 68 640 q 275 942 175 875 q 511 1008 375 1008 q 778 919 679 1008 q 906 683 876 831 l 781 675 q 511 892 738 892 q 272 778 351 892 q 193 492 193 665 q 273 203 193 313 q 511 94 353 94 q 660 133 596 94 q 760 239 725 172 q 797 385 796 306 l 514 385 l 514 499 l 908 499 l 908 0 l 819 0 l 814 165 q 693 30 778 82 q 508 -22 608 -22 m 514 1088 q 376 1135 429 1088 q 319 1265 324 1183 l 400 1265 q 514 1174 413 1174 q 626 1265 614 1174 l 707 1265 q 651 1135 703 1183 q 514 1088 599 1088 z "},"Ǧ":{"ha":983,"x_min":68,"x_max":908,"o":"m 508 -22 q 273 44 372 -22 q 121 226 174 110 q 68 492 68 343 q 122 758 68 640 q 275 942 175 875 q 511 1008 375 1008 q 778 919 679 1008 q 906 683 876 831 l 781 675 q 511 892 738 892 q 272 778 351 892 q 193 492 193 665 q 273 203 193 313 q 511 94 353 94 q 660 133 596 94 q 760 239 725 172 q 797 385 796 306 l 514 385 l 514 499 l 908 499 l 908 0 l 819 0 l 814 165 q 693 30 778 82 q 508 -22 608 -22 m 415 1265 l 508 1142 l 601 1265 l 699 1265 l 574 1081 l 443 1081 l 318 1265 l 415 1265 z "},"Ĝ":{"ha":983,"x_min":68,"x_max":908,"o":"m 508 -22 q 273 44 372 -22 q 121 226 174 110 q 68 492 68 343 q 122 758 68 640 q 275 942 175 875 q 511 1008 375 1008 q 778 919 679 1008 q 906 683 876 831 l 781 675 q 511 892 738 892 q 272 778 351 892 q 193 492 193 665 q 273 203 193 313 q 511 94 353 94 q 660 133 596 94 q 760 239 725 172 q 797 385 796 306 l 514 385 l 514 499 l 908 499 l 908 0 l 819 0 l 814 165 q 693 30 778 82 q 508 -22 608 -22 m 449 1265 l 579 1265 l 704 1081 l 607 1081 l 514 1204 l 421 1081 l 324 1081 l 449 1265 z "},"Ģ":{"ha":983,"x_min":68,"x_max":908,"o":"m 508 -22 q 273 44 372 -22 q 121 226 174 110 q 68 492 68 343 q 122 758 68 640 q 275 942 175 875 q 511 1008 375 1008 q 778 919 679 1008 q 906 683 876 831 l 781 675 q 511 892 738 892 q 272 778 351 892 q 193 492 193 665 q 273 203 193 313 q 511 94 353 94 q 660 133 596 94 q 760 239 725 172 q 797 385 796 306 l 514 385 l 514 499 l 908 499 l 908 0 l 819 0 l 814 165 q 693 30 778 82 q 508 -22 608 -22 m 507 -158 l 457 -158 l 457 -33 l 596 -33 l 596 -147 l 511 -293 l 431 -293 l 507 -158 z "},"Ġ":{"ha":983,"x_min":68,"x_max":908,"o":"m 508 -22 q 273 44 372 -22 q 121 226 174 110 q 68 492 68 343 q 122 758 68 640 q 275 942 175 875 q 511 1008 375 1008 q 778 919 679 1008 q 906 683 876 831 l 781 675 q 511 892 738 892 q 272 778 351 892 q 193 492 193 665 q 273 203 193 313 q 511 94 353 94 q 660 133 596 94 q 760 239 725 172 q 797 385 796 306 l 514 385 l 514 499 l 908 499 l 908 0 l 819 0 l 814 165 q 693 30 778 82 q 508 -22 608 -22 m 453 1238 l 575 1238 l 575 1101 l 453 1101 l 453 1238 z "},"Ḡ":{"ha":983,"x_min":68,"x_max":908,"o":"m 508 -22 q 273 44 372 -22 q 121 226 174 110 q 68 492 68 343 q 122 758 68 640 q 275 942 175 875 q 511 1008 375 1008 q 778 919 679 1008 q 906 683 876 831 l 781 675 q 511 892 738 892 q 272 778 351 892 q 193 492 193 665 q 273 203 193 313 q 511 94 353 94 q 660 133 596 94 q 760 239 725 172 q 797 385 796 306 l 514 385 l 514 499 l 908 499 l 908 0 l 819 0 l 814 165 q 693 30 778 82 q 508 -22 608 -22 m 328 1218 l 700 1218 l 700 1118 l 328 1118 l 328 1218 z "},"Ǥ":{"ha":1047,"x_min":68,"x_max":986,"o":"m 514 -22 q 275 46 376 -22 q 121 231 174 114 q 68 492 68 347 q 121 755 68 638 q 274 940 174 872 q 514 1008 375 1008 q 769 923 667 1008 q 904 697 871 838 l 779 689 q 685 837 753 782 q 514 892 618 892 q 334 838 406 892 q 228 694 263 785 q 193 492 193 603 q 228 291 193 381 q 335 148 263 201 q 514 94 407 94 q 646 123 589 94 q 739 204 703 151 l 514 204 l 514 307 l 783 307 q 793 382 790 339 l 514 382 l 514 499 l 913 499 l 913 438 q 901 307 913 371 l 986 307 l 986 204 l 871 204 q 735 36 826 94 q 514 -22 644 -22 z "},"H":{"ha":990,"x_min":128,"x_max":863,"o":"m 128 986 l 247 986 l 247 554 l 743 554 l 743 986 l 863 986 l 863 0 l 743 0 l 743 438 l 247 438 l 247 0 l 128 0 l 128 986 z "},"Ħ":{"ha":1067,"x_min":58,"x_max":1008,"o":"m 800 444 l 267 444 l 267 0 l 147 0 l 147 735 l 58 735 l 58 851 l 147 851 l 147 986 l 267 986 l 267 851 l 800 851 l 800 986 l 919 986 l 919 851 l 1008 851 l 1008 735 l 919 735 l 919 0 l 800 0 l 800 444 m 800 561 l 800 735 l 267 735 l 267 561 l 800 561 z "},"Ĥ":{"ha":990,"x_min":128,"x_max":863,"o":"m 128 986 l 247 986 l 247 554 l 743 554 l 743 986 l 863 986 l 863 0 l 743 0 l 743 438 l 247 438 l 247 0 l 128 0 l 128 986 m 429 1265 l 560 1265 l 685 1081 l 588 1081 l 494 1204 l 401 1081 l 304 1081 l 429 1265 z "},"I":{"ha":375,"x_min":128,"x_max":247,"o":"m 128 986 l 247 986 l 247 0 l 128 0 l 128 986 z "},"Ĳ":{"ha":1204,"x_min":128,"x_max":1097,"o":"m 128 986 l 247 986 l 247 0 l 128 0 l 128 986 m 782 -22 q 620 22 692 -22 q 508 144 549 65 q 468 322 468 222 l 590 331 q 642 156 592 217 q 782 94 692 94 q 927 160 876 94 q 978 344 978 225 l 978 986 l 1097 986 l 1097 344 q 1059 150 1097 233 q 949 22 1021 67 q 782 -22 878 -22 z "},"Í":{"ha":375,"x_min":128,"x_max":358,"o":"m 128 986 l 247 986 l 247 0 l 128 0 l 128 986 m 228 1265 l 358 1265 l 233 1088 l 136 1088 l 228 1265 z "},"Î":{"ha":375,"x_min":-3,"x_max":378,"o":"m 128 986 l 247 986 l 247 0 l 128 0 l 128 986 m 122 1265 l 253 1265 l 378 1081 l 281 1081 l 188 1204 l 94 1081 l -3 1081 l 122 1265 z "},"Ï":{"ha":375,"x_min":6,"x_max":369,"o":"m 128 986 l 247 986 l 247 0 l 128 0 l 128 986 m 6 1238 l 128 1238 l 128 1101 l 6 1101 l 6 1238 m 247 1238 l 369 1238 l 369 1101 l 247 1101 l 247 1238 z "},"İ":{"ha":375,"x_min":126,"x_max":249,"o":"m 128 986 l 247 986 l 247 0 l 128 0 l 128 986 m 126 1238 l 249 1238 l 249 1101 l 126 1101 l 126 1238 z "},"Ì":{"ha":375,"x_min":19,"x_max":247,"o":"m 128 986 l 247 986 l 247 0 l 128 0 l 128 986 m 19 1265 l 150 1265 l 242 1088 l 144 1088 l 19 1265 z "},"Ī":{"ha":375,"x_min":1,"x_max":374,"o":"m 128 986 l 247 986 l 247 0 l 128 0 l 128 986 m 1 1218 l 374 1218 l 374 1118 l 1 1118 l 1 1218 z "},"Į":{"ha":375,"x_min":50,"x_max":296,"o":"m 128 986 l 247 986 l 247 0 l 199 -62 q 156 -158 156 -119 q 167 -187 156 -176 q 196 -197 178 -197 q 263 -178 235 -197 l 296 -256 q 247 -281 281 -271 q 176 -292 213 -292 q 84 -261 118 -292 q 50 -181 50 -231 q 64 -112 50 -144 q 107 -42 78 -79 l 140 0 l 128 0 l 128 986 z "},"Ĩ":{"ha":375,"x_min":-32,"x_max":406,"o":"m 128 986 l 247 986 l 247 0 l 128 0 l 128 986 m 269 1097 q 172 1139 224 1097 q 133 1168 146 1161 q 100 1175 119 1175 q 40 1088 44 1175 l -32 1088 q 6 1208 -31 1165 q 100 1250 42 1250 q 155 1239 131 1250 q 206 1206 179 1228 q 243 1180 228 1188 q 275 1172 258 1172 q 315 1192 301 1172 q 333 1264 329 1213 l 406 1264 q 365 1141 401 1185 q 269 1097 329 1097 z "},"J":{"ha":829,"x_min":93,"x_max":722,"o":"m 407 -22 q 245 22 317 -22 q 133 144 174 65 q 93 322 93 222 l 215 331 q 267 156 217 217 q 407 94 317 94 q 552 160 501 94 q 603 344 603 225 l 603 986 l 722 986 l 722 344 q 684 150 722 233 q 574 22 646 67 q 407 -22 503 -22 z "},"Ĵ":{"ha":829,"x_min":93,"x_max":854,"o":"m 407 -22 q 245 22 317 -22 q 133 144 174 65 q 93 322 93 222 l 215 331 q 267 156 217 217 q 407 94 317 94 q 552 160 501 94 q 603 344 603 225 l 603 986 l 722 986 l 722 344 q 684 150 722 233 q 574 22 646 67 q 407 -22 503 -22 m 599 1265 l 729 1265 l 854 1081 l 757 1081 l 664 1204 l 571 1081 l 474 1081 l 599 1265 z "},"K":{"ha":906,"x_min":128,"x_max":868,"o":"m 128 986 l 247 986 l 247 496 l 690 986 l 842 986 l 456 558 l 868 0 l 722 0 l 375 469 l 247 329 l 247 0 l 128 0 l 128 986 z "},"Ǩ":{"ha":906,"x_min":128,"x_max":868,"o":"m 128 986 l 247 986 l 247 496 l 690 986 l 842 986 l 456 558 l 868 0 l 722 0 l 375 469 l 247 329 l 247 0 l 128 0 l 128 986 m 357 1265 l 450 1142 l 543 1265 l 640 1265 l 515 1081 l 385 1081 l 260 1265 l 357 1265 z "},"Ķ":{"ha":906,"x_min":128,"x_max":868,"o":"m 128 986 l 247 986 l 247 496 l 690 986 l 842 986 l 456 558 l 868 0 l 722 0 l 375 469 l 247 329 l 247 0 l 128 0 l 128 986 m 475 -158 l 425 -158 l 425 -33 l 564 -33 l 564 -147 l 479 -293 l 399 -293 l 475 -158 z "},"L":{"ha":806,"x_min":128,"x_max":740,"o":"m 128 986 l 247 986 l 247 117 l 740 117 l 740 0 l 128 0 l 128 986 z "},"Ĺ":{"ha":806,"x_min":128,"x_max":740,"o":"m 128 986 l 247 986 l 247 117 l 740 117 l 740 0 l 128 0 l 128 986 m 228 1265 l 358 1265 l 233 1088 l 136 1088 l 228 1265 z "},"Ľ":{"ha":806,"x_min":128,"x_max":740,"o":"m 128 986 l 247 986 l 247 117 l 740 117 l 740 0 l 128 0 l 128 986 m 410 986 l 525 986 l 453 650 l 368 650 l 410 986 z "},"Ļ":{"ha":806,"x_min":128,"x_max":740,"o":"m 128 986 l 247 986 l 247 117 l 740 117 l 740 0 l 128 0 l 128 986 m 428 -158 l 378 -158 l 378 -33 l 517 -33 l 517 -147 l 432 -293 l 351 -293 l 428 -158 z "},"Ł":{"ha":847,"x_min":24,"x_max":782,"o":"m 24 515 l 169 583 l 169 986 l 289 986 l 289 639 l 451 715 l 503 610 l 289 510 l 289 117 l 782 117 l 782 0 l 169 0 l 169 454 l 74 410 l 24 515 z "},"M":{"ha":1218,"x_min":128,"x_max":1090,"o":"m 128 986 l 294 986 l 610 131 l 924 986 l 1090 986 l 1090 0 l 971 0 l 971 764 l 689 0 l 529 0 l 247 764 l 247 0 l 128 0 l 128 986 z "},"N":{"ha":1032,"x_min":128,"x_max":904,"o":"m 128 986 l 297 986 l 785 119 l 785 986 l 904 986 l 904 0 l 726 0 l 247 850 l 247 0 l 128 0 l 128 986 z "},"Ń":{"ha":1032,"x_min":128,"x_max":904,"o":"m 128 986 l 297 986 l 785 119 l 785 986 l 904 986 l 904 0 l 726 0 l 247 850 l 247 0 l 128 0 l 128 986 m 576 1265 l 707 1265 l 582 1088 l 485 1088 l 576 1265 z "},"Ň":{"ha":1032,"x_min":128,"x_max":904,"o":"m 128 986 l 297 986 l 785 119 l 785 986 l 904 986 l 904 0 l 726 0 l 247 850 l 247 0 l 128 0 l 128 986 m 438 1265 l 531 1142 l 624 1265 l 721 1265 l 596 1081 l 465 1081 l 340 1265 l 438 1265 z "},"Ņ":{"ha":1032,"x_min":128,"x_max":904,"o":"m 128 986 l 297 986 l 785 119 l 785 986 l 904 986 l 904 0 l 726 0 l 247 850 l 247 0 l 128 0 l 128 986 m 511 -158 l 461 -158 l 461 -33 l 600 -33 l 600 -147 l 515 -293 l 435 -293 l 511 -158 z "},"Ñ":{"ha":1032,"x_min":128,"x_max":904,"o":"m 128 986 l 297 986 l 785 119 l 785 986 l 904 986 l 904 0 l 726 0 l 247 850 l 247 0 l 128 0 l 128 986 m 618 1097 q 521 1139 572 1097 q 481 1168 494 1161 q 449 1175 468 1175 q 389 1088 393 1175 l 317 1088 q 354 1208 318 1165 q 449 1250 390 1250 q 503 1239 479 1250 q 554 1206 528 1228 q 592 1180 576 1188 q 624 1172 607 1172 q 664 1192 650 1172 q 682 1264 678 1213 l 754 1264 q 714 1141 750 1185 q 618 1097 678 1097 z "},"Ŋ":{"ha":1025,"x_min":128,"x_max":897,"o":"m 128 986 l 290 986 l 778 221 l 778 986 l 897 986 l 897 -10 q 841 -154 897 -100 q 689 -208 785 -208 l 546 -208 l 546 -92 l 689 -92 q 778 -11 778 -92 l 778 0 l 247 831 l 247 0 l 128 0 l 128 986 z "},"O":{"ha":1038,"x_min":68,"x_max":969,"o":"m 518 -22 q 278 40 379 -22 q 122 217 176 101 q 68 492 68 333 q 122 767 68 650 q 278 946 176 883 q 518 1008 379 1008 q 760 946 658 1008 q 915 767 861 883 q 969 492 969 650 q 915 217 969 333 q 760 40 861 101 q 518 -22 658 -22 m 518 94 q 758 199 671 94 q 844 492 844 304 q 758 785 844 679 q 518 892 671 892 q 279 785 365 892 q 193 492 193 679 q 279 199 193 304 q 518 94 365 94 z "},"Ó":{"ha":1038,"x_min":68,"x_max":969,"o":"m 518 -22 q 278 40 379 -22 q 122 217 176 101 q 68 492 68 333 q 122 767 68 650 q 278 946 176 883 q 518 1008 379 1008 q 760 946 658 1008 q 915 767 861 883 q 969 492 969 650 q 915 217 969 333 q 760 40 861 101 q 518 -22 658 -22 m 518 94 q 758 199 671 94 q 844 492 844 304 q 758 785 844 679 q 518 892 671 892 q 279 785 365 892 q 193 492 193 679 q 279 199 193 304 q 518 94 365 94 m 558 1265 l 689 1265 l 564 1088 l 467 1088 l 558 1265 z "},"Ô":{"ha":1038,"x_min":68,"x_max":969,"o":"m 518 -22 q 278 40 379 -22 q 122 217 176 101 q 68 492 68 333 q 122 767 68 650 q 278 946 176 883 q 518 1008 379 1008 q 760 946 658 1008 q 915 767 861 883 q 969 492 969 650 q 915 217 969 333 q 760 40 861 101 q 518 -22 658 -22 m 518 94 q 758 199 671 94 q 844 492 844 304 q 758 785 844 679 q 518 892 671 892 q 279 785 365 892 q 193 492 193 679 q 279 199 193 304 q 518 94 365 94 m 453 1265 l 583 1265 l 708 1081 l 611 1081 l 518 1204 l 425 1081 l 328 1081 l 453 1265 z "},"Ö":{"ha":1038,"x_min":68,"x_max":969,"o":"m 518 -22 q 278 40 379 -22 q 122 217 176 101 q 68 492 68 333 q 122 767 68 650 q 278 946 176 883 q 518 1008 379 1008 q 760 946 658 1008 q 915 767 861 883 q 969 492 969 650 q 915 217 969 333 q 760 40 861 101 q 518 -22 658 -22 m 518 94 q 758 199 671 94 q 844 492 844 304 q 758 785 844 679 q 518 892 671 892 q 279 785 365 892 q 193 492 193 679 q 279 199 193 304 q 518 94 365 94 m 336 1238 l 458 1238 l 458 1101 l 336 1101 l 336 1238 m 578 1238 l 700 1238 l 700 1101 l 578 1101 l 578 1238 z "},"Ò":{"ha":1038,"x_min":68,"x_max":969,"o":"m 518 -22 q 278 40 379 -22 q 122 217 176 101 q 68 492 68 333 q 122 767 68 650 q 278 946 176 883 q 518 1008 379 1008 q 760 946 658 1008 q 915 767 861 883 q 969 492 969 650 q 915 217 969 333 q 760 40 861 101 q 518 -22 658 -22 m 518 94 q 758 199 671 94 q 844 492 844 304 q 758 785 844 679 q 518 892 671 892 q 279 785 365 892 q 193 492 193 679 q 279 199 193 304 q 518 94 365 94 m 350 1265 l 481 1265 l 572 1088 l 475 1088 l 350 1265 z "},"Ő":{"ha":1038,"x_min":68,"x_max":969,"o":"m 518 -22 q 278 40 379 -22 q 122 217 176 101 q 68 492 68 333 q 122 767 68 650 q 278 946 176 883 q 518 1008 379 1008 q 760 946 658 1008 q 915 767 861 883 q 969 492 969 650 q 915 217 969 333 q 760 40 861 101 q 518 -22 658 -22 m 518 94 q 758 199 671 94 q 844 492 844 304 q 758 785 844 679 q 518 892 671 892 q 279 785 365 892 q 193 492 193 679 q 279 199 193 304 q 518 94 365 94 z "},"Ō":{"ha":1038,"x_min":68,"x_max":969,"o":"m 518 -22 q 278 40 379 -22 q 122 217 176 101 q 68 492 68 333 q 122 767 68 650 q 278 946 176 883 q 518 1008 379 1008 q 760 946 658 1008 q 915 767 861 883 q 969 492 969 650 q 915 217 969 333 q 760 40 861 101 q 518 -22 658 -22 m 518 94 q 758 199 671 94 q 844 492 844 304 q 758 785 844 679 q 518 892 671 892 q 279 785 365 892 q 193 492 193 679 q 279 199 193 304 q 518 94 365 94 m 332 1218 l 704 1218 l 704 1118 l 332 1118 l 332 1218 z "},"Ø":{"ha":1043,"x_min":68,"x_max":975,"o":"m 181 131 q 74 492 74 265 q 128 767 74 650 q 283 946 182 883 q 524 1008 385 1008 q 779 938 672 1008 l 832 1008 l 946 1008 l 849 876 q 942 712 910 810 q 975 492 975 614 q 921 217 975 333 q 765 40 867 101 q 524 -22 664 -22 q 247 64 360 -22 l 183 -22 l 68 -22 l 181 131 m 524 94 q 763 199 676 94 q 850 492 850 304 q 772 774 850 668 l 321 163 q 524 94 401 94 m 199 492 q 260 236 199 335 l 706 839 q 524 892 632 892 q 285 785 371 892 q 199 492 199 679 z "},"Õ":{"ha":1038,"x_min":68,"x_max":969,"o":"m 518 -22 q 278 40 379 -22 q 122 217 176 101 q 68 492 68 333 q 122 767 68 650 q 278 946 176 883 q 518 1008 379 1008 q 760 946 658 1008 q 915 767 861 883 q 969 492 969 650 q 915 217 969 333 q 760 40 861 101 q 518 -22 658 -22 m 518 94 q 758 199 671 94 q 844 492 844 304 q 758 785 844 679 q 518 892 671 892 q 279 785 365 892 q 193 492 193 679 q 279 199 193 304 q 518 94 365 94 m 600 1097 q 503 1139 554 1097 q 463 1168 476 1161 q 431 1175 450 1175 q 371 1088 375 1175 l 299 1088 q 336 1208 300 1165 q 431 1250 372 1250 q 485 1239 461 1250 q 536 1206 510 1228 q 574 1180 558 1188 q 606 1172 589 1172 q 646 1192 632 1172 q 664 1264 660 1213 l 736 1264 q 696 1141 732 1185 q 600 1097 660 1097 z "},"Œ":{"ha":1508,"x_min":68,"x_max":1429,"o":"m 514 -22 q 275 46 376 -22 q 121 231 174 114 q 68 492 68 347 q 121 755 68 638 q 274 940 174 872 q 514 1008 375 1008 q 702 968 619 1008 q 840 854 785 928 l 840 986 l 1418 986 l 1418 869 l 960 869 l 960 551 l 1401 551 l 1401 438 l 960 438 l 960 117 l 1429 117 l 1429 0 l 840 0 l 840 132 q 702 18 785 58 q 514 -22 619 -22 m 514 94 q 690 147 618 94 q 799 290 763 200 q 836 492 836 381 q 800 694 836 604 q 691 838 764 785 q 514 892 618 892 q 338 838 410 892 q 229 694 265 785 q 193 492 193 604 q 229 290 193 381 q 338 147 265 200 q 514 94 411 94 z "},"P":{"ha":903,"x_min":128,"x_max":831,"o":"m 128 986 l 482 986 q 738 907 646 986 q 831 688 831 828 q 738 464 831 544 q 482 383 646 383 l 247 383 l 247 0 l 128 0 l 128 986 m 482 500 q 706 688 706 500 q 482 869 706 869 l 247 869 l 247 500 l 482 500 z "},"Þ":{"ha":861,"x_min":128,"x_max":789,"o":"m 128 986 l 247 986 l 247 808 l 439 808 q 697 730 604 808 q 789 511 789 651 q 697 288 789 368 q 439 207 604 207 l 247 207 l 247 0 l 128 0 l 128 986 m 439 324 q 664 511 664 324 q 439 692 664 692 l 247 692 l 247 324 l 439 324 z "},"Q":{"ha":1029,"x_min":68,"x_max":961,"o":"m 685 10 q 514 -22 611 -22 q 275 46 376 -22 q 121 231 174 114 q 68 492 68 347 q 121 755 68 638 q 274 940 174 872 q 514 1008 375 1008 q 756 940 654 1008 q 909 755 857 872 q 961 492 961 638 q 912 240 961 354 q 772 58 863 126 l 894 -96 l 767 -96 l 685 10 m 514 94 q 610 110 578 94 l 467 289 l 594 289 l 700 150 q 836 492 836 258 q 800 694 836 604 q 691 838 764 785 q 514 892 618 892 q 338 838 410 892 q 229 694 265 785 q 193 492 193 604 q 229 290 193 381 q 338 147 265 200 q 514 94 411 94 z "},"R":{"ha":933,"x_min":128,"x_max":847,"o":"m 128 986 l 501 986 q 747 906 657 986 q 838 688 838 825 q 789 544 838 606 q 671 461 740 482 q 819 290 806 438 l 847 0 l 726 0 l 701 278 q 657 369 696 340 q 533 397 618 397 l 247 397 l 247 0 l 128 0 l 128 986 m 517 514 q 660 560 607 514 q 713 690 713 606 q 658 823 713 776 q 501 869 603 869 l 247 869 l 247 514 l 517 514 z "},"Ŕ":{"ha":933,"x_min":128,"x_max":847,"o":"m 128 986 l 501 986 q 747 906 657 986 q 838 688 838 825 q 789 544 838 606 q 671 461 740 482 q 819 290 806 438 l 847 0 l 726 0 l 701 278 q 657 369 696 340 q 533 397 618 397 l 247 397 l 247 0 l 128 0 l 128 986 m 517 514 q 660 560 607 514 q 713 690 713 606 q 658 823 713 776 q 501 869 603 869 l 247 869 l 247 514 l 517 514 m 508 1265 l 639 1265 l 514 1088 l 417 1088 l 508 1265 z "},"Ř":{"ha":933,"x_min":128,"x_max":847,"o":"m 128 986 l 501 986 q 747 906 657 986 q 838 688 838 825 q 789 544 838 606 q 671 461 740 482 q 819 290 806 438 l 847 0 l 726 0 l 701 278 q 657 369 696 340 q 533 397 618 397 l 247 397 l 247 0 l 128 0 l 128 986 m 517 514 q 660 560 607 514 q 713 690 713 606 q 658 823 713 776 q 501 869 603 869 l 247 869 l 247 514 l 517 514 m 369 1265 l 463 1142 l 556 1265 l 653 1265 l 528 1081 l 397 1081 l 272 1265 l 369 1265 z "},"Ŗ":{"ha":933,"x_min":128,"x_max":847,"o":"m 128 986 l 501 986 q 747 906 657 986 q 838 688 838 825 q 789 544 838 606 q 671 461 740 482 q 819 290 806 438 l 847 0 l 726 0 l 701 278 q 657 369 696 340 q 533 397 618 397 l 247 397 l 247 0 l 128 0 l 128 986 m 517 514 q 660 560 607 514 q 713 690 713 606 q 658 823 713 776 q 501 869 603 869 l 247 869 l 247 514 l 517 514 m 479 -158 l 429 -158 l 429 -33 l 568 -33 l 568 -147 l 483 -293 l 403 -293 l 479 -158 z "},"S":{"ha":900,"x_min":82,"x_max":818,"o":"m 472 -22 q 275 20 360 -22 q 140 139 190 63 q 82 315 90 215 l 207 324 q 290 153 222 213 q 475 94 357 94 q 636 135 579 94 q 693 250 693 175 q 671 333 693 299 q 588 397 649 368 q 411 456 526 426 q 228 519 294 485 q 133 603 163 554 q 103 728 103 653 q 142 874 103 810 q 256 973 182 938 q 431 1008 331 1008 q 684 922 588 1008 q 797 694 781 835 l 672 686 q 597 835 660 779 q 428 892 535 892 q 282 848 336 892 q 228 733 228 804 q 249 657 228 686 q 324 605 271 628 q 486 556 378 582 q 742 440 667 511 q 818 258 818 368 q 774 110 818 174 q 651 13 729 47 q 472 -22 572 -22 z "},"Ś":{"ha":900,"x_min":82,"x_max":818,"o":"m 472 -22 q 275 20 360 -22 q 140 139 190 63 q 82 315 90 215 l 207 324 q 290 153 222 213 q 475 94 357 94 q 636 135 579 94 q 693 250 693 175 q 671 333 693 299 q 588 397 649 368 q 411 456 526 426 q 228 519 294 485 q 133 603 163 554 q 103 728 103 653 q 142 874 103 810 q 256 973 182 938 q 431 1008 331 1008 q 684 922 588 1008 q 797 694 781 835 l 672 686 q 597 835 660 779 q 428 892 535 892 q 282 848 336 892 q 228 733 228 804 q 249 657 228 686 q 324 605 271 628 q 486 556 378 582 q 742 440 667 511 q 818 258 818 368 q 774 110 818 174 q 651 13 729 47 q 472 -22 572 -22 m 499 1265 l 629 1265 l 504 1088 l 407 1088 l 499 1265 z "},"Š":{"ha":900,"x_min":82,"x_max":818,"o":"m 472 -22 q 275 20 360 -22 q 140 139 190 63 q 82 315 90 215 l 207 324 q 290 153 222 213 q 475 94 357 94 q 636 135 579 94 q 693 250 693 175 q 671 333 693 299 q 588 397 649 368 q 411 456 526 426 q 228 519 294 485 q 133 603 163 554 q 103 728 103 653 q 142 874 103 810 q 256 973 182 938 q 431 1008 331 1008 q 684 922 588 1008 q 797 694 781 835 l 672 686 q 597 835 660 779 q 428 892 535 892 q 282 848 336 892 q 228 733 228 804 q 249 657 228 686 q 324 605 271 628 q 486 556 378 582 q 742 440 667 511 q 818 258 818 368 q 774 110 818 174 q 651 13 729 47 q 472 -22 572 -22 m 360 1265 l 453 1142 l 546 1265 l 643 1265 l 518 1081 l 388 1081 l 263 1265 l 360 1265 z "},"Ş":{"ha":900,"x_min":82,"x_max":818,"o":"m 442 -306 q 336 -276 378 -306 q 279 -197 294 -246 l 350 -169 q 383 -214 363 -200 q 439 -228 404 -228 q 494 -213 474 -228 q 514 -172 514 -199 q 492 -127 514 -143 q 408 -111 469 -111 l 369 -69 l 403 -18 q 178 91 263 1 q 82 315 93 181 l 207 324 q 290 153 222 213 q 475 94 357 94 q 636 135 579 94 q 693 250 693 175 q 671 333 693 299 q 588 397 649 368 q 411 456 526 426 q 228 519 294 485 q 133 603 163 554 q 103 728 103 653 q 142 874 103 810 q 256 973 182 938 q 431 1008 331 1008 q 684 922 588 1008 q 797 694 781 835 l 672 686 q 597 835 660 779 q 428 892 535 892 q 282 848 336 892 q 228 733 228 804 q 249 657 228 686 q 324 605 271 628 q 486 556 378 582 q 742 440 667 511 q 818 258 818 368 q 776 113 818 176 q 658 15 733 50 q 485 -22 582 -21 l 464 -50 q 564 -86 531 -53 q 597 -175 597 -119 q 553 -269 597 -233 q 442 -306 510 -306 z "},"Ŝ":{"ha":900,"x_min":82,"x_max":818,"o":"m 472 -22 q 275 20 360 -22 q 140 139 190 63 q 82 315 90 215 l 207 324 q 290 153 222 213 q 475 94 357 94 q 636 135 579 94 q 693 250 693 175 q 671 333 693 299 q 588 397 649 368 q 411 456 526 426 q 228 519 294 485 q 133 603 163 554 q 103 728 103 653 q 142 874 103 810 q 256 973 182 938 q 431 1008 331 1008 q 684 922 588 1008 q 797 694 781 835 l 672 686 q 597 835 660 779 q 428 892 535 892 q 282 848 336 892 q 228 733 228 804 q 249 657 228 686 q 324 605 271 628 q 486 556 378 582 q 742 440 667 511 q 818 258 818 368 q 774 110 818 174 q 651 13 729 47 q 472 -22 572 -22 m 393 1265 l 524 1265 l 649 1081 l 551 1081 l 458 1204 l 365 1081 l 268 1081 l 393 1265 z "},"Ș":{"ha":900,"x_min":82,"x_max":818,"o":"m 472 -22 q 275 20 360 -22 q 140 139 190 63 q 82 315 90 215 l 207 324 q 290 153 222 213 q 475 94 357 94 q 636 135 579 94 q 693 250 693 175 q 671 333 693 299 q 588 397 649 368 q 411 456 526 426 q 228 519 294 485 q 133 603 163 554 q 103 728 103 653 q 142 874 103 810 q 256 973 182 938 q 431 1008 331 1008 q 684 922 588 1008 q 797 694 781 835 l 672 686 q 597 835 660 779 q 428 892 535 892 q 282 848 336 892 q 228 733 228 804 q 249 657 228 686 q 324 605 271 628 q 486 556 378 582 q 742 440 667 511 q 818 258 818 368 q 774 110 818 174 q 651 13 729 47 q 472 -22 572 -22 m 453 -158 l 403 -158 l 403 -33 l 542 -33 l 542 -147 l 457 -293 l 376 -293 l 453 -158 z "},"ẞ":{"ha":963,"x_min":128,"x_max":876,"o":"m 128 696 q 203 908 128 831 q 406 986 278 986 l 810 986 l 810 858 l 504 589 q 698 557 614 592 q 829 458 782 522 q 876 307 876 393 q 833 147 876 217 q 711 39 790 78 q 526 0 632 0 l 340 0 l 340 117 l 526 117 q 693 167 632 117 q 754 301 754 217 q 685 441 754 390 q 496 490 615 492 l 354 489 l 354 607 l 653 869 l 406 869 q 288 825 329 869 q 247 696 247 781 l 247 0 l 128 0 l 128 696 z "},"T":{"ha":803,"x_min":35,"x_max":768,"o":"m 342 869 l 35 869 l 35 986 l 768 986 l 768 869 l 461 869 l 461 0 l 342 0 l 342 869 z "},"Ŧ":{"ha":803,"x_min":35,"x_max":768,"o":"m 342 432 l 156 432 l 156 535 l 342 535 l 342 869 l 35 869 l 35 986 l 768 986 l 768 869 l 461 869 l 461 535 l 646 535 l 646 432 l 461 432 l 461 0 l 342 0 l 342 432 z "},"Ť":{"ha":803,"x_min":35,"x_max":768,"o":"m 342 869 l 35 869 l 35 986 l 768 986 l 768 869 l 461 869 l 461 0 l 342 0 l 342 869 m 303 1265 l 396 1142 l 489 1265 l 586 1265 l 461 1081 l 331 1081 l 206 1265 l 303 1265 z "},"Ţ":{"ha":803,"x_min":35,"x_max":768,"o":"m 342 869 l 35 869 l 35 986 l 768 986 l 768 869 l 461 869 l 461 0 l 443 0 l 406 -50 q 506 -86 472 -53 q 539 -175 539 -119 q 495 -269 539 -233 q 383 -306 451 -306 q 278 -276 319 -306 q 221 -197 236 -246 l 292 -169 q 325 -214 304 -200 q 381 -228 346 -228 q 435 -213 415 -228 q 456 -172 456 -199 q 433 -127 456 -143 q 350 -111 411 -111 l 311 -69 l 356 0 l 342 0 l 342 869 z "},"Ț":{"ha":803,"x_min":35,"x_max":768,"o":"m 342 869 l 35 869 l 35 986 l 768 986 l 768 869 l 461 869 l 461 0 l 342 0 l 342 869 m 394 -158 l 344 -158 l 344 -33 l 483 -33 l 483 -147 l 399 -293 l 318 -293 l 394 -158 z "},"U":{"ha":957,"x_min":107,"x_max":850,"o":"m 479 -22 q 281 22 365 -22 q 152 150 197 67 q 107 344 107 233 l 107 988 l 226 988 l 226 344 q 292 160 226 225 q 479 94 358 94 q 665 160 599 94 q 731 344 731 225 l 731 988 l 850 988 l 850 344 q 805 150 850 233 q 676 22 760 67 q 479 -22 592 -22 z "},"Ú":{"ha":957,"x_min":107,"x_max":850,"o":"m 479 -22 q 281 22 365 -22 q 152 150 197 67 q 107 344 107 233 l 107 988 l 226 988 l 226 344 q 292 160 226 225 q 479 94 358 94 q 665 160 599 94 q 731 344 731 225 l 731 988 l 850 988 l 850 344 q 805 150 850 233 q 676 22 760 67 q 479 -22 592 -22 m 519 1265 l 650 1265 l 525 1088 l 428 1088 l 519 1265 z "},"Ŭ":{"ha":957,"x_min":107,"x_max":850,"o":"m 479 -22 q 281 22 365 -22 q 152 150 197 67 q 107 344 107 233 l 107 988 l 226 988 l 226 344 q 292 160 226 225 q 479 94 358 94 q 665 160 599 94 q 731 344 731 225 l 731 988 l 850 988 l 850 344 q 805 150 850 233 q 676 22 760 67 q 479 -22 592 -22 m 479 1088 q 342 1135 394 1088 q 285 1265 289 1183 l 365 1265 q 479 1174 378 1174 q 592 1265 579 1174 l 672 1265 q 616 1135 668 1183 q 479 1088 564 1088 z "},"Û":{"ha":957,"x_min":107,"x_max":850,"o":"m 479 -22 q 281 22 365 -22 q 152 150 197 67 q 107 344 107 233 l 107 988 l 226 988 l 226 344 q 292 160 226 225 q 479 94 358 94 q 665 160 599 94 q 731 344 731 225 l 731 988 l 850 988 l 850 344 q 805 150 850 233 q 676 22 760 67 q 479 -22 592 -22 m 414 1265 l 544 1265 l 669 1081 l 572 1081 l 479 1204 l 386 1081 l 289 1081 l 414 1265 z "},"Ü":{"ha":957,"x_min":107,"x_max":850,"o":"m 479 -22 q 281 22 365 -22 q 152 150 197 67 q 107 344 107 233 l 107 988 l 226 988 l 226 344 q 292 160 226 225 q 479 94 358 94 q 665 160 599 94 q 731 344 731 225 l 731 988 l 850 988 l 850 344 q 805 150 850 233 q 676 22 760 67 q 479 -22 592 -22 m 297 1238 l 419 1238 l 419 1101 l 297 1101 l 297 1238 m 539 1238 l 661 1238 l 661 1101 l 539 1101 l 539 1238 z "},"Ù":{"ha":957,"x_min":107,"x_max":850,"o":"m 479 -22 q 281 22 365 -22 q 152 150 197 67 q 107 344 107 233 l 107 988 l 226 988 l 226 344 q 292 160 226 225 q 479 94 358 94 q 665 160 599 94 q 731 344 731 225 l 731 988 l 850 988 l 850 344 q 805 150 850 233 q 676 22 760 67 q 479 -22 592 -22 m 311 1265 l 442 1265 l 533 1088 l 436 1088 l 311 1265 z "},"Ű":{"ha":957,"x_min":107,"x_max":850,"o":"m 479 -22 q 281 22 365 -22 q 152 150 197 67 q 107 344 107 233 l 107 988 l 226 988 l 226 344 q 292 160 226 225 q 479 94 358 94 q 665 160 599 94 q 731 344 731 225 l 731 988 l 850 988 l 850 344 q 805 150 850 233 q 676 22 760 67 q 479 -22 592 -22 z "},"Ū":{"ha":957,"x_min":107,"x_max":850,"o":"m 479 -22 q 281 22 365 -22 q 152 150 197 67 q 107 344 107 233 l 107 988 l 226 988 l 226 344 q 292 160 226 225 q 479 94 358 94 q 665 160 599 94 q 731 344 731 225 l 731 988 l 850 988 l 850 344 q 805 150 850 233 q 676 22 760 67 q 479 -22 592 -22 m 293 1218 l 665 1218 l 665 1118 l 293 1118 l 293 1218 z "},"Ų":{"ha":957,"x_min":107,"x_max":850,"o":"m 107 988 l 226 988 l 226 344 q 292 160 226 225 q 479 94 358 94 q 665 160 599 94 q 731 344 731 225 l 731 988 l 850 988 l 850 344 q 799 140 850 226 q 657 13 749 54 q 512 -74 556 -37 q 468 -151 468 -111 q 482 -187 468 -174 q 522 -200 496 -200 q 601 -171 558 -200 l 601 -260 q 496 -297 560 -297 q 407 -263 443 -297 q 371 -178 371 -229 q 397 -90 371 -126 q 469 -22 422 -54 q 204 79 301 -19 q 107 344 107 178 l 107 988 z "},"Ů":{"ha":957,"x_min":107,"x_max":850,"o":"m 479 -22 q 281 22 365 -22 q 152 150 197 67 q 107 344 107 233 l 107 988 l 226 988 l 226 344 q 292 160 226 225 q 479 94 358 94 q 665 160 599 94 q 731 344 731 225 l 731 988 l 850 988 l 850 344 q 805 150 850 233 q 676 22 760 67 q 479 -22 592 -22 m 479 1050 q 388 1087 425 1050 q 351 1178 351 1124 q 388 1269 351 1232 q 479 1306 425 1306 q 570 1269 533 1306 q 607 1178 607 1232 q 570 1087 607 1124 q 479 1050 533 1050 m 479 1119 q 521 1136 504 1119 q 538 1178 538 1153 q 521 1219 538 1203 q 479 1236 504 1236 q 438 1219 454 1236 q 421 1178 421 1203 q 438 1136 421 1153 q 479 1119 454 1119 z "},"Ũ":{"ha":957,"x_min":107,"x_max":850,"o":"m 479 -22 q 281 22 365 -22 q 152 150 197 67 q 107 344 107 233 l 107 988 l 226 988 l 226 344 q 292 160 226 225 q 479 94 358 94 q 665 160 599 94 q 731 344 731 225 l 731 988 l 850 988 l 850 344 q 805 150 850 233 q 676 22 760 67 q 479 -22 592 -22 m 561 1097 q 464 1139 515 1097 q 424 1168 438 1161 q 392 1175 411 1175 q 332 1088 336 1175 l 260 1088 q 297 1208 261 1165 q 392 1250 333 1250 q 447 1239 422 1250 q 497 1206 471 1228 q 535 1180 519 1188 q 567 1172 550 1172 q 607 1192 593 1172 q 625 1264 621 1213 l 697 1264 q 657 1141 693 1185 q 561 1097 621 1097 z "},"V":{"ha":929,"x_min":29,"x_max":900,"o":"m 29 986 l 160 986 l 465 131 l 769 986 l 900 986 l 543 0 l 386 0 l 29 986 z "},"W":{"ha":1265,"x_min":29,"x_max":1236,"o":"m 29 986 l 160 986 l 363 164 l 564 986 l 700 986 l 903 164 l 1104 986 l 1236 986 l 976 0 l 826 0 l 632 764 l 438 0 l 289 0 l 29 986 z "},"Ẃ":{"ha":1265,"x_min":29,"x_max":1236,"o":"m 29 986 l 160 986 l 363 164 l 564 986 l 700 986 l 903 164 l 1104 986 l 1236 986 l 976 0 l 826 0 l 632 764 l 438 0 l 289 0 l 29 986 m 672 1265 l 803 1265 l 678 1088 l 581 1088 l 672 1265 z "},"Ŵ":{"ha":1265,"x_min":29,"x_max":1236,"o":"m 29 986 l 160 986 l 363 164 l 564 986 l 700 986 l 903 164 l 1104 986 l 1236 986 l 976 0 l 826 0 l 632 764 l 438 0 l 289 0 l 29 986 m 567 1265 l 697 1265 l 822 1081 l 725 1081 l 632 1204 l 539 1081 l 442 1081 l 567 1265 z "},"Ẅ":{"ha":1265,"x_min":29,"x_max":1236,"o":"m 29 986 l 160 986 l 363 164 l 564 986 l 700 986 l 903 164 l 1104 986 l 1236 986 l 976 0 l 826 0 l 632 764 l 438 0 l 289 0 l 29 986 m 450 1238 l 572 1238 l 572 1101 l 450 1101 l 450 1238 m 692 1238 l 814 1238 l 814 1101 l 692 1101 l 692 1238 z "},"Ẁ":{"ha":1265,"x_min":29,"x_max":1236,"o":"m 29 986 l 160 986 l 363 164 l 564 986 l 700 986 l 903 164 l 1104 986 l 1236 986 l 976 0 l 826 0 l 632 764 l 438 0 l 289 0 l 29 986 m 464 1265 l 594 1265 l 686 1088 l 589 1088 l 464 1265 z "},"X":{"ha":875,"x_min":38,"x_max":838,"o":"m 361 494 l 40 986 l 182 986 l 439 589 l 693 986 l 832 986 l 511 497 l 838 0 l 696 0 l 436 403 l 176 0 l 38 0 l 361 494 z "},"Y":{"ha":875,"x_min":29,"x_max":846,"o":"m 378 403 l 29 986 l 171 986 l 438 525 l 704 986 l 846 986 l 497 403 l 497 0 l 378 0 l 378 403 z "},"Ý":{"ha":875,"x_min":29,"x_max":846,"o":"m 378 403 l 29 986 l 171 986 l 438 525 l 704 986 l 846 986 l 497 403 l 497 0 l 378 0 l 378 403 m 478 1265 l 608 1265 l 483 1088 l 386 1088 l 478 1265 z "},"Ŷ":{"ha":875,"x_min":29,"x_max":846,"o":"m 378 403 l 29 986 l 171 986 l 438 525 l 704 986 l 846 986 l 497 403 l 497 0 l 378 0 l 378 403 m 372 1265 l 503 1265 l 628 1081 l 531 1081 l 438 1204 l 344 1081 l 247 1081 l 372 1265 z "},"Ÿ":{"ha":875,"x_min":29,"x_max":846,"o":"m 378 403 l 29 986 l 171 986 l 438 525 l 704 986 l 846 986 l 497 403 l 497 0 l 378 0 l 378 403 m 256 1238 l 378 1238 l 378 1101 l 256 1101 l 256 1238 m 497 1238 l 619 1238 l 619 1101 l 497 1101 l 497 1238 z "},"Ỳ":{"ha":875,"x_min":29,"x_max":846,"o":"m 378 403 l 29 986 l 171 986 l 438 525 l 704 986 l 846 986 l 497 403 l 497 0 l 378 0 l 378 403 m 269 1265 l 400 1265 l 492 1088 l 394 1088 l 269 1265 z "},"Ỹ":{"ha":875,"x_min":29,"x_max":846,"o":"m 378 403 l 29 986 l 171 986 l 438 525 l 704 986 l 846 986 l 497 403 l 497 0 l 378 0 l 378 403 m 519 1097 q 422 1139 474 1097 q 383 1168 396 1161 q 350 1175 369 1175 q 290 1088 294 1175 l 218 1088 q 256 1208 219 1165 q 350 1250 292 1250 q 405 1239 381 1250 q 456 1206 429 1228 q 493 1180 478 1188 q 525 1172 508 1172 q 565 1192 551 1172 q 583 1264 579 1213 l 656 1264 q 615 1141 651 1185 q 519 1097 579 1097 z "},"Z":{"ha":753,"x_min":38,"x_max":715,"o":"m 38 122 l 565 869 l 56 869 l 56 986 l 701 986 l 701 864 l 174 117 l 715 117 l 715 0 l 38 0 l 38 122 z "},"Ź":{"ha":753,"x_min":38,"x_max":715,"o":"m 38 122 l 565 869 l 56 869 l 56 986 l 701 986 l 701 864 l 174 117 l 715 117 l 715 0 l 38 0 l 38 122 m 429 1265 l 560 1265 l 435 1088 l 338 1088 l 429 1265 z "},"Ž":{"ha":753,"x_min":38,"x_max":715,"o":"m 38 122 l 565 869 l 56 869 l 56 986 l 701 986 l 701 864 l 174 117 l 715 117 l 715 0 l 38 0 l 38 122 m 289 1265 l 382 1142 l 475 1265 l 572 1265 l 447 1081 l 317 1081 l 192 1265 l 289 1265 z "},"Ż":{"ha":753,"x_min":38,"x_max":715,"o":"m 38 122 l 565 869 l 56 869 l 56 986 l 701 986 l 701 864 l 174 117 l 715 117 l 715 0 l 38 0 l 38 122 m 326 1238 l 449 1238 l 449 1101 l 326 1101 l 326 1238 z "},"Ꞌ":{"ha":258,"x_min":68,"x_max":190,"o":"m 68 797 l 68 986 l 190 986 l 190 797 l 172 525 l 88 525 l 68 797 z "},"a":{"ha":792,"x_min":65,"x_max":743,"o":"m 314 -17 q 132 36 199 -17 q 65 183 65 89 q 121 332 65 278 q 297 408 176 386 l 558 457 q 383 642 558 642 q 201 510 236 642 l 78 519 q 180 690 99 626 q 383 753 261 753 q 599 674 524 753 q 675 453 675 594 l 675 149 q 684 113 675 124 q 714 103 693 103 l 743 103 l 743 0 q 699 -3 726 -3 q 599 25 632 -3 q 560 114 567 53 q 463 20 532 57 q 314 -17 394 -17 m 325 86 q 496 147 433 86 q 558 303 558 208 l 558 356 l 319 311 q 217 270 247 299 q 188 194 188 242 q 224 115 188 143 q 325 86 260 86 z "},"á":{"ha":792,"x_min":65,"x_max":743,"o":"m 314 -17 q 132 36 199 -17 q 65 183 65 89 q 121 332 65 278 q 297 408 176 386 l 558 457 q 383 642 558 642 q 201 510 236 642 l 78 519 q 180 690 99 626 q 383 753 261 753 q 599 674 524 753 q 675 453 675 594 l 675 149 q 684 113 675 124 q 714 103 693 103 l 743 103 l 743 0 q 699 -3 726 -3 q 599 25 632 -3 q 560 114 567 53 q 463 20 532 57 q 314 -17 394 -17 m 325 86 q 496 147 433 86 q 558 303 558 208 l 558 356 l 319 311 q 217 270 247 299 q 188 194 188 242 q 224 115 188 143 q 325 86 260 86 m 431 1015 l 561 1015 l 436 838 l 339 838 l 431 1015 z "},"ă":{"ha":792,"x_min":65,"x_max":743,"o":"m 314 -17 q 132 36 199 -17 q 65 183 65 89 q 121 332 65 278 q 297 408 176 386 l 558 457 q 383 642 558 642 q 201 510 236 642 l 78 519 q 180 690 99 626 q 383 753 261 753 q 599 674 524 753 q 675 453 675 594 l 675 149 q 684 113 675 124 q 714 103 693 103 l 743 103 l 743 0 q 699 -3 726 -3 q 599 25 632 -3 q 560 114 567 53 q 463 20 532 57 q 314 -17 394 -17 m 325 86 q 496 147 433 86 q 558 303 558 208 l 558 356 l 319 311 q 217 270 247 299 q 188 194 188 242 q 224 115 188 143 q 325 86 260 86 m 390 838 q 253 885 306 838 q 196 1015 200 933 l 276 1015 q 390 924 289 924 q 503 1015 490 924 l 583 1015 q 527 885 579 933 q 390 838 475 838 z "},"ǎ":{"ha":792,"x_min":65,"x_max":743,"o":"m 314 -17 q 132 36 199 -17 q 65 183 65 89 q 121 332 65 278 q 297 408 176 386 l 558 457 q 383 642 558 642 q 201 510 236 642 l 78 519 q 180 690 99 626 q 383 753 261 753 q 599 674 524 753 q 675 453 675 594 l 675 149 q 684 113 675 124 q 714 103 693 103 l 743 103 l 743 0 q 699 -3 726 -3 q 599 25 632 -3 q 560 114 567 53 q 463 20 532 57 q 314 -17 394 -17 m 325 86 q 496 147 433 86 q 558 303 558 208 l 558 356 l 319 311 q 217 270 247 299 q 188 194 188 242 q 224 115 188 143 q 325 86 260 86 m 292 1015 l 385 892 l 478 1015 l 575 1015 l 450 831 l 319 831 l 194 1015 l 292 1015 z "},"â":{"ha":792,"x_min":65,"x_max":743,"o":"m 314 -17 q 132 36 199 -17 q 65 183 65 89 q 121 332 65 278 q 297 408 176 386 l 558 457 q 383 642 558 642 q 201 510 236 642 l 78 519 q 180 690 99 626 q 383 753 261 753 q 599 674 524 753 q 675 453 675 594 l 675 149 q 684 113 675 124 q 714 103 693 103 l 743 103 l 743 0 q 699 -3 726 -3 q 599 25 632 -3 q 560 114 567 53 q 463 20 532 57 q 314 -17 394 -17 m 325 86 q 496 147 433 86 q 558 303 558 208 l 558 356 l 319 311 q 217 270 247 299 q 188 194 188 242 q 224 115 188 143 q 325 86 260 86 m 325 1015 l 456 1015 l 581 831 l 483 831 l 390 954 l 297 831 l 200 831 l 325 1015 z "},"ä":{"ha":792,"x_min":65,"x_max":743,"o":"m 314 -17 q 132 36 199 -17 q 65 183 65 89 q 121 332 65 278 q 297 408 176 386 l 558 457 q 383 642 558 642 q 201 510 236 642 l 78 519 q 180 690 99 626 q 383 753 261 753 q 599 674 524 753 q 675 453 675 594 l 675 149 q 684 113 675 124 q 714 103 693 103 l 743 103 l 743 0 q 699 -3 726 -3 q 599 25 632 -3 q 560 114 567 53 q 463 20 532 57 q 314 -17 394 -17 m 325 86 q 496 147 433 86 q 558 303 558 208 l 558 356 l 319 311 q 217 270 247 299 q 188 194 188 242 q 224 115 188 143 q 325 86 260 86 m 208 988 l 331 988 l 331 851 l 208 851 l 208 988 m 450 988 l 572 988 l 572 851 l 450 851 l 450 988 z "},"à":{"ha":792,"x_min":65,"x_max":743,"o":"m 314 -17 q 132 36 199 -17 q 65 183 65 89 q 121 332 65 278 q 297 408 176 386 l 558 457 q 383 642 558 642 q 201 510 236 642 l 78 519 q 180 690 99 626 q 383 753 261 753 q 599 674 524 753 q 675 453 675 594 l 675 149 q 684 113 675 124 q 714 103 693 103 l 743 103 l 743 0 q 699 -3 726 -3 q 599 25 632 -3 q 560 114 567 53 q 463 20 532 57 q 314 -17 394 -17 m 325 86 q 496 147 433 86 q 558 303 558 208 l 558 356 l 319 311 q 217 270 247 299 q 188 194 188 242 q 224 115 188 143 q 325 86 260 86 m 222 1015 l 353 1015 l 444 838 l 347 838 l 222 1015 z "},"ā":{"ha":792,"x_min":65,"x_max":743,"o":"m 314 -17 q 132 36 199 -17 q 65 183 65 89 q 121 332 65 278 q 297 408 176 386 l 558 457 q 383 642 558 642 q 201 510 236 642 l 78 519 q 180 690 99 626 q 383 753 261 753 q 599 674 524 753 q 675 453 675 594 l 675 149 q 684 113 675 124 q 714 103 693 103 l 743 103 l 743 0 q 699 -3 726 -3 q 599 25 632 -3 q 560 114 567 53 q 463 20 532 57 q 314 -17 394 -17 m 325 86 q 496 147 433 86 q 558 303 558 208 l 558 356 l 319 311 q 217 270 247 299 q 188 194 188 242 q 224 115 188 143 q 325 86 260 86 m 204 968 l 576 968 l 576 868 l 204 868 l 204 968 z "},"ą":{"ha":792,"x_min":65,"x_max":792,"o":"m 314 -17 q 132 36 199 -17 q 65 183 65 89 q 121 332 65 278 q 297 408 176 386 l 558 457 q 383 642 558 642 q 201 510 236 642 l 78 519 q 180 690 99 626 q 383 753 261 753 q 599 674 524 753 q 675 453 675 594 l 675 149 q 684 113 675 124 q 714 103 693 103 l 743 103 l 743 0 l 694 -62 q 651 -158 651 -119 q 663 -187 651 -176 q 692 -197 674 -197 q 758 -178 731 -197 l 792 -256 q 742 -281 776 -271 q 672 -292 708 -292 q 580 -261 614 -292 q 546 -181 546 -231 q 560 -112 546 -144 q 603 -42 574 -79 l 639 4 q 585 41 604 14 q 560 114 565 68 q 463 20 532 57 q 314 -17 394 -17 m 325 86 q 496 147 433 86 q 558 303 558 208 l 558 356 l 319 311 q 217 270 247 299 q 188 194 188 242 q 224 115 188 143 q 325 86 260 86 z "},"å":{"ha":792,"x_min":65,"x_max":743,"o":"m 314 -17 q 132 36 199 -17 q 65 183 65 89 q 121 332 65 278 q 297 408 176 386 l 558 457 q 383 642 558 642 q 201 510 236 642 l 78 519 q 180 690 99 626 q 383 753 261 753 q 599 674 524 753 q 675 453 675 594 l 675 149 q 684 113 675 124 q 714 103 693 103 l 743 103 l 743 0 q 699 -3 726 -3 q 599 25 632 -3 q 560 114 567 53 q 463 20 532 57 q 314 -17 394 -17 m 325 86 q 496 147 433 86 q 558 303 558 208 l 558 356 l 319 311 q 217 270 247 299 q 188 194 188 242 q 224 115 188 143 q 325 86 260 86 m 390 800 q 299 837 336 800 q 263 928 263 874 q 299 1019 263 982 q 390 1056 336 1056 q 481 1019 444 1056 q 518 928 518 982 q 481 837 518 874 q 390 800 444 800 m 390 869 q 432 886 415 869 q 449 928 449 903 q 432 969 449 953 q 390 986 415 986 q 349 969 365 986 q 332 928 332 953 q 349 886 332 903 q 390 869 365 869 z "},"ã":{"ha":792,"x_min":65,"x_max":743,"o":"m 314 -17 q 132 36 199 -17 q 65 183 65 89 q 121 332 65 278 q 297 408 176 386 l 558 457 q 383 642 558 642 q 201 510 236 642 l 78 519 q 180 690 99 626 q 383 753 261 753 q 599 674 524 753 q 675 453 675 594 l 675 149 q 684 113 675 124 q 714 103 693 103 l 743 103 l 743 0 q 699 -3 726 -3 q 599 25 632 -3 q 560 114 567 53 q 463 20 532 57 q 314 -17 394 -17 m 325 86 q 496 147 433 86 q 558 303 558 208 l 558 356 l 319 311 q 217 270 247 299 q 188 194 188 242 q 224 115 188 143 q 325 86 260 86 m 472 847 q 375 889 426 847 q 335 918 349 911 q 303 925 322 925 q 243 838 247 925 l 171 838 q 208 958 172 915 q 303 1000 244 1000 q 358 989 333 1000 q 408 956 382 978 q 446 930 431 938 q 478 922 461 922 q 518 942 504 922 q 536 1014 532 963 l 608 1014 q 568 891 604 935 q 472 847 532 847 z "},"æ":{"ha":1294,"x_min":65,"x_max":1229,"o":"m 331 -17 q 141 43 217 -14 q 65 196 65 100 q 99 313 65 269 q 191 377 133 356 q 343 417 249 399 l 558 457 q 509 594 557 547 q 379 642 461 642 q 265 605 313 642 q 204 510 218 568 l 78 519 q 183 689 100 625 q 379 753 265 753 q 536 718 469 753 q 638 615 603 683 q 750 717 682 682 q 904 753 818 753 q 1074 708 1000 753 q 1188 575 1147 663 q 1229 367 1229 488 l 1229 332 l 694 332 q 756 155 700 215 q 910 94 813 94 q 1027 127 981 94 q 1093 218 1074 160 l 1218 208 q 1106 45 1189 107 q 910 -17 1024 -17 q 735 28 810 -17 q 618 156 660 74 q 514 31 590 78 q 331 -17 438 -15 m 332 82 q 496 142 431 82 q 561 304 561 201 l 561 354 l 388 322 l 347 315 q 259 296 290 306 q 208 263 228 286 q 188 196 188 239 q 225 116 188 150 q 332 82 263 82 m 1101 435 q 1041 590 1093 538 q 904 642 989 642 q 763 589 818 642 q 694 435 708 536 l 1101 435 z "},"b":{"ha":831,"x_min":111,"x_max":765,"o":"m 449 -17 q 313 17 372 -17 q 221 111 253 50 l 217 0 l 111 0 l 111 986 l 228 986 l 228 633 q 317 718 257 683 q 449 753 376 753 q 616 706 544 753 q 726 572 688 658 q 765 368 765 485 q 726 165 765 251 q 616 31 688 78 q 449 -17 544 -17 m 442 94 q 589 168 535 94 q 643 368 643 242 q 590 569 643 496 q 444 642 536 642 q 285 569 343 642 q 228 368 228 496 q 285 168 228 242 q 442 94 342 94 z "},"c":{"ha":767,"x_min":65,"x_max":715,"o":"m 403 -17 q 225 31 301 -17 q 107 165 149 78 q 65 368 65 253 q 107 571 65 483 q 225 706 149 658 q 403 753 301 753 q 614 686 531 753 q 715 497 697 619 l 593 489 q 530 601 581 561 q 403 642 479 642 q 244 569 301 642 q 188 368 188 497 q 244 167 188 239 q 403 94 301 94 q 530 137 479 94 q 593 261 581 179 l 715 253 q 613 56 696 129 q 403 -17 529 -17 z "},"ć":{"ha":767,"x_min":65,"x_max":715,"o":"m 403 -17 q 225 31 301 -17 q 107 165 149 78 q 65 368 65 253 q 107 571 65 483 q 225 706 149 658 q 403 753 301 753 q 614 686 531 753 q 715 497 697 619 l 593 489 q 530 601 581 561 q 403 642 479 642 q 244 569 301 642 q 188 368 188 497 q 244 167 188 239 q 403 94 301 94 q 530 137 479 94 q 593 261 581 179 l 715 253 q 613 56 696 129 q 403 -17 529 -17 m 443 1015 l 574 1015 l 449 838 l 351 838 l 443 1015 z "},"č":{"ha":767,"x_min":65,"x_max":715,"o":"m 403 -17 q 225 31 301 -17 q 107 165 149 78 q 65 368 65 253 q 107 571 65 483 q 225 706 149 658 q 403 753 301 753 q 614 686 531 753 q 715 497 697 619 l 593 489 q 530 601 581 561 q 403 642 479 642 q 244 569 301 642 q 188 368 188 497 q 244 167 188 239 q 403 94 301 94 q 530 137 479 94 q 593 261 581 179 l 715 253 q 613 56 696 129 q 403 -17 529 -17 m 304 1015 l 397 892 l 490 1015 l 588 1015 l 463 831 l 332 831 l 207 1015 l 304 1015 z "},"ç":{"ha":767,"x_min":65,"x_max":715,"o":"m 385 -306 q 279 -276 321 -306 q 222 -197 238 -246 l 293 -169 q 326 -214 306 -200 q 382 -228 347 -228 q 437 -213 417 -228 q 457 -172 457 -199 q 435 -127 457 -143 q 351 -111 413 -111 l 313 -69 l 349 -12 q 141 107 217 6 q 65 368 65 208 q 107 571 65 483 q 225 706 149 658 q 403 753 301 753 q 614 686 531 753 q 715 497 697 619 l 593 489 q 530 601 581 561 q 403 642 479 642 q 244 569 301 642 q 188 368 188 497 q 244 167 188 239 q 403 94 301 94 q 530 137 479 94 q 593 261 581 179 l 715 253 q 622 65 697 136 q 432 -15 547 -7 l 407 -50 q 507 -86 474 -53 q 540 -175 540 -119 q 497 -269 540 -233 q 385 -306 453 -306 z "},"ĉ":{"ha":767,"x_min":65,"x_max":715,"o":"m 403 -17 q 225 31 301 -17 q 107 165 149 78 q 65 368 65 253 q 107 571 65 483 q 225 706 149 658 q 403 753 301 753 q 614 686 531 753 q 715 497 697 619 l 593 489 q 530 601 581 561 q 403 642 479 642 q 244 569 301 642 q 188 368 188 497 q 244 167 188 239 q 403 94 301 94 q 530 137 479 94 q 593 261 581 179 l 715 253 q 613 56 696 129 q 403 -17 529 -17 m 338 1015 l 468 1015 l 593 831 l 496 831 l 403 954 l 310 831 l 213 831 l 338 1015 z "},"ċ":{"ha":767,"x_min":65,"x_max":715,"o":"m 403 -17 q 225 31 301 -17 q 107 165 149 78 q 65 368 65 253 q 107 571 65 483 q 225 706 149 658 q 403 753 301 753 q 614 686 531 753 q 715 497 697 619 l 593 489 q 530 601 581 561 q 403 642 479 642 q 244 569 301 642 q 188 368 188 497 q 244 167 188 239 q 403 94 301 94 q 530 137 479 94 q 593 261 581 179 l 715 253 q 613 56 696 129 q 403 -17 529 -17 m 342 988 l 464 988 l 464 851 l 342 851 l 342 988 z "},"d":{"ha":831,"x_min":65,"x_max":719,"o":"m 376 -17 q 211 31 282 -17 q 103 165 140 78 q 65 368 65 251 q 103 572 65 485 q 211 706 140 658 q 376 753 282 753 q 512 721 451 753 q 603 633 572 689 l 603 986 l 719 986 l 719 0 l 614 0 l 610 111 q 517 17 579 51 q 376 -17 454 -17 m 400 94 q 550 167 497 94 q 603 368 603 240 q 550 569 603 497 q 400 642 497 642 q 245 569 303 642 q 188 368 188 496 q 245 168 188 242 q 400 94 303 94 z "},"ď":{"ha":831,"x_min":65,"x_max":946,"o":"m 376 -17 q 211 31 282 -17 q 103 165 140 78 q 65 368 65 251 q 103 572 65 485 q 211 706 140 658 q 376 753 282 753 q 512 721 451 753 q 603 633 572 689 l 603 986 l 719 986 l 719 0 l 614 0 l 610 111 q 517 17 579 51 q 376 -17 454 -17 m 400 94 q 550 167 497 94 q 603 368 603 240 q 550 569 603 497 q 400 642 497 642 q 245 569 303 642 q 188 368 188 496 q 245 168 188 242 q 400 94 303 94 m 831 986 l 946 986 l 874 650 l 789 650 l 831 986 z "},"đ":{"ha":904,"x_min":65,"x_max":807,"o":"m 456 914 l 603 914 l 603 986 l 719 986 l 719 914 l 807 914 l 807 811 l 719 811 l 719 0 l 614 0 l 610 111 q 517 17 579 51 q 376 -17 454 -17 q 211 31 282 -17 q 103 165 140 78 q 65 368 65 251 q 103 572 65 485 q 211 706 140 658 q 376 753 282 753 q 512 721 451 753 q 603 633 572 689 l 603 811 l 456 811 l 456 914 m 400 94 q 550 167 497 94 q 603 368 603 240 q 550 569 603 497 q 400 642 497 642 q 245 569 303 642 q 188 368 188 496 q 245 168 188 242 q 400 94 303 94 z "},"ð":{"ha":804,"x_min":65,"x_max":761,"o":"m 303 819 l 408 857 q 233 900 335 892 l 261 1003 q 535 901 425 986 l 728 969 l 761 881 l 610 828 q 739 354 739 664 q 697 155 739 239 q 580 27 656 71 q 403 -17 504 -17 q 225 26 301 -17 q 107 150 149 69 q 65 340 65 231 q 107 531 65 450 q 225 654 149 611 q 403 697 301 697 q 593 631 506 697 q 503 789 563 728 l 336 731 l 303 819 m 403 94 q 561 160 506 94 q 617 354 617 225 q 560 524 617 463 q 403 586 503 586 q 244 522 300 586 q 188 340 188 458 q 244 158 188 222 q 403 94 300 94 z "},"e":{"ha":788,"x_min":65,"x_max":722,"o":"m 403 -17 q 224 31 300 -17 q 106 165 147 78 q 65 368 65 251 q 106 571 65 483 q 222 706 147 658 q 397 753 297 753 q 567 708 493 753 q 681 575 640 663 q 722 367 722 488 l 722 332 l 188 332 q 249 155 193 215 q 403 94 306 94 q 520 127 474 94 q 586 218 567 160 l 711 208 q 599 45 682 107 q 403 -17 517 -17 m 594 435 q 534 590 586 538 q 397 642 482 642 q 256 589 311 642 q 188 435 201 536 l 594 435 z "},"é":{"ha":788,"x_min":65,"x_max":722,"o":"m 403 -17 q 224 31 300 -17 q 106 165 147 78 q 65 368 65 251 q 106 571 65 483 q 222 706 147 658 q 397 753 297 753 q 567 708 493 753 q 681 575 640 663 q 722 367 722 488 l 722 332 l 188 332 q 249 155 193 215 q 403 94 306 94 q 520 127 474 94 q 586 218 567 160 l 711 208 q 599 45 682 107 q 403 -17 517 -17 m 594 435 q 534 590 586 538 q 397 642 482 642 q 256 589 311 642 q 188 435 201 536 l 594 435 m 443 1013 l 574 1013 l 449 835 l 351 835 l 443 1013 z "},"ě":{"ha":788,"x_min":65,"x_max":722,"o":"m 403 -17 q 224 31 300 -17 q 106 165 147 78 q 65 368 65 251 q 106 571 65 483 q 222 706 147 658 q 397 753 297 753 q 567 708 493 753 q 681 575 640 663 q 722 367 722 488 l 722 332 l 188 332 q 249 155 193 215 q 403 94 306 94 q 520 127 474 94 q 586 218 567 160 l 711 208 q 599 45 682 107 q 403 -17 517 -17 m 594 435 q 534 590 586 538 q 397 642 482 642 q 256 589 311 642 q 188 435 201 536 l 594 435 m 304 1013 l 397 889 l 490 1013 l 588 1013 l 463 828 l 332 828 l 207 1013 l 304 1013 z "},"ê":{"ha":788,"x_min":65,"x_max":722,"o":"m 403 -17 q 224 31 300 -17 q 106 165 147 78 q 65 368 65 251 q 106 571 65 483 q 222 706 147 658 q 397 753 297 753 q 567 708 493 753 q 681 575 640 663 q 722 367 722 488 l 722 332 l 188 332 q 249 155 193 215 q 403 94 306 94 q 520 127 474 94 q 586 218 567 160 l 711 208 q 599 45 682 107 q 403 -17 517 -17 m 594 435 q 534 590 586 538 q 397 642 482 642 q 256 589 311 642 q 188 435 201 536 l 594 435 m 338 1013 l 468 1013 l 593 828 l 496 828 l 403 951 l 310 828 l 213 828 l 338 1013 z "},"ë":{"ha":788,"x_min":65,"x_max":722,"o":"m 403 -17 q 224 31 300 -17 q 106 165 147 78 q 65 368 65 251 q 106 571 65 483 q 222 706 147 658 q 397 753 297 753 q 567 708 493 753 q 681 575 640 663 q 722 367 722 488 l 722 332 l 188 332 q 249 155 193 215 q 403 94 306 94 q 520 127 474 94 q 586 218 567 160 l 711 208 q 599 45 682 107 q 403 -17 517 -17 m 594 435 q 534 590 586 538 q 397 642 482 642 q 256 589 311 642 q 188 435 201 536 l 594 435 m 221 985 l 343 985 l 343 849 l 221 849 l 221 985 m 463 985 l 585 985 l 585 849 l 463 849 l 463 985 z "},"ė":{"ha":788,"x_min":65,"x_max":722,"o":"m 403 -17 q 224 31 300 -17 q 106 165 147 78 q 65 368 65 251 q 106 571 65 483 q 222 706 147 658 q 397 753 297 753 q 567 708 493 753 q 681 575 640 663 q 722 367 722 488 l 722 332 l 188 332 q 249 155 193 215 q 403 94 306 94 q 520 127 474 94 q 586 218 567 160 l 711 208 q 599 45 682 107 q 403 -17 517 -17 m 594 435 q 534 590 586 538 q 397 642 482 642 q 256 589 311 642 q 188 435 201 536 l 594 435 m 342 985 l 464 985 l 464 849 l 342 849 l 342 985 z "},"è":{"ha":788,"x_min":65,"x_max":722,"o":"m 403 -17 q 224 31 300 -17 q 106 165 147 78 q 65 368 65 251 q 106 571 65 483 q 222 706 147 658 q 397 753 297 753 q 567 708 493 753 q 681 575 640 663 q 722 367 722 488 l 722 332 l 188 332 q 249 155 193 215 q 403 94 306 94 q 520 127 474 94 q 586 218 567 160 l 711 208 q 599 45 682 107 q 403 -17 517 -17 m 594 435 q 534 590 586 538 q 397 642 482 642 q 256 589 311 642 q 188 435 201 536 l 594 435 m 235 1013 l 365 1013 l 457 835 l 360 835 l 235 1013 z "},"ē":{"ha":788,"x_min":65,"x_max":722,"o":"m 403 -17 q 224 31 300 -17 q 106 165 147 78 q 65 368 65 251 q 106 571 65 483 q 222 706 147 658 q 397 753 297 753 q 567 708 493 753 q 681 575 640 663 q 722 367 722 488 l 722 332 l 188 332 q 249 155 193 215 q 403 94 306 94 q 520 127 474 94 q 586 218 567 160 l 711 208 q 599 45 682 107 q 403 -17 517 -17 m 594 435 q 534 590 586 538 q 397 642 482 642 q 256 589 311 642 q 188 435 201 536 l 594 435 m 217 965 l 589 965 l 589 865 l 217 865 l 217 965 z "},"ę":{"ha":788,"x_min":65,"x_max":722,"o":"m 403 -17 q 224 31 300 -17 q 106 165 147 78 q 65 368 65 251 q 106 571 65 483 q 222 706 147 658 q 397 753 297 753 q 567 708 493 753 q 681 575 640 663 q 722 367 722 488 l 722 332 l 188 332 q 249 155 193 215 q 403 94 306 94 q 520 127 474 94 q 586 218 567 160 l 711 208 q 646 89 689 135 l 533 -49 q 485 -153 485 -108 q 496 -186 485 -175 q 525 -197 507 -197 q 592 -178 564 -197 l 625 -256 q 576 -281 610 -271 q 506 -292 542 -292 q 413 -260 446 -292 q 379 -175 379 -229 q 396 -95 379 -132 q 444 -22 413 -58 l 453 -14 q 403 -17 419 -17 m 594 435 q 534 590 586 538 q 397 642 482 642 q 256 589 311 642 q 188 435 201 536 l 594 435 z "},"ẽ":{"ha":788,"x_min":65,"x_max":722,"o":"m 403 -17 q 224 31 300 -17 q 106 165 147 78 q 65 368 65 251 q 106 571 65 483 q 222 706 147 658 q 397 753 297 753 q 567 708 493 753 q 681 575 640 663 q 722 367 722 488 l 722 332 l 188 332 q 249 155 193 215 q 403 94 306 94 q 520 127 474 94 q 586 218 567 160 l 711 208 q 599 45 682 107 q 403 -17 517 -17 m 594 435 q 534 590 586 538 q 397 642 482 642 q 256 589 311 642 q 188 435 201 536 l 594 435 m 485 844 q 388 886 439 844 q 348 915 361 908 q 315 922 335 922 q 256 835 260 922 l 183 835 q 221 955 185 913 q 315 997 257 997 q 370 986 346 997 q 421 953 394 975 q 458 927 443 935 q 490 919 474 919 q 531 940 517 919 q 549 1011 544 960 l 621 1011 q 581 888 617 932 q 485 844 544 844 z "},"ə":{"ha":788,"x_min":65,"x_max":722,"o":"m 385 753 q 564 706 488 753 q 681 572 640 658 q 722 368 722 485 q 681 165 722 253 q 565 31 640 78 q 390 -17 490 -17 q 221 28 294 -17 q 106 161 147 74 q 65 369 65 249 l 65 404 l 600 404 q 538 581 594 521 q 385 642 482 642 q 267 609 314 642 q 201 518 221 576 l 76 528 q 188 691 106 629 q 385 753 271 753 m 193 301 q 253 147 201 199 q 390 94 306 94 q 531 147 476 94 q 600 301 586 200 l 193 301 z "},"f":{"ha":553,"x_min":83,"x_max":494,"o":"m 183 803 q 232 937 183 888 q 378 986 281 986 l 494 986 l 494 883 l 386 883 q 322 860 343 883 q 300 794 300 838 l 300 736 l 485 736 l 485 633 l 300 633 l 300 0 l 183 0 l 183 633 l 83 633 l 83 736 l 183 736 l 183 803 z "},"g":{"ha":829,"x_min":65,"x_max":718,"o":"m 394 -225 q 193 -167 276 -225 q 86 -11 110 -108 l 208 -3 q 269 -86 226 -58 q 394 -114 313 -114 q 549 -74 496 -114 q 601 47 601 -33 l 601 167 q 516 74 574 108 q 386 39 458 39 q 220 84 293 39 q 106 210 147 129 q 65 396 65 292 q 106 581 65 500 q 217 708 146 663 q 381 753 289 753 q 520 717 458 753 q 607 619 582 681 l 607 736 l 718 736 l 718 50 q 632 -152 718 -79 q 394 -225 546 -225 m 392 150 q 545 218 489 150 q 601 403 601 286 q 544 577 601 513 q 392 642 488 642 q 242 576 296 642 q 188 396 188 510 q 242 216 188 282 q 392 150 297 150 z "},"ğ":{"ha":829,"x_min":65,"x_max":718,"o":"m 394 -225 q 193 -167 276 -225 q 86 -11 110 -108 l 208 -3 q 269 -86 226 -58 q 394 -114 313 -114 q 549 -74 496 -114 q 601 47 601 -33 l 601 167 q 516 74 574 108 q 386 39 458 39 q 220 84 293 39 q 106 210 147 129 q 65 396 65 292 q 106 581 65 500 q 217 708 146 663 q 381 753 289 753 q 520 717 458 753 q 607 619 582 681 l 607 736 l 718 736 l 718 50 q 632 -152 718 -79 q 394 -225 546 -225 m 392 150 q 545 218 489 150 q 601 403 601 286 q 544 577 601 513 q 392 642 488 642 q 242 576 296 642 q 188 396 188 510 q 242 216 188 282 q 392 150 297 150 m 397 838 q 260 885 313 838 q 203 1015 207 933 l 283 1015 q 397 924 296 924 q 510 1015 497 924 l 590 1015 q 534 885 586 933 q 397 838 482 838 z "},"ǧ":{"ha":829,"x_min":65,"x_max":718,"o":"m 394 -225 q 193 -167 276 -225 q 86 -11 110 -108 l 208 -3 q 269 -86 226 -58 q 394 -114 313 -114 q 549 -74 496 -114 q 601 47 601 -33 l 601 167 q 516 74 574 108 q 386 39 458 39 q 220 84 293 39 q 106 210 147 129 q 65 396 65 292 q 106 581 65 500 q 217 708 146 663 q 381 753 289 753 q 520 717 458 753 q 607 619 582 681 l 607 736 l 718 736 l 718 50 q 632 -152 718 -79 q 394 -225 546 -225 m 392 150 q 545 218 489 150 q 601 403 601 286 q 544 577 601 513 q 392 642 488 642 q 242 576 296 642 q 188 396 188 510 q 242 216 188 282 q 392 150 297 150 m 299 1015 l 392 892 l 485 1015 l 582 1015 l 457 831 l 326 831 l 201 1015 l 299 1015 z "},"ĝ":{"ha":829,"x_min":65,"x_max":718,"o":"m 394 -225 q 193 -167 276 -225 q 86 -11 110 -108 l 208 -3 q 269 -86 226 -58 q 394 -114 313 -114 q 549 -74 496 -114 q 601 47 601 -33 l 601 167 q 516 74 574 108 q 386 39 458 39 q 220 84 293 39 q 106 210 147 129 q 65 396 65 292 q 106 581 65 500 q 217 708 146 663 q 381 753 289 753 q 520 717 458 753 q 607 619 582 681 l 607 736 l 718 736 l 718 50 q 632 -152 718 -79 q 394 -225 546 -225 m 392 150 q 545 218 489 150 q 601 403 601 286 q 544 577 601 513 q 392 642 488 642 q 242 576 296 642 q 188 396 188 510 q 242 216 188 282 q 392 150 297 150 m 332 1015 l 463 1015 l 588 831 l 490 831 l 397 954 l 304 831 l 207 831 l 332 1015 z "},"ģ":{"ha":829,"x_min":65,"x_max":718,"o":"m 394 -225 q 193 -167 276 -225 q 86 -11 110 -108 l 208 -3 q 269 -86 226 -58 q 394 -114 313 -114 q 549 -74 496 -114 q 601 47 601 -33 l 601 167 q 516 74 574 108 q 386 39 458 39 q 220 84 293 39 q 106 210 147 129 q 65 396 65 292 q 106 581 65 500 q 217 708 146 663 q 381 753 289 753 q 520 717 458 753 q 607 619 582 681 l 607 736 l 718 736 l 718 50 q 632 -152 718 -79 q 394 -225 546 -225 m 392 150 q 545 218 489 150 q 601 403 601 286 q 544 577 601 513 q 392 642 488 642 q 242 576 296 642 q 188 396 188 510 q 242 216 188 282 q 392 150 297 150 m 325 951 l 410 1097 l 490 1097 l 414 963 l 464 963 l 464 838 l 325 838 l 325 951 z "},"ġ":{"ha":829,"x_min":65,"x_max":718,"o":"m 394 -225 q 193 -167 276 -225 q 86 -11 110 -108 l 208 -3 q 269 -86 226 -58 q 394 -114 313 -114 q 549 -74 496 -114 q 601 47 601 -33 l 601 167 q 516 74 574 108 q 386 39 458 39 q 220 84 293 39 q 106 210 147 129 q 65 396 65 292 q 106 581 65 500 q 217 708 146 663 q 381 753 289 753 q 520 717 458 753 q 607 619 582 681 l 607 736 l 718 736 l 718 50 q 632 -152 718 -79 q 394 -225 546 -225 m 392 150 q 545 218 489 150 q 601 403 601 286 q 544 577 601 513 q 392 642 488 642 q 242 576 296 642 q 188 396 188 510 q 242 216 188 282 q 392 150 297 150 m 336 988 l 458 988 l 458 851 l 336 851 l 336 988 z "},"ḡ":{"ha":829,"x_min":65,"x_max":718,"o":"m 394 -225 q 193 -167 276 -225 q 86 -11 110 -108 l 208 -3 q 269 -86 226 -58 q 394 -114 313 -114 q 549 -74 496 -114 q 601 47 601 -33 l 601 167 q 516 74 574 108 q 386 39 458 39 q 220 84 293 39 q 106 210 147 129 q 65 396 65 292 q 106 581 65 500 q 217 708 146 663 q 381 753 289 753 q 520 717 458 753 q 607 619 582 681 l 607 736 l 718 736 l 718 50 q 632 -152 718 -79 q 394 -225 546 -225 m 392 150 q 545 218 489 150 q 601 403 601 286 q 544 577 601 513 q 392 642 488 642 q 242 576 296 642 q 188 396 188 510 q 242 216 188 282 q 392 150 297 150 m 211 968 l 583 968 l 583 868 l 211 868 l 211 968 z "},"ǥ":{"ha":879,"x_min":65,"x_max":796,"o":"m 325 425 l 601 425 q 539 583 596 525 q 392 642 482 642 q 242 576 296 642 q 188 396 188 510 q 242 216 188 282 q 392 150 297 150 q 523 196 469 150 q 593 322 576 242 l 325 322 l 325 425 m 394 -225 q 193 -167 276 -225 q 86 -11 110 -108 l 208 -3 q 269 -86 226 -58 q 394 -114 313 -114 q 549 -74 496 -114 q 601 47 601 -33 l 601 167 q 516 74 574 108 q 386 39 458 39 q 220 84 293 39 q 106 210 147 129 q 65 396 65 292 q 106 581 65 500 q 217 708 146 663 q 381 753 289 753 q 520 717 458 753 q 607 619 582 681 l 607 736 l 718 736 l 718 425 l 796 425 l 796 322 l 718 322 l 718 50 q 632 -152 718 -79 q 394 -225 546 -225 z "},"h":{"ha":807,"x_min":111,"x_max":696,"o":"m 111 986 l 228 986 l 228 621 q 313 719 256 686 q 450 753 371 753 q 631 676 567 753 q 696 474 696 600 l 696 0 l 579 0 l 579 440 q 425 650 579 650 q 281 594 333 650 q 228 439 228 539 l 228 0 l 111 0 l 111 986 z "},"ħ":{"ha":842,"x_min":83,"x_max":744,"o":"m 83 914 l 160 914 l 160 986 l 276 986 l 276 914 l 436 914 l 436 811 l 276 811 l 276 621 q 362 719 304 686 q 499 753 419 753 q 680 676 615 753 q 744 474 744 600 l 744 0 l 628 0 l 628 440 q 474 650 628 650 q 329 594 382 650 q 276 439 276 539 l 276 0 l 160 0 l 160 811 l 83 811 l 83 914 z "},"ĥ":{"ha":807,"x_min":-21,"x_max":696,"o":"m 111 986 l 228 986 l 228 621 q 313 719 256 686 q 450 753 371 753 q 631 676 567 753 q 696 474 696 600 l 696 0 l 579 0 l 579 440 q 425 650 579 650 q 281 594 333 650 q 228 439 228 539 l 228 0 l 111 0 l 111 986 m 104 1265 l 235 1265 l 360 1081 l 263 1081 l 169 1204 l 76 1081 l -21 1081 l 104 1265 z "},"i":{"ha":339,"x_min":108,"x_max":231,"o":"m 111 736 l 228 736 l 228 0 l 111 0 l 111 736 m 108 988 l 231 988 l 231 851 l 108 851 l 108 988 z "},"ı":{"ha":339,"x_min":111,"x_max":228,"o":"m 111 736 l 228 736 l 228 0 l 111 0 l 111 736 z "},"í":{"ha":339,"x_min":111,"x_max":340,"o":"m 111 736 l 228 736 l 228 0 l 111 0 l 111 736 m 210 1015 l 340 1015 l 215 838 l 118 838 l 210 1015 z "},"î":{"ha":339,"x_min":-21,"x_max":360,"o":"m 111 736 l 228 736 l 228 0 l 111 0 l 111 736 m 104 1015 l 235 1015 l 360 831 l 263 831 l 169 954 l 76 831 l -21 831 l 104 1015 z "},"ï":{"ha":339,"x_min":-12,"x_max":351,"o":"m 111 736 l 228 736 l 228 0 l 111 0 l 111 736 m -12 988 l 110 988 l 110 851 l -12 851 l -12 988 m 229 988 l 351 988 l 351 851 l 229 851 l 229 988 z "},"ì":{"ha":339,"x_min":1,"x_max":228,"o":"m 111 736 l 228 736 l 228 0 l 111 0 l 111 736 m 1 1015 l 132 1015 l 224 838 l 126 838 l 1 1015 z "},"ī":{"ha":339,"x_min":-17,"x_max":356,"o":"m 111 736 l 228 736 l 228 0 l 111 0 l 111 736 m -17 968 l 356 968 l 356 868 l -17 868 l -17 968 z "},"į":{"ha":339,"x_min":31,"x_max":276,"o":"m 111 736 l 228 736 l 228 0 l 179 -62 q 136 -158 136 -119 q 147 -187 136 -176 q 176 -197 158 -197 q 243 -178 215 -197 l 276 -256 q 227 -281 261 -271 q 157 -292 193 -292 q 65 -261 99 -292 q 31 -181 31 -231 q 44 -112 31 -144 q 88 -42 58 -79 l 121 0 l 111 0 l 111 736 m 108 988 l 231 988 l 231 851 l 108 851 l 108 988 z "},"ĩ":{"ha":339,"x_min":-50,"x_max":388,"o":"m 111 736 l 228 736 l 228 0 l 111 0 l 111 736 m 251 847 q 154 889 206 847 q 115 918 128 911 q 82 925 101 925 q 22 838 26 925 l -50 838 q -12 958 -49 915 q 82 1000 24 1000 q 137 989 113 1000 q 188 956 161 978 q 225 930 210 938 q 257 922 240 922 q 297 942 283 922 q 315 1014 311 963 l 388 1014 q 347 891 383 935 q 251 847 311 847 z "},"ĳ":{"ha":686,"x_min":108,"x_max":578,"o":"m 111 736 l 228 736 l 228 0 l 111 0 l 111 736 m 108 988 l 231 988 l 231 851 l 108 851 l 108 988 z "},"j":{"ha":361,"x_min":-7,"x_max":253,"o":"m -7 -106 l 53 -106 q 113 -87 92 -106 q 133 -25 133 -68 l 133 736 l 250 736 l 250 -31 q 207 -168 250 -128 q 64 -208 164 -208 l -7 -208 l -7 -106 m 131 988 l 253 988 l 253 851 l 131 851 l 131 988 z "},"ȷ":{"ha":361,"x_min":-7,"x_max":250,"o":"m -7 -106 l 53 -106 q 113 -87 92 -106 q 133 -25 133 -68 l 133 736 l 250 736 l 250 -31 q 207 -168 250 -128 q 64 -208 164 -208 l -7 -208 l -7 -106 z "},"ĵ":{"ha":361,"x_min":-7,"x_max":382,"o":"m -7 -106 l 53 -106 q 113 -87 92 -106 q 133 -25 133 -68 l 133 736 l 250 736 l 250 -31 q 207 -168 250 -128 q 64 -208 164 -208 l -7 -208 l -7 -106 m 126 1015 l 257 1015 l 382 831 l 285 831 l 192 954 l 99 831 l 1 831 l 126 1015 z "},"k":{"ha":819,"x_min":111,"x_max":754,"o":"m 111 986 l 228 986 l 228 340 l 586 736 l 742 736 l 451 424 l 754 0 l 613 0 l 372 344 l 228 192 l 228 0 l 111 0 l 111 986 z "},"ǩ":{"ha":819,"x_min":-26,"x_max":754,"o":"m 111 986 l 228 986 l 228 340 l 586 736 l 742 736 l 451 424 l 754 0 l 613 0 l 372 344 l 228 192 l 228 0 l 111 0 l 111 986 m 71 1265 l 164 1142 l 257 1265 l 354 1265 l 229 1081 l 99 1081 l -26 1265 l 71 1265 z "},"ķ":{"ha":819,"x_min":111,"x_max":754,"o":"m 111 986 l 228 986 l 228 340 l 586 736 l 742 736 l 451 424 l 754 0 l 613 0 l 372 344 l 228 192 l 228 0 l 111 0 l 111 986 m 407 -158 l 357 -158 l 357 -33 l 496 -33 l 496 -147 l 411 -293 l 331 -293 l 407 -158 z "},"l":{"ha":394,"x_min":111,"x_max":339,"o":"m 257 0 q 150 34 189 0 q 111 139 111 68 l 113 986 l 229 986 l 229 149 q 275 103 229 103 l 339 103 l 339 0 l 257 0 z "},"ĺ":{"ha":394,"x_min":111,"x_max":340,"o":"m 257 0 q 150 34 189 0 q 111 139 111 68 l 113 986 l 229 986 l 229 149 q 275 103 229 103 l 339 103 l 339 0 l 257 0 m 210 1265 l 340 1265 l 215 1088 l 118 1088 l 210 1265 z "},"ľ":{"ha":394,"x_min":111,"x_max":456,"o":"m 257 0 q 150 34 189 0 q 111 139 111 68 l 113 986 l 229 986 l 229 149 q 275 103 229 103 l 339 103 l 339 0 l 257 0 m 340 986 l 456 986 l 383 650 l 299 650 l 340 986 z "},"ļ":{"ha":394,"x_min":111,"x_max":339,"o":"m 257 0 q 150 34 189 0 q 111 139 111 68 l 113 986 l 229 986 l 229 149 q 275 103 229 103 l 339 103 l 339 0 l 257 0 m 224 -158 l 174 -158 l 174 -33 l 313 -33 l 313 -147 l 228 -293 l 147 -293 l 224 -158 z "},"ł":{"ha":413,"x_min":14,"x_max":371,"o":"m 14 517 l 125 567 l 125 986 l 242 986 l 242 621 l 328 660 l 371 567 l 242 507 l 242 149 q 288 103 242 103 l 351 103 l 351 0 l 269 0 q 163 34 201 0 q 124 139 124 68 l 124 453 l 58 422 l 14 517 z "},"m":{"ha":1218,"x_min":111,"x_max":1107,"o":"m 111 736 l 218 736 l 221 607 q 303 714 249 675 q 428 753 357 753 q 568 713 511 753 q 649 599 625 672 q 728 713 672 674 q 864 753 783 753 q 1044 680 981 753 q 1107 474 1107 607 l 1107 0 l 990 0 l 990 449 q 951 599 990 549 q 836 650 913 650 q 713 594 758 650 q 667 440 667 539 l 667 0 l 550 0 l 550 440 q 399 650 550 650 q 274 594 321 650 q 228 440 228 538 l 228 0 l 111 0 l 111 736 z "},"n":{"ha":807,"x_min":111,"x_max":696,"o":"m 111 736 l 218 736 l 221 604 q 308 715 249 678 q 447 753 368 753 q 632 675 568 753 q 696 474 696 597 l 696 0 l 579 0 l 579 440 q 542 597 579 544 q 422 650 504 650 q 281 595 335 650 q 228 440 228 540 l 228 0 l 111 0 l 111 736 z "},"ń":{"ha":807,"x_min":111,"x_max":696,"o":"m 111 736 l 218 736 l 221 604 q 308 715 249 678 q 447 753 368 753 q 632 675 568 753 q 696 474 696 597 l 696 0 l 579 0 l 579 440 q 542 597 579 544 q 422 650 504 650 q 281 595 335 650 q 228 440 228 540 l 228 0 l 111 0 l 111 736 m 444 1015 l 575 1015 l 450 838 l 353 838 l 444 1015 z "},"ň":{"ha":807,"x_min":111,"x_max":696,"o":"m 111 736 l 218 736 l 221 604 q 308 715 249 678 q 447 753 368 753 q 632 675 568 753 q 696 474 696 597 l 696 0 l 579 0 l 579 440 q 542 597 579 544 q 422 650 504 650 q 281 595 335 650 q 228 440 228 540 l 228 0 l 111 0 l 111 736 m 306 1015 l 399 892 l 492 1015 l 589 1015 l 464 831 l 333 831 l 208 1015 l 306 1015 z "},"ņ":{"ha":807,"x_min":111,"x_max":696,"o":"m 111 736 l 218 736 l 221 604 q 308 715 249 678 q 447 753 368 753 q 632 675 568 753 q 696 474 696 597 l 696 0 l 579 0 l 579 440 q 542 597 579 544 q 422 650 504 650 q 281 595 335 650 q 228 440 228 540 l 228 0 l 111 0 l 111 736 m 397 -158 l 347 -158 l 347 -33 l 486 -33 l 486 -147 l 401 -293 l 321 -293 l 397 -158 z "},"ñ":{"ha":807,"x_min":111,"x_max":696,"o":"m 111 736 l 218 736 l 221 604 q 308 715 249 678 q 447 753 368 753 q 632 675 568 753 q 696 474 696 597 l 696 0 l 579 0 l 579 440 q 542 597 579 544 q 422 650 504 650 q 281 595 335 650 q 228 440 228 540 l 228 0 l 111 0 l 111 736 m 486 847 q 389 889 440 847 q 349 918 363 911 q 317 925 336 925 q 257 838 261 925 l 185 838 q 222 958 186 915 q 317 1000 258 1000 q 372 989 347 1000 q 422 956 396 978 q 460 930 444 938 q 492 922 475 922 q 532 942 518 922 q 550 1014 546 963 l 622 1014 q 582 891 618 935 q 486 847 546 847 z "},"ŋ":{"ha":807,"x_min":111,"x_max":696,"o":"m 375 -106 l 490 -106 q 555 -80 531 -106 q 579 -11 579 -54 l 579 440 q 542 597 579 544 q 422 650 504 650 q 281 595 335 650 q 228 440 228 540 l 228 0 l 111 0 l 111 736 l 218 736 l 221 604 q 308 715 249 678 q 447 753 368 753 q 632 675 568 753 q 696 474 696 597 l 696 -10 q 640 -154 696 -100 q 488 -208 583 -208 l 375 -208 l 375 -106 z "},"o":{"ha":804,"x_min":65,"x_max":739,"o":"m 403 -17 q 225 31 301 -17 q 107 165 149 78 q 65 368 65 251 q 107 572 65 485 q 225 706 149 658 q 403 753 301 753 q 579 706 503 753 q 697 572 656 658 q 739 368 739 485 q 697 165 739 251 q 579 31 656 78 q 403 -17 503 -17 m 403 94 q 560 167 504 94 q 617 368 617 240 q 560 569 617 496 q 403 642 504 642 q 244 569 301 642 q 188 368 188 497 q 244 167 188 239 q 403 94 301 94 z "},"ó":{"ha":804,"x_min":65,"x_max":739,"o":"m 403 -17 q 225 31 301 -17 q 107 165 149 78 q 65 368 65 251 q 107 572 65 485 q 225 706 149 658 q 403 753 301 753 q 579 706 503 753 q 697 572 656 658 q 739 368 739 485 q 697 165 739 251 q 579 31 656 78 q 403 -17 503 -17 m 403 94 q 560 167 504 94 q 617 368 617 240 q 560 569 617 496 q 403 642 504 642 q 244 569 301 642 q 188 368 188 497 q 244 167 188 239 q 403 94 301 94 m 443 1015 l 574 1015 l 449 838 l 351 838 l 443 1015 z "},"ô":{"ha":804,"x_min":65,"x_max":739,"o":"m 403 -17 q 225 31 301 -17 q 107 165 149 78 q 65 368 65 251 q 107 572 65 485 q 225 706 149 658 q 403 753 301 753 q 579 706 503 753 q 697 572 656 658 q 739 368 739 485 q 697 165 739 251 q 579 31 656 78 q 403 -17 503 -17 m 403 94 q 560 167 504 94 q 617 368 617 240 q 560 569 617 496 q 403 642 504 642 q 244 569 301 642 q 188 368 188 497 q 244 167 188 239 q 403 94 301 94 m 338 1015 l 468 1015 l 593 831 l 496 831 l 403 954 l 310 831 l 213 831 l 338 1015 z "},"ö":{"ha":804,"x_min":65,"x_max":739,"o":"m 403 -17 q 225 31 301 -17 q 107 165 149 78 q 65 368 65 251 q 107 572 65 485 q 225 706 149 658 q 403 753 301 753 q 579 706 503 753 q 697 572 656 658 q 739 368 739 485 q 697 165 739 251 q 579 31 656 78 q 403 -17 503 -17 m 403 94 q 560 167 504 94 q 617 368 617 240 q 560 569 617 496 q 403 642 504 642 q 244 569 301 642 q 188 368 188 497 q 244 167 188 239 q 403 94 301 94 m 221 988 l 343 988 l 343 851 l 221 851 l 221 988 m 463 988 l 585 988 l 585 851 l 463 851 l 463 988 z "},"ò":{"ha":804,"x_min":65,"x_max":739,"o":"m 403 -17 q 225 31 301 -17 q 107 165 149 78 q 65 368 65 251 q 107 572 65 485 q 225 706 149 658 q 403 753 301 753 q 579 706 503 753 q 697 572 656 658 q 739 368 739 485 q 697 165 739 251 q 579 31 656 78 q 403 -17 503 -17 m 403 94 q 560 167 504 94 q 617 368 617 240 q 560 569 617 496 q 403 642 504 642 q 244 569 301 642 q 188 368 188 497 q 244 167 188 239 q 403 94 301 94 m 235 1015 l 365 1015 l 457 838 l 360 838 l 235 1015 z "},"ő":{"ha":804,"x_min":65,"x_max":739,"o":"m 403 -17 q 225 31 301 -17 q 107 165 149 78 q 65 368 65 251 q 107 572 65 485 q 225 706 149 658 q 403 753 301 753 q 579 706 503 753 q 697 572 656 658 q 739 368 739 485 q 697 165 739 251 q 579 31 656 78 q 403 -17 503 -17 m 403 94 q 560 167 504 94 q 617 368 617 240 q 560 569 617 496 q 403 642 504 642 q 244 569 301 642 q 188 368 188 497 q 244 167 188 239 q 403 94 301 94 z "},"ō":{"ha":804,"x_min":65,"x_max":739,"o":"m 403 -17 q 225 31 301 -17 q 107 165 149 78 q 65 368 65 251 q 107 572 65 485 q 225 706 149 658 q 403 753 301 753 q 579 706 503 753 q 697 572 656 658 q 739 368 739 485 q 697 165 739 251 q 579 31 656 78 q 403 -17 503 -17 m 403 94 q 560 167 504 94 q 617 368 617 240 q 560 569 617 496 q 403 642 504 642 q 244 569 301 642 q 188 368 188 497 q 244 167 188 239 q 403 94 301 94 m 217 968 l 589 968 l 589 868 l 217 868 l 217 968 z "},"ø":{"ha":783,"x_min":17,"x_max":783,"o":"m 132 121 q 65 368 65 219 q 107 572 65 485 q 225 706 149 658 q 403 753 301 753 q 607 686 524 753 l 663 753 l 783 753 l 671 618 q 739 368 739 517 q 697 165 739 251 q 579 31 656 78 q 403 -17 503 -17 q 194 51 279 -17 l 138 -17 l 17 -17 l 132 121 m 403 94 q 560 167 504 94 q 617 368 617 240 q 589 521 617 457 l 269 140 q 403 94 324 94 m 188 368 q 214 218 188 285 l 532 597 q 403 642 481 642 q 244 569 301 642 q 188 368 188 497 z "},"õ":{"ha":804,"x_min":65,"x_max":739,"o":"m 403 -17 q 225 31 301 -17 q 107 165 149 78 q 65 368 65 251 q 107 572 65 485 q 225 706 149 658 q 403 753 301 753 q 579 706 503 753 q 697 572 656 658 q 739 368 739 485 q 697 165 739 251 q 579 31 656 78 q 403 -17 503 -17 m 403 94 q 560 167 504 94 q 617 368 617 240 q 560 569 617 496 q 403 642 504 642 q 244 569 301 642 q 188 368 188 497 q 244 167 188 239 q 403 94 301 94 m 485 847 q 388 889 439 847 q 348 918 361 911 q 315 925 335 925 q 256 838 260 925 l 183 838 q 221 958 185 915 q 315 1000 257 1000 q 370 989 346 1000 q 421 956 394 978 q 458 930 443 938 q 490 922 474 922 q 531 942 517 922 q 549 1014 544 963 l 621 1014 q 581 891 617 935 q 485 847 544 847 z "},"œ":{"ha":1339,"x_min":65,"x_max":1274,"o":"m 403 -17 q 225 31 301 -17 q 107 165 149 78 q 65 368 65 251 q 107 572 65 485 q 225 706 149 658 q 403 753 301 753 q 563 715 493 753 q 678 608 633 678 q 790 715 721 678 q 949 753 860 753 q 1118 708 1044 753 q 1233 575 1192 663 q 1274 367 1274 488 l 1274 332 l 739 332 q 801 155 744 215 q 954 94 857 94 q 1072 127 1025 94 q 1138 218 1118 160 l 1263 208 q 1151 45 1233 107 q 954 -17 1068 -17 q 792 21 863 -17 q 678 129 721 58 q 563 21 633 58 q 403 -17 493 -17 m 403 94 q 560 167 504 94 q 617 368 617 240 q 560 569 617 496 q 403 642 504 642 q 244 569 301 642 q 188 368 188 497 q 244 167 188 239 q 403 94 301 94 m 1146 435 q 1085 590 1138 538 q 949 642 1033 642 q 808 589 863 642 q 739 435 753 536 l 1146 435 z "},"p":{"ha":831,"x_min":111,"x_max":765,"o":"m 111 736 l 219 736 l 221 624 q 313 719 254 686 q 447 753 371 753 q 624 701 553 753 q 731 561 696 649 q 765 368 765 474 q 731 175 765 263 q 624 35 696 88 q 447 -17 553 -17 q 316 14 375 -17 q 228 97 257 44 l 228 -208 l 111 -208 l 111 736 m 436 94 q 588 167 532 94 q 643 368 643 239 q 588 569 643 497 q 436 642 532 642 q 283 572 339 642 q 228 368 228 501 q 283 165 228 235 q 436 94 338 94 z "},"þ":{"ha":831,"x_min":111,"x_max":765,"o":"m 111 986 l 231 986 l 231 643 q 319 725 263 697 q 454 753 375 753 q 626 701 556 753 q 731 561 696 649 q 765 368 765 474 q 731 175 765 263 q 626 35 696 88 q 454 -17 556 -17 q 231 89 301 -17 l 231 -208 l 111 -208 l 111 986 m 431 94 q 590 173 538 94 q 643 368 643 251 q 590 567 643 488 q 431 647 538 647 q 271 567 324 647 q 218 368 218 486 q 272 174 218 254 q 431 94 325 94 z "},"q":{"ha":831,"x_min":65,"x_max":719,"o":"m 603 -208 l 603 97 q 515 14 574 44 q 383 -17 456 -17 q 206 35 278 -17 q 100 175 135 88 q 65 368 65 263 q 100 561 65 474 q 206 701 135 649 q 383 753 278 753 q 518 719 460 753 q 610 624 576 686 l 611 736 l 719 736 l 719 -208 l 603 -208 m 394 94 q 548 165 493 94 q 603 368 603 235 q 547 572 603 501 q 394 642 492 642 q 243 569 299 642 q 188 368 188 497 q 243 167 188 239 q 394 94 299 94 z "},"r":{"ha":531,"x_min":111,"x_max":465,"o":"m 111 736 l 214 736 l 218 600 q 393 736 257 736 l 465 736 l 465 625 l 394 625 q 228 444 228 625 l 228 0 l 111 0 l 111 736 z "},"ŕ":{"ha":531,"x_min":111,"x_max":465,"o":"m 111 736 l 214 736 l 218 600 q 393 736 257 736 l 465 736 l 465 625 l 394 625 q 228 444 228 625 l 228 0 l 111 0 l 111 736 m 313 1015 l 443 1015 l 318 838 l 221 838 l 313 1015 z "},"ř":{"ha":531,"x_min":76,"x_max":465,"o":"m 111 736 l 214 736 l 218 600 q 393 736 257 736 l 465 736 l 465 625 l 394 625 q 228 444 228 625 l 228 0 l 111 0 l 111 736 m 174 1015 l 267 892 l 360 1015 l 457 1015 l 332 831 l 201 831 l 76 1015 l 174 1015 z "},"ŗ":{"ha":531,"x_min":86,"x_max":465,"o":"m 111 736 l 214 736 l 218 600 q 393 736 257 736 l 465 736 l 465 625 l 394 625 q 228 444 228 625 l 228 0 l 111 0 l 111 736 m 163 -158 l 113 -158 l 113 -33 l 251 -33 l 251 -147 l 167 -293 l 86 -293 l 163 -158 z "},"s":{"ha":736,"x_min":65,"x_max":671,"o":"m 383 -17 q 156 51 239 -17 q 65 232 74 119 l 188 240 q 383 94 210 94 q 505 119 461 94 q 549 197 549 144 q 534 247 549 228 q 480 280 519 265 q 361 308 440 294 q 145 387 207 336 q 83 528 83 438 q 157 690 83 628 q 361 753 231 753 q 564 686 489 753 q 657 517 639 619 l 535 508 q 477 606 522 569 q 360 642 432 642 q 244 612 283 642 q 206 533 206 582 q 244 454 206 481 q 383 411 283 428 q 558 365 496 392 q 645 298 619 338 q 671 197 671 258 q 590 40 671 97 q 383 -17 508 -17 z "},"ś":{"ha":736,"x_min":65,"x_max":671,"o":"m 383 -17 q 156 51 239 -17 q 65 232 74 119 l 188 240 q 383 94 210 94 q 505 119 461 94 q 549 197 549 144 q 534 247 549 228 q 480 280 519 265 q 361 308 440 294 q 145 387 207 336 q 83 528 83 438 q 157 690 83 628 q 361 753 231 753 q 564 686 489 753 q 657 517 639 619 l 535 508 q 477 606 522 569 q 360 642 432 642 q 244 612 283 642 q 206 533 206 582 q 244 454 206 481 q 383 411 283 428 q 558 365 496 392 q 645 298 619 338 q 671 197 671 258 q 590 40 671 97 q 383 -17 508 -17 m 408 1015 l 539 1015 l 414 838 l 317 838 l 408 1015 z "},"š":{"ha":736,"x_min":65,"x_max":671,"o":"m 383 -17 q 156 51 239 -17 q 65 232 74 119 l 188 240 q 383 94 210 94 q 505 119 461 94 q 549 197 549 144 q 534 247 549 228 q 480 280 519 265 q 361 308 440 294 q 145 387 207 336 q 83 528 83 438 q 157 690 83 628 q 361 753 231 753 q 564 686 489 753 q 657 517 639 619 l 535 508 q 477 606 522 569 q 360 642 432 642 q 244 612 283 642 q 206 533 206 582 q 244 454 206 481 q 383 411 283 428 q 558 365 496 392 q 645 298 619 338 q 671 197 671 258 q 590 40 671 97 q 383 -17 508 -17 m 269 1015 l 363 892 l 456 1015 l 553 1015 l 428 831 l 297 831 l 172 1015 l 269 1015 z "},"ş":{"ha":736,"x_min":65,"x_max":671,"o":"m 354 -306 q 249 -276 290 -306 q 192 -197 207 -246 l 263 -169 q 296 -214 275 -200 q 351 -228 317 -228 q 406 -213 386 -228 q 426 -172 426 -199 q 404 -127 426 -143 q 321 -111 382 -111 l 282 -69 l 318 -12 q 138 68 204 3 q 65 232 72 133 l 188 240 q 383 94 210 94 q 505 119 461 94 q 549 197 549 144 q 534 247 549 228 q 480 280 519 265 q 361 308 440 294 q 145 387 207 336 q 83 528 83 438 q 157 690 83 628 q 361 753 231 753 q 564 686 489 753 q 657 517 639 619 l 535 508 q 477 606 522 569 q 360 642 432 642 q 244 612 283 642 q 206 533 206 582 q 244 454 206 481 q 383 411 283 428 q 558 365 496 392 q 645 298 619 338 q 671 197 671 258 q 596 44 671 101 q 401 -17 521 -12 l 376 -50 q 476 -86 443 -53 q 510 -175 510 -119 q 466 -269 510 -233 q 354 -306 422 -306 z "},"ŝ":{"ha":736,"x_min":65,"x_max":671,"o":"m 383 -17 q 156 51 239 -17 q 65 232 74 119 l 188 240 q 383 94 210 94 q 505 119 461 94 q 549 197 549 144 q 534 247 549 228 q 480 280 519 265 q 361 308 440 294 q 145 387 207 336 q 83 528 83 438 q 157 690 83 628 q 361 753 231 753 q 564 686 489 753 q 657 517 639 619 l 535 508 q 477 606 522 569 q 360 642 432 642 q 244 612 283 642 q 206 533 206 582 q 244 454 206 481 q 383 411 283 428 q 558 365 496 392 q 645 298 619 338 q 671 197 671 258 q 590 40 671 97 q 383 -17 508 -17 m 303 1015 l 433 1015 l 558 831 l 461 831 l 368 954 l 275 831 l 178 831 l 303 1015 z "},"ș":{"ha":736,"x_min":65,"x_max":671,"o":"m 383 -17 q 156 51 239 -17 q 65 232 74 119 l 188 240 q 383 94 210 94 q 505 119 461 94 q 549 197 549 144 q 534 247 549 228 q 480 280 519 265 q 361 308 440 294 q 145 387 207 336 q 83 528 83 438 q 157 690 83 628 q 361 753 231 753 q 564 686 489 753 q 657 517 639 619 l 535 508 q 477 606 522 569 q 360 642 432 642 q 244 612 283 642 q 206 533 206 582 q 244 454 206 481 q 383 411 283 428 q 558 365 496 392 q 645 298 619 338 q 671 197 671 258 q 590 40 671 97 q 383 -17 508 -17 m 365 -158 l 315 -158 l 315 -33 l 454 -33 l 454 -147 l 369 -293 l 289 -293 l 365 -158 z "},"ß":{"ha":819,"x_min":111,"x_max":761,"o":"m 111 697 q 149 861 111 792 q 256 967 188 931 q 408 1003 324 1003 q 560 972 493 1003 q 663 883 626 940 q 700 751 700 826 q 660 617 700 675 q 550 535 621 558 q 703 442 646 510 q 761 276 761 374 q 713 126 761 189 q 585 32 665 64 q 411 0 506 0 l 322 0 l 322 111 l 411 111 q 573 157 507 111 q 639 286 639 203 q 570 425 639 378 q 397 469 501 472 l 336 468 l 336 581 l 397 579 q 531 627 482 578 q 581 751 581 676 q 530 850 581 808 q 408 892 479 892 q 277 842 326 892 q 228 697 228 792 l 228 0 l 111 0 l 111 697 z "},"t":{"ha":549,"x_min":76,"x_max":497,"o":"m 381 0 q 233 46 281 0 q 185 189 185 92 l 185 633 l 76 633 l 76 736 l 185 736 l 185 908 l 301 908 l 301 736 l 497 736 l 497 633 l 301 633 l 301 192 q 323 123 301 143 q 392 103 344 103 l 497 103 l 497 0 l 381 0 z "},"ŧ":{"ha":549,"x_min":76,"x_max":497,"o":"m 76 443 l 185 443 l 185 633 l 76 633 l 76 736 l 185 736 l 185 908 l 301 908 l 301 736 l 497 736 l 497 633 l 301 633 l 301 443 l 497 443 l 497 340 l 301 340 l 301 192 q 323 123 301 143 q 392 103 344 103 l 497 103 l 497 0 l 381 0 q 233 46 281 0 q 185 189 185 92 l 185 340 l 76 340 l 76 443 z "},"ť":{"ha":549,"x_min":76,"x_max":499,"o":"m 381 0 q 233 46 281 0 q 185 189 185 92 l 185 633 l 76 633 l 76 736 l 185 736 l 185 908 l 301 908 l 301 736 l 497 736 l 497 633 l 301 633 l 301 192 q 323 123 301 143 q 392 103 344 103 l 497 103 l 497 0 l 381 0 m 383 1106 l 499 1106 l 426 769 l 342 769 l 383 1106 z "},"ţ":{"ha":549,"x_min":76,"x_max":497,"o":"m 367 0 l 329 -50 q 429 -86 396 -53 q 463 -175 463 -119 q 419 -269 463 -233 q 307 -306 375 -306 q 201 -276 243 -306 q 144 -197 160 -246 l 215 -169 q 249 -214 228 -200 q 304 -228 269 -228 q 359 -213 339 -228 q 379 -172 379 -199 q 357 -127 379 -143 q 274 -111 335 -111 l 235 -69 l 288 14 q 185 189 185 49 l 185 633 l 76 633 l 76 736 l 185 736 l 185 908 l 301 908 l 301 736 l 497 736 l 497 633 l 301 633 l 301 192 q 323 123 301 143 q 392 103 344 103 l 497 103 l 497 0 l 381 0 l 367 0 z "},"ț":{"ha":549,"x_min":76,"x_max":497,"o":"m 381 0 q 233 46 281 0 q 185 189 185 92 l 185 633 l 76 633 l 76 736 l 185 736 l 185 908 l 301 908 l 301 736 l 497 736 l 497 633 l 301 633 l 301 192 q 323 123 301 143 q 392 103 344 103 l 497 103 l 497 0 l 381 0 m 318 -158 l 268 -158 l 268 -33 l 407 -33 l 407 -147 l 322 -293 l 242 -293 l 318 -158 z "},"u":{"ha":799,"x_min":111,"x_max":688,"o":"m 353 -17 q 176 58 242 -17 q 111 263 111 132 l 111 736 l 228 736 l 228 294 q 266 137 228 188 q 383 86 304 86 q 521 142 471 86 q 571 297 571 199 l 571 736 l 688 736 l 688 0 l 576 0 l 576 119 q 489 19 546 54 q 353 -17 432 -17 z "},"ú":{"ha":799,"x_min":111,"x_max":688,"o":"m 353 -17 q 176 58 242 -17 q 111 263 111 132 l 111 736 l 228 736 l 228 294 q 266 137 228 188 q 383 86 304 86 q 521 142 471 86 q 571 297 571 199 l 571 736 l 688 736 l 688 0 l 576 0 l 576 119 q 489 19 546 54 q 353 -17 432 -17 m 435 1015 l 565 1015 l 440 838 l 343 838 l 435 1015 z "},"ŭ":{"ha":799,"x_min":111,"x_max":688,"o":"m 353 -17 q 176 58 242 -17 q 111 263 111 132 l 111 736 l 228 736 l 228 294 q 266 137 228 188 q 383 86 304 86 q 521 142 471 86 q 571 297 571 199 l 571 736 l 688 736 l 688 0 l 576 0 l 576 119 q 489 19 546 54 q 353 -17 432 -17 m 394 838 q 257 885 310 838 q 200 1015 204 933 l 281 1015 q 394 924 293 924 q 507 1015 494 924 l 588 1015 q 531 885 583 933 q 394 838 479 838 z "},"û":{"ha":799,"x_min":111,"x_max":688,"o":"m 353 -17 q 176 58 242 -17 q 111 263 111 132 l 111 736 l 228 736 l 228 294 q 266 137 228 188 q 383 86 304 86 q 521 142 471 86 q 571 297 571 199 l 571 736 l 688 736 l 688 0 l 576 0 l 576 119 q 489 19 546 54 q 353 -17 432 -17 m 329 1015 l 460 1015 l 585 831 l 488 831 l 394 954 l 301 831 l 204 831 l 329 1015 z "},"ü":{"ha":799,"x_min":111,"x_max":688,"o":"m 353 -17 q 176 58 242 -17 q 111 263 111 132 l 111 736 l 228 736 l 228 294 q 266 137 228 188 q 383 86 304 86 q 521 142 471 86 q 571 297 571 199 l 571 736 l 688 736 l 688 0 l 576 0 l 576 119 q 489 19 546 54 q 353 -17 432 -17 m 213 988 l 335 988 l 335 851 l 213 851 l 213 988 m 454 988 l 576 988 l 576 851 l 454 851 l 454 988 z "},"ù":{"ha":799,"x_min":111,"x_max":688,"o":"m 353 -17 q 176 58 242 -17 q 111 263 111 132 l 111 736 l 228 736 l 228 294 q 266 137 228 188 q 383 86 304 86 q 521 142 471 86 q 571 297 571 199 l 571 736 l 688 736 l 688 0 l 576 0 l 576 119 q 489 19 546 54 q 353 -17 432 -17 m 226 1015 l 357 1015 l 449 838 l 351 838 l 226 1015 z "},"ű":{"ha":799,"x_min":111,"x_max":688,"o":"m 353 -17 q 176 58 242 -17 q 111 263 111 132 l 111 736 l 228 736 l 228 294 q 266 137 228 188 q 383 86 304 86 q 521 142 471 86 q 571 297 571 199 l 571 736 l 688 736 l 688 0 l 576 0 l 576 119 q 489 19 546 54 q 353 -17 432 -17 z "},"ū":{"ha":799,"x_min":111,"x_max":688,"o":"m 353 -17 q 176 58 242 -17 q 111 263 111 132 l 111 736 l 228 736 l 228 294 q 266 137 228 188 q 383 86 304 86 q 521 142 471 86 q 571 297 571 199 l 571 736 l 688 736 l 688 0 l 576 0 l 576 119 q 489 19 546 54 q 353 -17 432 -17 m 208 968 l 581 968 l 581 868 l 208 868 l 208 968 z "},"ų":{"ha":799,"x_min":111,"x_max":736,"o":"m 353 -17 q 176 58 242 -17 q 111 263 111 132 l 111 736 l 228 736 l 228 294 q 266 137 228 188 q 383 86 304 86 q 521 142 471 86 q 571 297 571 199 l 571 736 l 688 736 l 688 0 l 639 -62 q 596 -158 596 -119 q 607 -187 596 -176 q 636 -197 618 -197 q 703 -178 675 -197 l 736 -256 q 687 -281 721 -271 q 617 -292 653 -292 q 524 -261 558 -292 q 490 -181 490 -231 q 504 -112 490 -144 q 547 -42 518 -79 l 581 0 l 576 0 l 576 119 q 489 19 546 54 q 353 -17 432 -17 z "},"ů":{"ha":799,"x_min":111,"x_max":688,"o":"m 353 -17 q 176 58 242 -17 q 111 263 111 132 l 111 736 l 228 736 l 228 294 q 266 137 228 188 q 383 86 304 86 q 521 142 471 86 q 571 297 571 199 l 571 736 l 688 736 l 688 0 l 576 0 l 576 119 q 489 19 546 54 q 353 -17 432 -17 m 394 800 q 303 837 340 800 q 267 928 267 874 q 303 1019 267 982 q 394 1056 340 1056 q 485 1019 449 1056 q 522 928 522 982 q 485 837 522 874 q 394 800 449 800 m 394 869 q 436 886 419 869 q 453 928 453 903 q 436 969 453 953 q 394 986 419 986 q 353 969 369 986 q 336 928 336 953 q 353 886 336 903 q 394 869 369 869 z "},"ũ":{"ha":799,"x_min":111,"x_max":688,"o":"m 353 -17 q 176 58 242 -17 q 111 263 111 132 l 111 736 l 228 736 l 228 294 q 266 137 228 188 q 383 86 304 86 q 521 142 471 86 q 571 297 571 199 l 571 736 l 688 736 l 688 0 l 576 0 l 576 119 q 489 19 546 54 q 353 -17 432 -17 m 463 847 q 365 889 417 847 q 326 918 339 911 q 293 925 313 925 q 233 838 238 925 l 161 838 q 199 958 163 915 q 293 1000 235 1000 q 348 989 324 1000 q 399 956 372 978 q 436 930 421 938 q 468 922 451 922 q 508 942 494 922 q 526 1014 522 963 l 599 1014 q 558 891 594 935 q 463 847 522 847 z "},"v":{"ha":744,"x_min":31,"x_max":714,"o":"m 31 736 l 158 736 l 372 119 l 586 736 l 714 736 l 446 0 l 299 0 l 31 736 z "},"w":{"ha":1138,"x_min":31,"x_max":1107,"o":"m 31 736 l 158 736 l 331 122 l 506 736 l 631 736 l 806 122 l 979 736 l 1107 736 l 879 0 l 732 0 l 568 560 l 404 0 l 258 0 l 31 736 z "},"ẃ":{"ha":1138,"x_min":31,"x_max":1107,"o":"m 31 736 l 158 736 l 331 122 l 506 736 l 631 736 l 806 122 l 979 736 l 1107 736 l 879 0 l 732 0 l 568 560 l 404 0 l 258 0 l 31 736 m 610 1015 l 740 1015 l 615 838 l 518 838 l 610 1015 z "},"ŵ":{"ha":1138,"x_min":31,"x_max":1107,"o":"m 31 736 l 158 736 l 331 122 l 506 736 l 631 736 l 806 122 l 979 736 l 1107 736 l 879 0 l 732 0 l 568 560 l 404 0 l 258 0 l 31 736 m 504 1015 l 635 1015 l 760 831 l 663 831 l 569 954 l 476 831 l 379 831 l 504 1015 z "},"ẅ":{"ha":1138,"x_min":31,"x_max":1107,"o":"m 31 736 l 158 736 l 331 122 l 506 736 l 631 736 l 806 122 l 979 736 l 1107 736 l 879 0 l 732 0 l 568 560 l 404 0 l 258 0 l 31 736 m 388 988 l 510 988 l 510 851 l 388 851 l 388 988 m 629 988 l 751 988 l 751 851 l 629 851 l 629 988 z "},"ẁ":{"ha":1138,"x_min":31,"x_max":1107,"o":"m 31 736 l 158 736 l 331 122 l 506 736 l 631 736 l 806 122 l 979 736 l 1107 736 l 879 0 l 732 0 l 568 560 l 404 0 l 258 0 l 31 736 m 401 1015 l 532 1015 l 624 838 l 526 838 l 401 1015 z "},"x":{"ha":813,"x_min":65,"x_max":747,"o":"m 336 378 l 79 736 l 215 736 l 408 458 l 596 736 l 735 736 l 481 375 l 747 0 l 611 0 l 408 297 l 204 0 l 65 0 l 336 378 z "},"y":{"ha":746,"x_min":31,"x_max":715,"o":"m 143 -106 l 228 -106 q 284 -94 265 -106 q 314 -56 303 -82 l 340 14 l 300 14 l 31 736 l 158 736 l 378 122 l 588 736 l 715 736 l 417 -93 q 354 -181 396 -153 q 239 -208 313 -208 l 143 -208 l 143 -106 z "},"ý":{"ha":746,"x_min":31,"x_max":715,"o":"m 143 -106 l 228 -106 q 284 -94 265 -106 q 314 -56 303 -82 l 340 14 l 300 14 l 31 736 l 158 736 l 378 122 l 588 736 l 715 736 l 417 -93 q 354 -181 396 -153 q 239 -208 313 -208 l 143 -208 l 143 -106 m 414 1015 l 544 1015 l 419 838 l 322 838 l 414 1015 z "},"ŷ":{"ha":746,"x_min":31,"x_max":715,"o":"m 143 -106 l 228 -106 q 284 -94 265 -106 q 314 -56 303 -82 l 340 14 l 300 14 l 31 736 l 158 736 l 378 122 l 588 736 l 715 736 l 417 -93 q 354 -181 396 -153 q 239 -208 313 -208 l 143 -208 l 143 -106 m 308 1015 l 439 1015 l 564 831 l 467 831 l 374 954 l 281 831 l 183 831 l 308 1015 z "},"ÿ":{"ha":746,"x_min":31,"x_max":715,"o":"m 143 -106 l 228 -106 q 284 -94 265 -106 q 314 -56 303 -82 l 340 14 l 300 14 l 31 736 l 158 736 l 378 122 l 588 736 l 715 736 l 417 -93 q 354 -181 396 -153 q 239 -208 313 -208 l 143 -208 l 143 -106 m 192 988 l 314 988 l 314 851 l 192 851 l 192 988 m 433 988 l 556 988 l 556 851 l 433 851 l 433 988 z "},"ỳ":{"ha":746,"x_min":31,"x_max":715,"o":"m 143 -106 l 228 -106 q 284 -94 265 -106 q 314 -56 303 -82 l 340 14 l 300 14 l 31 736 l 158 736 l 378 122 l 588 736 l 715 736 l 417 -93 q 354 -181 396 -153 q 239 -208 313 -208 l 143 -208 l 143 -106 m 206 1015 l 336 1015 l 428 838 l 331 838 l 206 1015 z "},"ỹ":{"ha":746,"x_min":31,"x_max":715,"o":"m 143 -106 l 228 -106 q 284 -94 265 -106 q 314 -56 303 -82 l 340 14 l 300 14 l 31 736 l 158 736 l 378 122 l 588 736 l 715 736 l 417 -93 q 354 -181 396 -153 q 239 -208 313 -208 l 143 -208 l 143 -106 m 456 847 q 358 889 410 847 q 319 918 332 911 q 286 925 306 925 q 226 838 231 925 l 154 838 q 192 958 156 915 q 286 1000 228 1000 q 341 989 317 1000 q 392 956 365 978 q 429 930 414 938 q 461 922 444 922 q 501 942 488 922 q 519 1014 515 963 l 592 1014 q 551 891 588 935 q 456 847 515 847 z "},"z":{"ha":763,"x_min":79,"x_max":683,"o":"m 79 117 l 544 633 l 93 633 l 93 736 l 672 736 l 672 619 l 207 103 l 683 103 l 683 0 l 79 0 l 79 117 z "},"ź":{"ha":763,"x_min":79,"x_max":683,"o":"m 79 117 l 544 633 l 93 633 l 93 736 l 672 736 l 672 619 l 207 103 l 683 103 l 683 0 l 79 0 l 79 117 m 424 1015 l 554 1015 l 429 838 l 332 838 l 424 1015 z "},"ž":{"ha":763,"x_min":79,"x_max":683,"o":"m 79 117 l 544 633 l 93 633 l 93 736 l 672 736 l 672 619 l 207 103 l 683 103 l 683 0 l 79 0 l 79 117 m 285 1015 l 378 892 l 471 1015 l 568 1015 l 443 831 l 313 831 l 188 1015 l 285 1015 z "},"ż":{"ha":763,"x_min":79,"x_max":683,"o":"m 79 117 l 544 633 l 93 633 l 93 736 l 672 736 l 672 619 l 207 103 l 683 103 l 683 0 l 79 0 l 79 117 m 322 988 l 444 988 l 444 851 l 322 851 l 322 988 z "},"ꞌ":{"ha":258,"x_min":68,"x_max":190,"o":"m 68 797 l 68 986 l 190 986 l 190 797 l 172 525 l 88 525 l 68 797 z "},"ﬁ":{"ha":892,"x_min":83,"x_max":783,"o":"m 183 803 q 232 937 183 888 q 378 986 281 986 l 494 986 l 494 883 l 386 883 q 322 860 343 883 q 300 794 300 838 l 300 736 l 485 736 l 485 633 l 300 633 l 300 0 l 183 0 l 183 633 l 83 633 l 83 736 l 183 736 l 183 803 m 664 736 l 781 736 l 781 0 l 664 0 l 664 736 m 661 988 l 783 988 l 783 851 l 661 851 l 661 988 z "},"ﬂ":{"ha":919,"x_min":83,"x_max":864,"o":"m 183 803 q 232 937 183 888 q 378 986 281 986 l 494 986 l 494 883 l 386 883 q 322 860 343 883 q 300 794 300 838 l 300 736 l 485 736 l 485 633 l 300 633 l 300 0 l 183 0 l 183 633 l 83 633 l 83 736 l 183 736 l 183 803 m 782 0 q 675 34 714 0 q 636 139 636 68 l 638 986 l 754 986 l 754 149 q 800 103 754 103 l 864 103 l 864 0 l 782 0 z "},"ª":{"ha":568,"x_min":57,"x_max":517,"o":"m 218 513 q 101 546 144 513 q 57 638 57 579 q 94 731 57 697 q 207 779 132 764 l 358 810 q 337 877 358 854 q 275 900 315 900 q 185 831 200 900 l 65 836 q 133 949 78 910 q 275 989 188 989 q 426 940 374 989 q 478 801 478 892 l 478 639 q 484 613 478 621 q 503 606 490 606 l 517 606 l 517 522 q 475 518 500 518 q 376 593 388 518 q 318 535 360 557 q 218 513 276 513 m 244 594 q 327 624 296 594 q 358 706 358 654 l 358 731 l 246 707 q 179 647 179 693 q 197 608 179 622 q 244 594 214 594 z "},"º":{"ha":567,"x_min":54,"x_max":514,"o":"m 285 513 q 117 578 181 513 q 54 751 54 643 q 117 924 54 858 q 285 989 181 989 q 451 924 388 989 q 514 751 514 858 q 451 578 514 643 q 285 513 388 513 m 285 606 q 363 644 335 606 q 390 751 390 682 q 363 858 390 819 q 285 896 335 896 q 205 857 233 896 q 176 751 176 818 q 205 644 176 683 q 285 606 233 606 z "},"А":{"ha":931,"x_min":29,"x_max":901,"o":"m 385 986 l 546 986 l 901 0 l 771 0 l 672 281 l 258 281 l 160 0 l 29 0 l 385 986 m 632 397 l 465 882 l 299 397 l 632 397 z "},"Б":{"ha":917,"x_min":128,"x_max":831,"o":"m 128 986 l 785 986 l 785 869 l 247 869 l 247 603 l 482 603 q 738 522 646 603 q 831 299 831 442 q 738 79 831 158 q 482 0 646 0 l 128 0 l 128 986 m 482 117 q 706 299 706 117 q 482 486 706 486 l 247 486 l 247 117 l 482 117 z "},"В":{"ha":944,"x_min":128,"x_max":858,"o":"m 128 986 l 467 986 q 730 922 643 986 q 817 721 817 857 q 770 581 817 638 q 642 510 724 524 q 801 431 743 496 q 858 271 858 367 q 772 69 858 138 q 522 0 685 0 l 128 0 l 128 986 m 522 117 q 678 158 624 117 q 733 278 733 200 q 678 399 733 356 q 522 443 624 443 l 247 443 l 247 117 l 522 117 m 467 560 q 633 601 575 560 q 692 715 692 642 q 467 869 692 869 l 247 869 l 247 560 l 467 560 z "},"Г":{"ha":818,"x_min":128,"x_max":783,"o":"m 128 986 l 783 986 l 783 869 l 247 869 l 247 0 l 128 0 l 128 986 z "},"Ѓ":{"ha":818,"x_min":128,"x_max":783,"o":"m 128 986 l 783 986 l 783 869 l 247 869 l 247 0 l 128 0 l 128 986 m 496 1265 l 626 1265 l 501 1088 l 404 1088 l 496 1265 z "},"Ґ":{"ha":719,"x_min":128,"x_max":685,"o":"m 128 986 l 565 986 l 565 1201 l 685 1201 l 685 869 l 247 869 l 247 0 l 128 0 l 128 986 z "},"Ғ":{"ha":892,"x_min":100,"x_max":857,"o":"m 100 514 l 201 514 l 201 986 l 857 986 l 857 869 l 321 869 l 321 514 l 664 514 l 664 397 l 321 397 l 321 0 l 201 0 l 201 397 l 100 397 l 100 514 z "},"Д":{"ha":1117,"x_min":69,"x_max":1047,"o":"m 69 117 l 126 117 q 206 160 178 117 q 244 300 233 204 l 317 986 l 925 986 l 925 117 l 1047 117 l 1047 -208 l 928 -208 l 928 0 l 189 0 l 189 -208 l 69 -208 l 69 117 m 806 117 l 806 869 l 426 869 l 364 286 q 308 117 351 176 l 806 117 z "},"Е":{"ha":838,"x_min":128,"x_max":758,"o":"m 128 986 l 747 986 l 747 869 l 247 869 l 247 551 l 731 551 l 731 438 l 247 438 l 247 117 l 758 117 l 758 0 l 128 0 l 128 986 z "},"Ѐ":{"ha":838,"x_min":128,"x_max":758,"o":"m 128 986 l 747 986 l 747 869 l 247 869 l 247 551 l 731 551 l 731 438 l 247 438 l 247 117 l 758 117 l 758 0 l 128 0 l 128 986 m 272 1267 l 403 1267 l 494 1089 l 397 1089 l 272 1267 z "},"Ё":{"ha":838,"x_min":128,"x_max":758,"o":"m 128 986 l 747 986 l 747 869 l 247 869 l 247 551 l 731 551 l 731 438 l 247 438 l 247 117 l 758 117 l 758 0 l 128 0 l 128 986 m 258 1239 l 381 1239 l 381 1103 l 258 1103 l 258 1239 m 500 1239 l 622 1239 l 622 1103 l 500 1103 l 500 1239 z "},"Ж":{"ha":1321,"x_min":38,"x_max":1283,"o":"m 449 493 l 51 986 l 214 986 l 601 506 l 601 986 l 721 986 l 721 506 l 1108 986 l 1269 986 l 872 493 l 1283 0 l 1122 0 l 721 482 l 721 0 l 601 0 l 601 482 l 200 0 l 38 0 l 449 493 z "},"З":{"ha":907,"x_min":69,"x_max":836,"o":"m 454 -22 q 260 13 346 -22 q 124 111 174 49 q 69 254 74 174 l 193 263 q 271 140 200 185 q 454 94 342 94 q 642 144 572 94 q 713 281 713 194 q 642 421 713 374 q 474 467 571 468 l 371 465 l 371 583 l 474 582 q 617 622 556 581 q 678 751 678 664 q 617 854 678 817 q 454 892 557 892 q 300 857 360 892 q 231 763 240 822 l 106 771 q 162 893 114 839 q 285 978 210 947 q 454 1008 361 1008 q 635 976 556 1008 q 758 885 714 943 q 803 751 803 826 q 622 533 803 586 q 781 435 725 503 q 836 271 836 367 q 788 119 836 186 q 652 15 739 53 q 454 -22 565 -22 z "},"И":{"ha":1025,"x_min":121,"x_max":897,"o":"m 778 0 l 778 850 l 299 0 l 121 0 l 121 986 l 240 986 l 240 119 l 728 986 l 897 986 l 897 0 l 778 0 z "},"Й":{"ha":1025,"x_min":121,"x_max":897,"o":"m 778 0 l 778 850 l 299 0 l 121 0 l 121 986 l 240 986 l 240 119 l 728 986 l 897 986 l 897 0 l 778 0 m 510 1088 q 372 1135 425 1088 q 315 1265 319 1183 l 396 1265 q 510 1174 408 1174 q 622 1265 610 1174 l 703 1265 q 647 1135 699 1183 q 510 1088 594 1088 z "},"К":{"ha":903,"x_min":128,"x_max":865,"o":"m 247 483 l 247 0 l 128 0 l 128 986 l 247 986 l 247 504 l 689 986 l 851 986 l 400 493 l 865 0 l 703 0 l 247 483 z "},"Ќ":{"ha":903,"x_min":128,"x_max":865,"o":"m 247 483 l 247 0 l 128 0 l 128 986 l 247 986 l 247 504 l 689 986 l 851 986 l 400 493 l 865 0 l 703 0 l 247 483 m 507 1265 l 638 1265 l 513 1088 l 415 1088 l 507 1265 z "},"Л":{"ha":1063,"x_min":93,"x_max":935,"o":"m 93 117 l 174 117 q 231 144 210 117 q 256 218 251 171 l 319 986 l 935 986 l 935 0 l 815 0 l 815 869 l 432 869 l 376 204 q 192 0 360 0 l 93 0 l 93 117 z "},"М":{"ha":1218,"x_min":128,"x_max":1090,"o":"m 128 986 l 294 986 l 610 131 l 924 986 l 1090 986 l 1090 0 l 971 0 l 971 764 l 689 0 l 529 0 l 247 764 l 247 0 l 128 0 l 128 986 z "},"Н":{"ha":976,"x_min":128,"x_max":863,"o":"m 128 986 l 247 986 l 247 554 l 743 554 l 743 986 l 863 986 l 863 0 l 743 0 l 743 438 l 247 438 l 247 0 l 128 0 l 128 986 z "},"О":{"ha":1038,"x_min":68,"x_max":969,"o":"m 518 -22 q 278 40 379 -22 q 122 217 176 101 q 68 492 68 333 q 122 767 68 650 q 278 946 176 883 q 518 1008 379 1008 q 760 946 658 1008 q 915 767 861 883 q 969 492 969 650 q 915 217 969 333 q 760 40 861 101 q 518 -22 658 -22 m 518 94 q 758 199 671 94 q 844 492 844 304 q 758 785 844 679 q 518 892 671 892 q 279 785 365 892 q 193 492 193 679 q 279 199 193 304 q 518 94 365 94 z "},"П":{"ha":976,"x_min":128,"x_max":849,"o":"m 128 986 l 849 986 l 849 0 l 729 0 l 729 869 l 247 869 l 247 0 l 128 0 l 128 986 z "},"Р":{"ha":903,"x_min":128,"x_max":831,"o":"m 128 986 l 482 986 q 738 907 646 986 q 831 688 831 828 q 738 464 831 544 q 482 383 646 383 l 247 383 l 247 0 l 128 0 l 128 986 m 482 500 q 706 688 706 500 q 482 869 706 869 l 247 869 l 247 500 l 482 500 z "},"С":{"ha":974,"x_min":68,"x_max":926,"o":"m 511 -22 q 279 40 379 -22 q 124 218 179 101 q 68 492 68 335 q 124 766 68 649 q 279 946 179 883 q 511 1008 379 1008 q 785 921 685 1008 q 918 672 886 833 l 792 664 q 701 832 771 772 q 511 892 631 892 q 344 844 417 892 q 233 706 272 796 q 193 492 193 615 q 233 278 193 368 q 344 142 272 189 q 511 94 417 94 q 709 160 638 94 q 800 344 781 225 l 926 336 q 791 74 899 171 q 511 -22 683 -22 z "},"Т":{"ha":803,"x_min":35,"x_max":768,"o":"m 342 869 l 35 869 l 35 986 l 768 986 l 768 869 l 461 869 l 461 0 l 342 0 l 342 869 z "},"У":{"ha":753,"x_min":29,"x_max":724,"o":"m 118 117 l 231 117 q 301 168 283 117 l 339 264 l 299 264 l 29 986 l 158 986 l 379 375 l 594 986 l 724 986 l 410 115 q 349 28 389 56 q 246 0 308 0 l 118 0 l 118 117 z "},"Ў":{"ha":753,"x_min":29,"x_max":724,"o":"m 118 117 l 231 117 q 301 168 283 117 l 339 264 l 299 264 l 29 986 l 158 986 l 379 375 l 594 986 l 724 986 l 410 115 q 349 28 389 56 q 246 0 308 0 l 118 0 l 118 117 z "},"Ф":{"ha":1165,"x_min":68,"x_max":1097,"o":"m 524 103 q 285 165 389 113 q 125 301 182 217 q 68 493 68 386 q 125 685 68 600 q 285 822 182 769 q 524 883 389 874 l 524 986 l 640 986 l 640 882 q 878 821 775 872 q 1040 684 982 769 q 1097 493 1097 599 q 1040 302 1097 388 q 878 165 982 217 q 640 104 775 114 l 640 0 l 524 0 l 524 103 m 193 493 q 282 305 193 378 q 524 221 371 232 l 524 765 q 282 681 371 754 q 193 493 193 608 m 640 221 q 883 306 794 233 q 972 493 972 378 q 883 681 972 608 q 640 765 794 753 l 640 221 z "},"Х":{"ha":874,"x_min":38,"x_max":838,"o":"m 361 494 l 40 986 l 182 986 l 439 589 l 693 986 l 832 986 l 511 497 l 838 0 l 696 0 l 436 403 l 176 0 l 38 0 l 361 494 z "},"Ч":{"ha":906,"x_min":56,"x_max":778,"o":"m 658 471 q 552 369 626 407 q 383 331 478 331 q 141 416 226 331 q 56 650 56 501 l 56 986 l 175 986 l 175 650 q 228 501 175 554 q 383 447 282 447 q 526 474 464 447 q 624 546 589 500 q 658 651 658 592 l 658 986 l 778 986 l 778 0 l 658 0 l 658 471 z "},"Ц":{"ha":1069,"x_min":128,"x_max":969,"o":"m 247 986 l 247 117 l 729 117 l 729 986 l 849 986 l 849 117 l 969 117 l 969 -208 l 850 -208 l 850 0 l 128 0 l 128 986 l 247 986 z "},"Ш":{"ha":1275,"x_min":128,"x_max":1147,"o":"m 128 986 l 247 986 l 247 117 l 578 117 l 578 986 l 699 986 l 699 117 l 1028 117 l 1028 986 l 1147 986 l 1147 0 l 128 0 l 128 986 z "},"Щ":{"ha":1368,"x_min":128,"x_max":1268,"o":"m 1149 0 l 128 0 l 128 986 l 247 986 l 247 117 l 578 117 l 578 986 l 699 986 l 699 117 l 1028 117 l 1028 986 l 1147 986 l 1147 117 l 1268 117 l 1268 -208 l 1149 -208 l 1149 0 z "},"Џ":{"ha":976,"x_min":128,"x_max":849,"o":"m 429 0 l 128 0 l 128 986 l 247 986 l 247 117 l 729 117 l 729 986 l 849 986 l 849 0 l 549 0 l 549 -208 l 429 -208 l 429 0 z "},"Ь":{"ha":917,"x_min":128,"x_max":831,"o":"m 247 986 l 247 603 l 482 603 q 738 522 646 603 q 831 299 831 442 q 738 79 831 158 q 482 0 646 0 l 128 0 l 128 986 l 247 986 m 247 486 l 247 117 l 482 117 q 706 299 706 117 q 482 486 706 486 l 247 486 z "},"Ы":{"ha":1188,"x_min":128,"x_max":1060,"o":"m 940 986 l 1060 986 l 1060 0 l 940 0 l 940 986 m 247 986 l 247 603 l 482 603 q 738 522 646 603 q 831 299 831 442 q 738 79 831 158 q 482 0 646 0 l 128 0 l 128 986 l 247 986 m 247 486 l 247 117 l 482 117 q 706 299 706 117 q 482 486 706 486 l 247 486 z "},"Ъ":{"ha":1026,"x_min":100,"x_max":954,"o":"m 100 986 l 371 986 l 371 603 l 606 603 q 862 522 769 603 q 954 299 954 442 q 862 79 954 158 q 606 0 769 0 l 251 0 l 251 869 l 100 869 l 100 986 m 371 486 l 371 117 l 606 117 q 829 299 829 117 q 606 486 829 486 l 371 486 z "},"Љ":{"ha":1604,"x_min":93,"x_max":1518,"o":"m 93 117 l 174 117 q 231 144 210 117 q 256 218 251 171 l 319 986 l 935 986 l 935 603 l 1169 603 q 1426 522 1333 603 q 1518 299 1518 442 q 1426 79 1518 158 q 1169 0 1333 0 l 815 0 l 815 869 l 432 869 l 376 204 q 192 0 360 0 l 93 0 l 93 117 m 935 486 l 935 117 l 1169 117 q 1393 299 1393 117 q 1169 486 1393 486 l 935 486 z "},"Њ":{"ha":1518,"x_min":128,"x_max":1432,"o":"m 128 986 l 247 986 l 247 603 l 729 603 l 729 986 l 849 986 l 849 603 l 1083 603 q 1340 522 1247 603 q 1432 299 1432 442 q 1340 79 1432 158 q 1083 0 1247 0 l 729 0 l 729 486 l 247 486 l 247 0 l 128 0 l 128 986 m 849 486 l 849 117 l 1083 117 q 1307 299 1307 117 q 1083 486 1307 486 l 849 486 z "},"Ѕ":{"ha":900,"x_min":82,"x_max":818,"o":"m 472 -22 q 275 20 360 -22 q 140 139 190 63 q 82 315 90 215 l 207 324 q 290 153 222 213 q 475 94 357 94 q 636 135 579 94 q 693 250 693 175 q 671 333 693 299 q 588 397 649 368 q 411 456 526 426 q 228 519 294 485 q 133 603 163 554 q 103 728 103 653 q 142 874 103 810 q 256 973 182 938 q 431 1008 331 1008 q 684 922 588 1008 q 797 694 781 835 l 672 686 q 597 835 660 779 q 428 892 535 892 q 282 848 336 892 q 228 733 228 804 q 249 657 228 686 q 324 605 271 628 q 486 556 378 582 q 742 440 667 511 q 818 258 818 368 q 774 110 818 174 q 651 13 729 47 q 472 -22 572 -22 z "},"Є":{"ha":1024,"x_min":68,"x_max":956,"o":"m 519 -22 q 278 40 379 -22 q 122 217 176 101 q 68 492 68 333 q 122 767 68 651 q 278 946 176 883 q 519 1008 379 1008 q 808 912 694 1008 q 956 640 922 815 l 828 640 q 717 826 797 760 q 519 892 638 892 q 294 801 379 892 q 196 550 210 711 l 601 550 l 601 433 l 196 433 q 294 184 210 274 q 519 94 379 94 q 717 160 638 94 q 828 344 797 226 l 956 344 q 808 74 922 171 q 519 -22 694 -22 z "},"Э":{"ha":1024,"x_min":68,"x_max":956,"o":"m 504 -22 q 215 74 329 -22 q 68 344 101 171 l 196 344 q 306 160 226 226 q 504 94 386 94 q 729 184 644 94 q 828 433 814 274 l 422 433 l 422 550 l 828 550 q 729 801 814 711 q 504 892 644 892 q 306 826 386 892 q 196 640 226 760 l 68 640 q 215 912 101 815 q 504 1008 329 1008 q 746 946 644 1008 q 901 767 847 883 q 956 492 956 651 q 901 217 956 333 q 746 40 847 101 q 504 -22 644 -22 z "},"І":{"ha":375,"x_min":128,"x_max":247,"o":"m 128 986 l 247 986 l 247 0 l 128 0 l 128 986 z "},"Ї":{"ha":375,"x_min":22,"x_max":386,"o":"m 128 986 l 247 986 l 247 0 l 128 0 l 128 986 m 22 1238 l 144 1238 l 144 1101 l 22 1101 l 22 1238 m 264 1238 l 386 1238 l 386 1101 l 264 1101 l 264 1238 z "},"Ј":{"ha":829,"x_min":93,"x_max":722,"o":"m 407 -22 q 245 22 317 -22 q 133 144 174 65 q 93 322 93 222 l 215 331 q 267 156 217 217 q 407 94 317 94 q 552 160 501 94 q 603 344 603 225 l 603 986 l 722 986 l 722 344 q 684 150 722 233 q 574 22 646 67 q 407 -22 503 -22 z "},"Ћ":{"ha":1082,"x_min":35,"x_max":1026,"o":"m 35 986 l 721 986 l 721 869 l 424 869 l 424 515 q 530 617 456 579 q 699 656 604 656 q 941 570 856 656 q 1026 336 1026 485 l 1026 0 l 907 0 l 907 336 q 853 485 907 432 q 699 539 800 539 q 556 513 618 539 q 458 440 493 486 q 424 335 424 394 l 424 0 l 304 0 l 304 869 l 35 869 l 35 986 z "},"Ю":{"ha":1381,"x_min":128,"x_max":1313,"o":"m 128 986 l 247 986 l 247 551 l 413 551 q 547 887 428 765 q 861 1008 665 1008 q 1103 946 1001 1008 q 1258 767 1204 883 q 1313 492 1313 650 q 1258 217 1313 333 q 1103 40 1204 101 q 861 -22 1001 -22 q 546 99 664 -22 q 413 435 428 219 l 247 435 l 247 0 l 128 0 l 128 986 m 861 94 q 1101 199 1014 94 q 1188 492 1188 304 q 1101 785 1188 679 q 861 892 1014 892 q 622 785 708 892 q 536 492 536 679 q 622 199 536 304 q 861 94 708 94 z "},"Я":{"ha":940,"x_min":85,"x_max":813,"o":"m 693 0 l 693 397 l 458 397 l 443 397 l 217 0 l 85 0 l 321 415 q 165 513 219 442 q 110 688 110 583 q 202 907 110 828 q 458 986 294 986 l 813 986 l 813 0 l 693 0 m 693 514 l 693 869 l 458 869 q 292 823 350 869 q 235 690 235 776 q 292 559 235 604 q 458 514 350 514 l 693 514 z "},"Ђ":{"ha":1082,"x_min":35,"x_max":1026,"o":"m 304 869 l 35 869 l 35 986 l 721 986 l 721 869 l 424 869 l 424 515 q 530 617 456 579 q 699 656 604 656 q 869 615 794 656 q 985 500 943 574 q 1026 332 1026 426 q 978 156 1026 231 q 840 40 929 81 q 629 0 750 0 l 629 117 q 829 174 757 117 q 901 332 901 232 q 847 483 901 428 q 699 539 793 539 q 556 513 618 539 q 458 440 493 486 q 424 335 424 394 l 424 0 l 304 0 l 304 869 z "},"Ѣ":{"ha":1036,"x_min":86,"x_max":950,"o":"m 86 853 l 247 853 l 247 986 l 367 986 l 367 853 l 529 853 l 529 736 l 367 736 l 367 603 l 601 603 q 858 522 765 603 q 950 299 950 442 q 858 79 950 158 q 601 0 765 0 l 247 0 l 247 736 l 86 736 l 86 853 m 367 486 l 367 117 l 601 117 q 825 299 825 117 q 601 486 825 486 l 367 486 z "},"Ѫ":{"ha":981,"x_min":38,"x_max":943,"o":"m 194 401 q 263 503 221 469 q 354 540 304 538 l 133 869 l 133 986 l 849 986 l 849 869 l 628 540 q 719 503 678 538 q 785 401 760 468 l 943 0 l 810 0 l 676 344 q 641 406 660 389 q 593 424 622 424 l 551 424 l 551 0 l 431 0 l 431 424 l 388 424 q 339 406 358 424 q 303 344 319 389 l 171 0 l 38 0 l 194 401 m 492 547 l 707 869 l 275 869 l 492 547 z "},"Ѳ":{"ha":1038,"x_min":68,"x_max":969,"o":"m 518 -22 q 278 40 379 -22 q 122 217 176 101 q 68 492 68 333 q 122 767 68 650 q 278 946 176 883 q 518 1008 379 1008 q 760 946 658 1008 q 915 767 861 883 q 969 492 969 650 q 915 217 969 333 q 760 40 861 101 q 518 -22 658 -22 m 518 94 q 737 177 653 94 q 840 410 821 260 q 753 388 799 393 q 722 386 742 386 q 643 399 689 386 q 497 449 597 411 q 329 482 408 482 q 194 447 256 482 q 290 188 206 281 q 518 94 375 94 m 199 579 q 288 599 236 594 q 322 600 299 600 q 407 592 363 600 q 488 569 451 583 q 633 517 592 529 q 706 504 674 504 q 740 507 715 504 q 843 539 797 514 q 747 799 832 706 q 518 892 661 892 q 301 810 385 892 q 199 579 218 728 z "},"Ѵ":{"ha":1006,"x_min":29,"x_max":976,"o":"m 29 986 l 160 986 l 465 133 l 704 807 q 791 938 733 889 q 918 986 849 986 l 976 986 l 976 869 l 953 869 q 871 842 901 869 q 813 742 840 814 l 543 0 l 386 0 l 29 986 z "},"Җ":{"ha":1347,"x_min":38,"x_max":1317,"o":"m 1197 0 l 1122 0 l 721 482 l 721 0 l 601 0 l 601 482 l 200 0 l 38 0 l 449 493 l 51 986 l 214 986 l 601 506 l 601 986 l 721 986 l 721 506 l 1108 986 l 1269 986 l 872 493 l 1203 97 l 1317 97 l 1317 -208 l 1197 -208 l 1197 0 z "},"Қ":{"ha":924,"x_min":128,"x_max":886,"o":"m 767 0 l 703 0 l 247 483 l 247 0 l 128 0 l 128 986 l 247 986 l 247 504 l 689 986 l 851 986 l 400 493 l 774 97 l 886 97 l 886 -208 l 767 -208 l 767 0 z "},"Ң":{"ha":1042,"x_min":128,"x_max":942,"o":"m 822 0 l 743 0 l 743 438 l 247 438 l 247 0 l 128 0 l 128 986 l 247 986 l 247 554 l 743 554 l 743 986 l 863 986 l 863 97 l 942 97 l 942 -208 l 822 -208 l 822 0 z "},"Ү":{"ha":875,"x_min":29,"x_max":846,"o":"m 378 403 l 29 986 l 171 986 l 438 525 l 704 986 l 846 986 l 497 403 l 497 0 l 378 0 l 378 403 z "},"Ұ":{"ha":875,"x_min":29,"x_max":846,"o":"m 143 435 l 358 435 l 29 986 l 171 986 l 438 525 l 704 986 l 846 986 l 517 435 l 732 435 l 732 318 l 497 318 l 497 0 l 378 0 l 378 318 l 143 318 l 143 435 z "},"Ҳ":{"ha":924,"x_min":38,"x_max":886,"o":"m 767 0 l 696 0 l 436 403 l 176 0 l 38 0 l 361 494 l 40 986 l 182 986 l 439 589 l 693 986 l 832 986 l 511 497 l 774 97 l 886 97 l 886 -208 l 767 -208 l 767 0 z "},"Ҷ":{"ha":979,"x_min":56,"x_max":879,"o":"m 760 0 l 658 0 l 658 471 q 552 369 626 407 q 383 331 478 331 q 141 416 226 331 q 56 650 56 501 l 56 986 l 175 986 l 175 650 q 228 501 175 554 q 383 447 282 447 q 526 474 464 447 q 624 546 589 500 q 658 651 658 592 l 658 986 l 778 986 l 778 97 l 879 97 l 879 -208 l 760 -208 l 760 0 z "},"Һ":{"ha":906,"x_min":128,"x_max":850,"o":"m 247 515 q 353 617 279 579 q 522 656 428 656 q 765 570 679 656 q 850 336 850 485 l 850 0 l 731 0 l 731 336 q 677 485 731 432 q 522 539 624 539 q 379 513 442 539 q 282 440 317 486 q 247 335 247 394 l 247 0 l 128 0 l 128 986 l 247 986 l 247 515 z "},"Ӏ":{"ha":375,"x_min":128,"x_max":247,"o":"m 128 986 l 247 986 l 247 0 l 128 0 l 128 986 z "},"Ә":{"ha":1001,"x_min":68,"x_max":933,"o":"m 490 -22 q 286 30 378 -22 q 136 192 194 82 q 69 472 78 303 l 68 542 l 807 542 q 757 720 801 640 q 642 846 713 800 q 490 892 572 892 q 333 842 401 892 q 226 696 264 792 l 94 707 q 244 927 138 846 q 490 1008 351 1008 q 724 945 624 1008 q 878 765 824 882 q 933 493 933 649 q 877 226 933 343 q 720 43 821 108 q 490 -22 619 -22 m 490 94 q 700 181 618 94 q 806 425 782 267 l 197 425 q 293 181 217 267 q 490 94 369 94 z "},"Ӣ":{"ha":1025,"x_min":121,"x_max":897,"o":"m 778 0 l 778 850 l 299 0 l 121 0 l 121 986 l 240 986 l 240 119 l 728 986 l 897 986 l 897 0 l 778 0 m 303 1218 l 675 1218 l 675 1118 l 303 1118 l 303 1218 z "},"Ө":{"ha":1038,"x_min":68,"x_max":969,"o":"m 518 -22 q 278 40 379 -22 q 122 217 176 101 q 68 492 68 333 q 122 767 68 650 q 278 946 176 883 q 518 1008 379 1008 q 760 946 658 1008 q 915 767 861 883 q 969 492 969 650 q 915 217 969 333 q 760 40 861 101 q 518 -22 658 -22 m 518 94 q 744 184 658 94 q 842 435 829 274 l 196 435 q 293 184 208 274 q 518 94 378 94 m 842 551 q 743 802 828 713 q 518 892 658 892 q 294 802 379 892 q 196 551 210 713 l 842 551 z "},"Ӯ":{"ha":753,"x_min":29,"x_max":724,"o":"m 118 117 l 231 117 q 301 168 283 117 l 339 264 l 299 264 l 29 986 l 158 986 l 379 375 l 594 986 l 724 986 l 410 115 q 349 28 389 56 q 246 0 308 0 l 118 0 l 118 117 m 190 1218 l 563 1218 l 563 1118 l 190 1118 l 190 1218 z "},"а":{"ha":799,"x_min":65,"x_max":743,"o":"m 314 -17 q 132 36 199 -17 q 65 183 65 89 q 121 332 65 278 q 297 408 176 386 l 558 457 q 383 642 558 642 q 201 510 236 642 l 78 519 q 180 690 99 626 q 383 753 261 753 q 599 674 524 753 q 675 453 675 594 l 675 149 q 684 113 675 124 q 714 103 693 103 l 743 103 l 743 0 q 699 -3 726 -3 q 599 25 632 -3 q 560 114 567 53 q 463 20 532 57 q 314 -17 394 -17 m 325 86 q 496 147 433 86 q 558 303 558 208 l 558 356 l 319 311 q 217 270 247 299 q 188 194 188 242 q 224 115 188 143 q 325 86 260 86 z "},"б":{"ha":835,"x_min":68,"x_max":767,"o":"m 418 -22 q 288 3 350 -22 q 174 85 225 29 q 94 228 121 138 q 68 435 68 318 q 93 658 68 569 q 174 803 118 746 q 322 901 229 861 q 419 965 393 933 q 444 1056 444 997 l 564 1057 q 529 914 564 972 q 411 817 494 856 q 287 751 324 775 q 222 675 250 728 q 189 529 193 622 q 294 635 229 599 q 439 672 358 672 q 610 628 536 672 q 726 506 685 585 q 767 328 767 428 q 722 143 767 222 q 599 21 678 64 q 418 -22 519 -22 m 421 89 q 536 119 485 89 q 616 204 588 150 q 644 328 644 258 q 584 496 644 431 q 431 561 524 561 q 309 531 363 561 q 226 445 256 500 q 196 322 196 390 q 258 154 196 219 q 421 89 321 89 z "},"в":{"ha":822,"x_min":111,"x_max":725,"o":"m 111 736 l 417 736 q 619 681 544 736 q 694 532 694 625 q 653 431 694 471 q 538 381 611 392 q 675 325 625 371 q 725 208 725 279 q 653 56 725 113 q 457 0 581 0 l 111 0 l 111 736 m 457 103 q 561 131 522 103 q 600 208 600 160 q 561 292 600 261 q 457 322 522 322 l 228 322 l 228 103 l 457 103 m 417 425 q 528 454 486 425 q 569 532 569 483 q 528 606 569 579 q 417 633 486 633 l 228 633 l 228 425 l 417 425 z "},"г":{"ha":678,"x_min":111,"x_max":626,"o":"m 111 736 l 626 736 l 626 633 l 228 633 l 228 0 l 111 0 l 111 736 z "},"ѓ":{"ha":678,"x_min":111,"x_max":626,"o":"m 111 736 l 626 736 l 626 633 l 228 633 l 228 0 l 111 0 l 111 736 m 408 1015 l 539 1015 l 414 838 l 317 838 l 408 1015 z "},"ґ":{"ha":599,"x_min":111,"x_max":568,"o":"m 111 736 l 449 736 l 449 951 l 568 951 l 568 633 l 228 633 l 228 0 l 111 0 l 111 736 z "},"ғ":{"ha":746,"x_min":83,"x_max":681,"o":"m 83 425 l 165 425 l 165 736 l 681 736 l 681 633 l 282 633 l 282 425 l 508 425 l 508 322 l 282 322 l 282 0 l 165 0 l 165 322 l 83 322 l 83 425 z "},"д":{"ha":957,"x_min":56,"x_max":901,"o":"m 121 103 q 189 135 164 103 q 224 236 214 167 l 290 736 l 782 736 l 782 103 l 901 103 l 901 -208 l 785 -208 l 785 0 l 172 0 l 172 -208 l 56 -208 l 56 103 l 121 103 m 665 103 l 665 633 l 396 633 l 338 225 q 293 103 328 150 l 665 103 z "},"е":{"ha":788,"x_min":65,"x_max":722,"o":"m 403 -17 q 224 31 300 -17 q 106 165 147 78 q 65 368 65 251 q 106 571 65 483 q 222 706 147 658 q 397 753 297 753 q 567 708 493 753 q 681 575 640 663 q 722 367 722 488 l 722 332 l 188 332 q 249 155 193 215 q 403 94 306 94 q 520 127 474 94 q 586 218 567 160 l 711 208 q 599 45 682 107 q 403 -17 517 -17 m 594 435 q 534 590 586 538 q 397 642 482 642 q 256 589 311 642 q 188 435 201 536 l 594 435 z "},"ѐ":{"ha":788,"x_min":65,"x_max":722,"o":"m 403 -17 q 224 31 300 -17 q 106 165 147 78 q 65 368 65 251 q 106 571 65 483 q 222 706 147 658 q 397 753 297 753 q 567 708 493 753 q 681 575 640 663 q 722 367 722 488 l 722 332 l 188 332 q 249 155 193 215 q 403 94 306 94 q 520 127 474 94 q 586 218 567 160 l 711 208 q 599 45 682 107 q 403 -17 517 -17 m 594 435 q 534 590 586 538 q 397 642 482 642 q 256 589 311 642 q 188 435 201 536 l 594 435 m 233 1013 l 364 1013 l 456 835 l 358 835 l 233 1013 z "},"ё":{"ha":788,"x_min":65,"x_max":722,"o":"m 403 -17 q 224 31 300 -17 q 106 165 147 78 q 65 368 65 251 q 106 571 65 483 q 222 706 147 658 q 397 753 297 753 q 567 708 493 753 q 681 575 640 663 q 722 367 722 488 l 722 332 l 188 332 q 249 155 193 215 q 403 94 306 94 q 520 127 474 94 q 586 218 567 160 l 711 208 q 599 45 682 107 q 403 -17 517 -17 m 594 435 q 534 590 586 538 q 397 642 482 642 q 256 589 311 642 q 188 435 201 536 l 594 435 m 238 985 l 360 985 l 360 849 l 238 849 l 238 985 m 479 985 l 601 985 l 601 849 l 479 849 l 479 985 z "},"ж":{"ha":1194,"x_min":65,"x_max":1129,"o":"m 392 368 l 79 736 l 236 736 l 540 378 l 540 736 l 657 736 l 657 378 l 961 736 l 1115 736 l 803 368 l 1129 0 l 975 0 l 657 358 l 657 0 l 540 0 l 540 358 l 222 0 l 65 0 l 392 368 z "},"з":{"ha":743,"x_min":69,"x_max":674,"o":"m 372 -17 q 156 43 238 -17 q 69 206 75 103 l 192 211 q 244 126 196 158 q 372 94 293 94 q 503 125 454 94 q 551 207 551 156 q 506 301 551 267 q 386 335 461 336 l 310 333 l 310 444 l 386 443 q 488 470 450 442 q 526 546 526 499 q 485 616 526 590 q 372 642 443 642 q 268 618 308 642 q 222 554 228 594 l 96 561 q 181 701 106 650 q 372 753 256 753 q 574 697 500 753 q 649 546 649 642 q 610 455 649 494 q 501 396 571 415 q 628 320 582 372 q 674 200 674 268 q 592 42 674 100 q 372 -17 511 -17 z "},"и":{"ha":796,"x_min":111,"x_max":685,"o":"m 111 736 l 228 736 l 228 178 l 547 736 l 685 736 l 685 0 l 568 0 l 568 547 l 256 0 l 111 0 l 111 736 z "},"й":{"ha":796,"x_min":111,"x_max":685,"o":"m 111 736 l 228 736 l 228 178 l 547 736 l 685 736 l 685 0 l 568 0 l 568 547 l 256 0 l 111 0 l 111 736 m 396 838 q 258 885 311 838 q 201 1015 206 933 l 282 1015 q 396 924 294 924 q 508 1015 496 924 l 589 1015 q 533 885 585 933 q 396 838 481 838 z "},"ѝ":{"ha":796,"x_min":111,"x_max":685,"o":"m 111 736 l 228 736 l 228 178 l 547 736 l 685 736 l 685 0 l 568 0 l 568 547 l 256 0 l 111 0 l 111 736 m 229 1015 l 360 1015 l 451 838 l 354 838 l 229 1015 z "},"к":{"ha":822,"x_min":111,"x_max":757,"o":"m 231 358 l 231 0 l 111 0 l 111 736 l 231 736 l 231 378 l 576 736 l 740 736 l 378 368 l 757 0 l 590 0 l 231 358 z "},"ќ":{"ha":822,"x_min":111,"x_max":757,"o":"m 231 358 l 231 0 l 111 0 l 111 736 l 231 736 l 231 378 l 576 736 l 740 736 l 378 368 l 757 0 l 590 0 l 231 358 m 443 1015 l 574 1015 l 449 838 l 351 838 l 443 1015 z "},"л":{"ha":938,"x_min":83,"x_max":826,"o":"m 83 117 l 151 117 q 232 217 221 117 l 288 736 l 826 736 l 826 0 l 710 0 l 710 633 l 394 633 l 349 204 q 293 51 338 101 q 168 0 249 0 l 83 0 l 83 117 z "},"м":{"ha":997,"x_min":111,"x_max":886,"o":"m 111 736 l 272 736 l 500 122 l 726 736 l 886 736 l 886 0 l 769 0 l 769 519 l 572 0 l 426 0 l 228 519 l 228 0 l 111 0 l 111 736 z "},"н":{"ha":803,"x_min":111,"x_max":692,"o":"m 111 736 l 228 736 l 228 418 l 575 418 l 575 736 l 692 736 l 692 0 l 575 0 l 575 315 l 228 315 l 228 0 l 111 0 l 111 736 z "},"о":{"ha":804,"x_min":65,"x_max":739,"o":"m 403 -17 q 225 31 301 -17 q 107 165 149 78 q 65 368 65 251 q 107 572 65 485 q 225 706 149 658 q 403 753 301 753 q 579 706 503 753 q 697 572 656 658 q 739 368 739 485 q 697 165 739 251 q 579 31 656 78 q 403 -17 503 -17 m 403 94 q 560 167 504 94 q 617 368 617 240 q 560 569 617 496 q 403 642 504 642 q 244 569 301 642 q 188 368 188 497 q 244 167 188 239 q 403 94 301 94 z "},"п":{"ha":804,"x_min":111,"x_max":693,"o":"m 111 736 l 693 736 l 693 0 l 576 0 l 576 633 l 228 633 l 228 0 l 111 0 l 111 736 z "},"р":{"ha":831,"x_min":111,"x_max":765,"o":"m 111 736 l 219 736 l 221 624 q 313 719 254 686 q 447 753 371 753 q 624 701 553 753 q 731 561 696 649 q 765 368 765 474 q 731 175 765 263 q 624 35 696 88 q 447 -17 553 -17 q 316 14 375 -17 q 228 97 257 44 l 228 -208 l 111 -208 l 111 736 m 436 94 q 588 167 532 94 q 643 368 643 239 q 588 569 643 497 q 436 642 532 642 q 283 572 339 642 q 228 368 228 501 q 283 165 228 235 q 436 94 338 94 z "},"с":{"ha":767,"x_min":65,"x_max":715,"o":"m 403 -17 q 225 31 301 -17 q 107 165 149 78 q 65 368 65 253 q 107 571 65 483 q 225 706 149 658 q 403 753 301 753 q 614 686 531 753 q 715 497 697 619 l 593 489 q 530 601 581 561 q 403 642 479 642 q 244 569 301 642 q 188 368 188 497 q 244 167 188 239 q 403 94 301 94 q 530 137 479 94 q 593 261 581 179 l 715 253 q 613 56 696 129 q 403 -17 529 -17 z "},"т":{"ha":779,"x_min":65,"x_max":714,"o":"m 331 633 l 65 633 l 65 736 l 714 736 l 714 633 l 449 633 l 449 0 l 331 0 l 331 633 z "},"у":{"ha":746,"x_min":31,"x_max":715,"o":"m 143 -106 l 228 -106 q 284 -94 265 -106 q 314 -56 303 -82 l 340 14 l 300 14 l 31 736 l 158 736 l 378 122 l 588 736 l 715 736 l 417 -93 q 354 -181 396 -153 q 239 -208 313 -208 l 143 -208 l 143 -106 z "},"ў":{"ha":746,"x_min":31,"x_max":715,"o":"m 143 -106 l 228 -106 q 284 -94 265 -106 q 314 -56 303 -82 l 340 14 l 300 14 l 31 736 l 158 736 l 378 122 l 588 736 l 715 736 l 417 -93 q 354 -181 396 -153 q 239 -208 313 -208 l 143 -208 l 143 -106 z "},"ф":{"ha":899,"x_min":65,"x_max":833,"o":"m 392 38 q 221 94 294 49 q 106 210 147 139 q 65 372 65 282 q 106 534 65 463 q 221 651 147 606 q 392 707 294 696 l 392 986 l 510 986 l 510 706 q 679 649 606 694 q 793 533 753 604 q 833 372 833 461 q 793 212 833 283 q 679 95 753 140 q 510 39 606 50 l 510 -208 l 392 -208 l 392 38 m 190 372 q 244 226 190 283 q 392 156 297 169 l 392 589 q 244 518 297 575 q 190 372 190 461 m 510 156 q 656 228 603 171 q 708 372 708 285 q 656 517 708 460 q 510 589 603 574 l 510 156 z "},"х":{"ha":813,"x_min":65,"x_max":747,"o":"m 336 378 l 79 736 l 215 736 l 408 458 l 596 736 l 735 736 l 481 375 l 747 0 l 611 0 l 408 297 l 204 0 l 65 0 l 336 378 z "},"ч":{"ha":835,"x_min":111,"x_max":724,"o":"m 607 357 q 522 257 581 294 q 390 219 464 219 q 187 306 263 219 q 111 539 111 392 l 111 736 l 228 736 l 228 539 q 272 387 228 443 q 390 331 317 331 q 549 387 490 331 q 607 540 607 443 l 607 736 l 724 736 l 724 0 l 607 0 l 607 357 z "},"ц":{"ha":908,"x_min":111,"x_max":811,"o":"m 228 736 l 228 103 l 576 103 l 576 736 l 693 736 l 693 103 l 811 103 l 811 -208 l 694 -208 l 694 0 l 111 0 l 111 736 l 228 736 z "},"ш":{"ha":1103,"x_min":111,"x_max":992,"o":"m 111 736 l 228 736 l 228 103 l 493 103 l 493 736 l 611 736 l 611 103 l 875 103 l 875 736 l 992 736 l 992 0 l 111 0 l 111 736 z "},"щ":{"ha":1200,"x_min":111,"x_max":1117,"o":"m 1000 0 l 111 0 l 111 736 l 228 736 l 228 103 l 493 103 l 493 736 l 611 736 l 611 103 l 875 103 l 875 736 l 992 736 l 992 103 l 1117 103 l 1117 -208 l 1000 -208 l 1000 0 z "},"џ":{"ha":804,"x_min":111,"x_max":693,"o":"m 343 0 l 111 0 l 111 736 l 228 736 l 228 103 l 576 103 l 576 736 l 693 736 l 693 0 l 460 0 l 460 -208 l 343 -208 l 343 0 z "},"ь":{"ha":810,"x_min":111,"x_max":744,"o":"m 111 736 l 228 736 l 228 465 l 422 465 q 661 405 578 465 q 744 232 744 344 q 661 60 744 121 q 422 0 578 0 l 111 0 l 111 736 m 422 104 q 622 232 622 104 q 422 363 622 363 l 228 363 l 228 104 l 422 104 z "},"ы":{"ha":1103,"x_min":111,"x_max":992,"o":"m 875 736 l 992 736 l 992 0 l 875 0 l 875 736 m 111 736 l 228 736 l 228 465 l 422 465 q 661 405 578 465 q 744 232 744 344 q 661 60 744 121 q 422 0 578 0 l 111 0 l 111 736 m 422 104 q 622 232 622 104 q 422 363 622 363 l 228 363 l 228 104 l 422 104 z "},"ъ":{"ha":900,"x_min":83,"x_max":835,"o":"m 83 736 l 318 736 l 318 465 l 513 465 q 751 405 668 465 q 835 232 835 344 q 751 60 835 121 q 513 0 668 0 l 201 0 l 201 633 l 83 633 l 83 736 m 513 104 q 713 232 713 104 q 513 363 713 363 l 318 363 l 318 104 l 513 104 z "},"љ":{"ha":1408,"x_min":83,"x_max":1343,"o":"m 710 633 l 394 633 l 349 204 q 293 51 338 101 q 168 0 249 0 l 83 0 l 83 117 l 151 117 q 232 217 221 117 l 288 736 l 826 736 l 826 465 l 1021 465 q 1260 405 1176 465 q 1343 232 1343 344 q 1260 60 1343 121 q 1021 0 1176 0 l 710 0 l 710 633 m 1021 104 q 1221 232 1221 104 q 1021 363 1221 363 l 826 363 l 826 104 l 1021 104 z "},"њ":{"ha":1274,"x_min":111,"x_max":1208,"o":"m 111 736 l 228 736 l 228 465 l 575 465 l 575 736 l 692 736 l 692 465 l 886 465 q 1125 405 1042 465 q 1208 232 1208 344 q 1125 60 1208 121 q 886 0 1042 0 l 575 0 l 575 363 l 228 363 l 228 0 l 111 0 l 111 736 m 886 104 q 1086 232 1086 104 q 886 363 1086 363 l 692 363 l 692 104 l 886 104 z "},"ѕ":{"ha":736,"x_min":65,"x_max":671,"o":"m 383 -17 q 156 51 239 -17 q 65 232 74 119 l 188 240 q 383 94 210 94 q 505 119 461 94 q 549 197 549 144 q 534 247 549 228 q 480 280 519 265 q 361 308 440 294 q 145 387 207 336 q 83 528 83 438 q 157 690 83 628 q 361 753 231 753 q 564 686 489 753 q 657 517 639 619 l 535 508 q 477 606 522 569 q 360 642 432 642 q 244 612 283 642 q 206 533 206 582 q 244 454 206 481 q 383 411 283 428 q 558 365 496 392 q 645 298 619 338 q 671 197 671 258 q 590 40 671 97 q 383 -17 508 -17 z "},"є":{"ha":793,"x_min":65,"x_max":728,"o":"m 403 -17 q 225 31 301 -17 q 107 165 149 78 q 65 368 65 251 q 107 572 65 485 q 225 706 149 658 q 403 753 301 753 q 614 680 528 753 q 728 479 700 607 l 603 479 q 530 599 582 557 q 403 642 478 642 q 256 583 311 642 q 190 419 201 525 l 436 419 l 436 317 l 190 317 q 256 153 201 211 q 403 94 311 94 q 529 136 478 94 q 601 253 581 178 l 726 253 q 613 55 699 126 q 403 -17 528 -17 z "},"э":{"ha":793,"x_min":65,"x_max":728,"o":"m 390 -17 q 180 55 265 -17 q 67 253 94 126 l 192 253 q 264 136 213 178 q 390 94 315 94 q 537 153 482 94 q 603 317 592 211 l 357 317 l 357 419 l 603 419 q 537 583 592 525 q 390 642 482 642 q 263 599 315 642 q 190 479 211 557 l 65 479 q 179 680 93 607 q 390 753 265 753 q 568 706 492 753 q 686 572 644 658 q 728 368 728 485 q 686 165 728 251 q 568 31 644 78 q 390 -17 492 -17 z "},"і":{"ha":339,"x_min":108,"x_max":231,"o":"m 111 736 l 228 736 l 228 0 l 111 0 l 111 736 m 108 988 l 231 988 l 231 851 l 108 851 l 108 988 z "},"ї":{"ha":339,"x_min":4,"x_max":368,"o":"m 111 736 l 228 736 l 228 0 l 111 0 l 111 736 m 4 988 l 126 988 l 126 851 l 4 851 l 4 988 m 246 988 l 368 988 l 368 851 l 246 851 l 246 988 z "},"ј":{"ha":361,"x_min":-7,"x_max":253,"o":"m -7 -106 l 53 -106 q 113 -87 92 -106 q 133 -25 133 -68 l 133 736 l 250 736 l 250 -31 q 207 -168 250 -128 q 64 -208 164 -208 l -7 -208 l -7 -106 m 131 988 l 253 988 l 253 851 l 131 851 l 131 988 z "},"ћ":{"ha":842,"x_min":83,"x_max":744,"o":"m 83 914 l 160 914 l 160 986 l 276 986 l 276 914 l 436 914 l 436 811 l 276 811 l 276 621 q 362 719 304 686 q 499 753 419 753 q 680 676 615 753 q 744 474 744 600 l 744 0 l 628 0 l 628 440 q 474 650 628 650 q 329 594 382 650 q 276 439 276 539 l 276 0 l 160 0 l 160 811 l 83 811 l 83 914 z "},"ю":{"ha":1094,"x_min":111,"x_max":1029,"o":"m 111 736 l 228 736 l 228 419 l 358 419 q 462 663 372 574 q 693 753 551 753 q 869 706 793 753 q 988 572 946 658 q 1029 368 1029 485 q 988 165 1029 251 q 869 31 946 78 q 693 -17 793 -17 q 462 73 551 -17 q 358 317 372 163 l 228 317 l 228 0 l 111 0 l 111 736 m 693 94 q 851 167 794 94 q 907 368 907 240 q 851 569 907 496 q 693 642 794 642 q 535 569 592 642 q 478 368 478 497 q 535 167 478 239 q 693 94 592 94 z "},"я":{"ha":818,"x_min":111,"x_max":707,"o":"m 290 306 q 166 389 210 335 q 122 514 122 443 q 199 678 122 621 q 417 736 275 736 l 707 736 l 707 0 l 590 0 l 590 285 l 415 285 l 247 0 l 111 0 l 290 306 m 590 388 l 590 635 l 417 635 q 291 603 335 635 q 247 511 247 571 q 291 419 247 451 q 417 388 335 388 l 590 388 z "},"ђ":{"ha":856,"x_min":83,"x_max":744,"o":"m 160 811 l 83 811 l 83 914 l 160 914 l 160 986 l 276 986 l 276 914 l 436 914 l 436 811 l 276 811 l 276 636 q 365 724 307 694 q 496 753 424 753 q 677 677 610 753 q 744 474 744 601 l 744 -4 q 697 -154 744 -100 q 558 -208 649 -208 l 488 -208 l 488 -106 l 544 -106 q 606 -78 583 -106 q 628 -4 628 -51 l 628 432 q 471 642 628 642 q 329 587 382 642 q 276 432 276 532 l 276 0 l 160 0 l 160 811 z "},"ѣ":{"ha":946,"x_min":83,"x_max":881,"o":"m 247 736 l 83 736 l 83 853 l 247 853 l 247 986 l 364 986 l 364 853 l 526 853 l 526 736 l 364 736 l 364 493 l 558 493 q 797 429 714 493 q 881 246 881 365 q 797 64 881 128 q 558 0 714 0 l 247 0 l 247 736 m 558 104 q 706 141 654 104 q 758 246 758 178 q 706 353 758 315 q 558 390 654 390 l 364 390 l 364 104 l 558 104 z "},"ѫ":{"ha":981,"x_min":65,"x_max":915,"o":"m 208 299 q 267 369 229 343 q 351 401 306 396 l 133 633 l 133 736 l 849 736 l 849 633 l 631 401 q 714 369 676 396 q 772 299 751 343 l 915 0 l 782 0 l 669 246 q 633 290 654 278 q 579 303 613 303 l 550 303 l 550 0 l 431 0 l 431 303 l 400 303 q 347 290 367 303 q 311 246 326 278 l 199 0 l 65 0 l 208 299 m 492 404 l 707 633 l 275 633 l 492 404 z "},"ѳ":{"ha":804,"x_min":65,"x_max":739,"o":"m 403 -17 q 225 31 301 -17 q 107 165 149 78 q 65 368 65 251 q 107 572 65 485 q 225 706 149 658 q 403 753 301 753 q 579 706 503 753 q 697 572 656 658 q 739 368 739 485 q 697 165 739 251 q 579 31 656 78 q 403 -17 503 -17 m 403 94 q 533 138 481 94 q 604 263 585 182 l 601 263 q 521 272 558 263 q 390 324 483 282 q 315 348 356 340 q 238 356 274 356 q 188 349 207 356 q 249 162 192 229 q 403 94 306 94 m 217 457 q 301 452 256 460 q 382 428 346 444 q 486 383 451 396 q 540 367 521 369 q 590 365 560 364 q 617 368 600 365 q 560 569 617 496 q 403 642 504 642 q 266 593 319 642 q 196 454 213 544 l 217 457 z "},"ѵ":{"ha":815,"x_min":31,"x_max":785,"o":"m 31 736 l 156 736 l 372 122 l 529 569 q 615 693 557 650 q 753 736 674 736 l 785 736 l 785 633 l 771 633 q 639 531 676 633 l 446 0 l 299 0 l 31 736 z "},"җ":{"ha":1203,"x_min":65,"x_max":1138,"o":"m 1021 0 l 975 0 l 657 358 l 657 0 l 540 0 l 540 358 l 222 0 l 65 0 l 392 368 l 79 736 l 236 736 l 540 378 l 540 736 l 657 736 l 657 378 l 961 736 l 1115 736 l 803 368 l 1038 103 l 1138 103 l 1138 -208 l 1021 -208 l 1021 0 z "},"қ":{"ha":833,"x_min":111,"x_max":768,"o":"m 651 0 l 590 0 l 231 358 l 231 0 l 111 0 l 111 736 l 231 736 l 231 378 l 576 736 l 740 736 l 378 368 l 651 103 l 768 103 l 768 -208 l 651 -208 l 651 0 z "},"ң":{"ha":914,"x_min":111,"x_max":803,"o":"m 686 0 l 575 0 l 575 315 l 228 315 l 228 0 l 111 0 l 111 736 l 228 736 l 228 418 l 575 418 l 575 736 l 692 736 l 692 103 l 803 103 l 803 -208 l 686 -208 l 686 0 z "},"ү":{"ha":744,"x_min":31,"x_max":714,"o":"m 31 736 l 156 736 l 372 140 l 589 736 l 714 736 l 431 0 l 431 -208 l 314 -208 l 314 0 l 31 736 z "},"ұ":{"ha":744,"x_min":31,"x_max":714,"o":"m 151 51 l 294 51 l 31 736 l 156 736 l 372 140 l 589 736 l 714 736 l 450 51 l 594 51 l 594 -51 l 431 -51 l 431 -208 l 314 -208 l 314 -51 l 151 -51 l 151 51 z "},"ҳ":{"ha":856,"x_min":65,"x_max":790,"o":"m 674 0 l 611 0 l 408 297 l 204 0 l 65 0 l 336 378 l 79 736 l 215 736 l 408 458 l 596 736 l 735 736 l 481 375 l 674 103 l 790 103 l 790 -208 l 674 -208 l 674 0 z "},"ҷ":{"ha":922,"x_min":111,"x_max":832,"o":"m 715 0 l 607 0 l 607 357 q 522 257 581 294 q 390 219 464 219 q 187 306 263 219 q 111 539 111 392 l 111 736 l 228 736 l 228 539 q 272 387 228 443 q 390 331 317 331 q 549 387 490 331 q 607 540 607 443 l 607 736 l 724 736 l 724 103 l 832 103 l 832 -208 l 715 -208 l 715 0 z "},"һ":{"ha":807,"x_min":111,"x_max":696,"o":"m 111 986 l 228 986 l 228 621 q 313 719 256 686 q 450 753 371 753 q 631 676 567 753 q 696 474 696 600 l 696 0 l 579 0 l 579 440 q 425 650 579 650 q 281 594 333 650 q 228 439 228 539 l 228 0 l 111 0 l 111 986 z "},"ӏ":{"ha":372,"x_min":128,"x_max":244,"o":"m 128 986 l 244 986 l 244 0 l 128 0 l 128 986 z "},"ә":{"ha":788,"x_min":65,"x_max":722,"o":"m 385 753 q 564 706 488 753 q 681 572 640 658 q 722 368 722 485 q 681 165 722 253 q 565 31 640 78 q 390 -17 490 -17 q 221 28 294 -17 q 106 161 147 74 q 65 369 65 249 l 65 404 l 600 404 q 538 581 594 521 q 385 642 482 642 q 267 609 314 642 q 201 518 221 576 l 76 528 q 188 691 106 629 q 385 753 271 753 m 193 301 q 253 147 201 199 q 390 94 306 94 q 531 147 476 94 q 600 301 586 200 l 193 301 z "},"ӣ":{"ha":796,"x_min":111,"x_max":685,"o":"m 111 736 l 228 736 l 228 178 l 547 736 l 685 736 l 685 0 l 568 0 l 568 547 l 256 0 l 111 0 l 111 736 m 213 968 l 585 968 l 585 868 l 213 868 l 213 968 z "},"ө":{"ha":804,"x_min":65,"x_max":739,"o":"m 403 -17 q 225 31 301 -17 q 107 165 149 78 q 65 368 65 251 q 107 572 65 485 q 225 706 149 658 q 403 753 301 753 q 579 706 503 753 q 697 572 656 658 q 739 368 739 485 q 697 165 739 251 q 579 31 656 78 q 403 -17 503 -17 m 403 94 q 548 153 493 94 q 614 317 603 211 l 190 317 q 256 153 201 211 q 403 94 311 94 m 614 419 q 548 583 603 525 q 403 642 493 642 q 256 583 311 642 q 190 419 201 525 l 614 419 z "},"ӯ":{"ha":746,"x_min":31,"x_max":715,"o":"m 143 -106 l 228 -106 q 284 -94 265 -106 q 314 -56 303 -82 l 340 14 l 300 14 l 31 736 l 158 736 l 378 122 l 588 736 l 715 736 l 417 -93 q 354 -181 396 -153 q 239 -208 313 -208 l 143 -208 l 143 -106 m 188 968 l 560 968 l 560 868 l 188 868 l 188 968 z "},"Λ":{"ha":931,"x_min":29,"x_max":901,"o":"m 385 986 l 546 986 l 901 0 l 771 0 l 465 882 l 160 0 l 29 0 l 385 986 z "},"Ω":{"ha":1026,"x_min":68,"x_max":958,"o":"m 71 117 l 254 117 q 117 277 167 176 q 68 506 68 378 q 122 771 68 657 q 277 947 176 885 q 513 1008 378 1008 q 749 947 647 1008 q 904 771 850 885 q 958 506 958 657 q 909 277 958 378 q 772 117 860 176 l 956 117 l 956 0 l 582 0 l 582 117 q 709 169 651 117 q 800 310 767 221 q 833 506 833 399 q 749 790 833 688 q 513 892 665 892 q 276 790 360 892 q 193 506 193 688 q 226 310 193 399 q 317 169 260 221 q 443 117 375 117 l 443 0 l 71 0 l 71 117 z "},"λ":{"ha":794,"x_min":29,"x_max":765,"o":"m 718 0 q 626 18 661 0 q 565 75 590 36 q 511 186 539 114 l 365 557 l 151 0 l 29 0 l 306 707 l 267 806 q 232 866 249 849 q 179 883 215 883 l 106 883 l 106 986 l 171 986 q 301 944 254 986 q 388 800 347 901 l 632 181 q 665 121 649 139 q 717 103 682 103 l 765 103 l 765 0 l 718 0 z "},"π":{"ha":914,"x_min":76,"x_max":863,"o":"m 817 0 q 656 53 708 0 q 604 203 604 107 l 604 633 l 342 633 l 342 0 l 225 0 l 225 633 l 76 633 l 76 736 l 863 736 l 863 633 l 721 633 l 721 203 q 746 129 721 156 q 817 103 771 103 l 860 103 l 860 0 l 817 0 z "},"ℇ":{"ha":822,"x_min":56,"x_max":767,"o":"m 413 -22 q 226 15 307 -22 q 100 119 144 53 q 56 271 56 186 q 109 435 56 367 q 264 533 163 503 q 89 751 89 586 q 130 885 89 826 q 244 976 171 943 q 413 1008 318 1008 q 593 971 503 1008 q 735 875 683 933 l 657 779 q 544 864 613 831 q 413 897 475 897 q 265 858 319 897 q 211 751 211 818 q 272 619 211 663 q 413 578 332 576 l 488 579 l 488 469 l 413 471 q 242 420 306 472 q 178 281 178 368 q 242 142 178 194 q 413 89 306 89 q 564 126 485 89 q 692 221 643 163 l 767 122 q 613 18 713 58 q 413 -22 514 -22 z "},"⓿":{"ha":1156,"x_min":65,"x_max":1090,"o":"m 578 206 q 424 283 481 206 q 368 493 368 361 q 424 705 368 626 q 578 783 481 783 q 731 705 675 783 q 788 493 788 626 q 731 283 788 361 q 578 206 675 206 m 578 288 q 670 342 638 288 q 703 493 703 396 q 689 601 703 558 l 510 313 q 578 288 538 288 m 646 676 q 578 701 619 701 q 485 647 518 701 q 453 493 453 593 q 467 389 453 431 l 646 676 m 578 -17 q 835 52 717 -17 q 1022 239 953 121 q 1090 497 1090 357 q 1022 753 1090 636 q 835 940 953 871 q 578 1008 717 1008 q 321 940 439 1008 q 134 753 203 871 q 65 497 65 636 q 134 239 65 357 q 321 52 203 121 q 578 -17 439 -17 z "},"❶":{"ha":1156,"x_min":65,"x_max":1090,"o":"m 578 -17 q 835 52 717 -17 q 1022 239 953 121 q 1090 497 1090 357 q 1022 753 1090 636 q 835 940 953 871 q 578 1008 717 1008 q 321 940 439 1008 q 134 753 203 871 q 65 497 65 636 q 134 239 65 357 q 321 52 203 121 q 578 -17 439 -17 m 515 572 l 382 571 l 382 639 l 415 639 q 507 671 475 639 q 539 763 539 703 l 608 763 l 608 224 l 515 224 l 515 572 z "},"❷":{"ha":1156,"x_min":65,"x_max":1090,"o":"m 578 -17 q 835 52 717 -17 q 1022 239 953 121 q 1090 497 1090 357 q 1022 753 1090 636 q 835 940 953 871 q 578 1008 717 1008 q 321 940 439 1008 q 134 753 203 871 q 65 497 65 636 q 134 239 65 357 q 321 52 203 121 q 578 -17 439 -17 m 394 222 q 427 363 394 299 q 554 489 460 426 l 599 518 q 653 568 636 543 q 669 624 669 593 q 647 677 669 657 q 592 697 625 697 q 524 673 549 697 q 490 600 500 649 l 401 604 q 463 732 411 685 q 592 779 514 779 q 712 735 665 779 q 758 624 758 692 q 726 526 758 571 q 629 438 693 481 l 590 411 q 497 304 499 349 l 761 304 l 761 222 l 394 222 z "},"❸":{"ha":1156,"x_min":65,"x_max":1090,"o":"m 578 -17 q 835 52 717 -17 q 1022 239 953 121 q 1090 497 1090 357 q 1022 753 1090 636 q 835 940 953 871 q 578 1008 717 1008 q 321 940 439 1008 q 134 753 203 871 q 65 497 65 636 q 134 239 65 357 q 321 52 203 121 q 578 -17 439 -17 m 582 206 q 447 251 503 206 q 386 361 390 296 l 475 365 q 508 310 478 332 q 582 288 539 288 q 653 313 625 288 q 682 375 682 338 q 651 445 682 417 q 575 474 621 474 l 540 474 l 540 553 l 575 553 q 636 576 611 553 q 661 626 661 599 q 638 681 661 658 q 581 703 615 703 q 521 687 544 703 q 494 646 497 671 l 406 651 q 465 747 414 708 q 581 785 515 785 q 701 743 653 785 q 750 640 750 701 q 726 565 750 600 q 658 518 701 531 q 739 461 707 503 q 771 369 771 419 q 716 253 771 301 q 582 206 661 206 z "},"❹":{"ha":1156,"x_min":65,"x_max":1090,"o":"m 578 -17 q 835 52 717 -17 q 1022 239 953 121 q 1090 497 1090 357 q 1022 753 1090 636 q 835 940 953 871 q 578 1008 717 1008 q 321 940 439 1008 q 134 753 203 871 q 65 497 65 636 q 134 239 65 357 q 321 52 203 121 q 578 -17 439 -17 m 621 329 l 364 329 l 364 399 l 639 763 l 710 763 l 710 411 l 771 411 l 771 329 l 710 329 l 710 224 l 621 224 l 621 329 m 621 411 l 621 600 l 479 411 l 621 411 z "},"❺":{"ha":1156,"x_min":65,"x_max":1090,"o":"m 578 -17 q 835 52 717 -17 q 1022 239 953 121 q 1090 497 1090 357 q 1022 753 1090 636 q 835 940 953 871 q 578 1008 717 1008 q 321 940 439 1008 q 134 753 203 871 q 65 497 65 636 q 134 239 65 357 q 321 52 203 121 q 578 -17 439 -17 m 578 201 q 449 244 501 201 q 390 356 396 288 l 479 360 q 515 304 486 325 q 581 283 543 283 q 650 314 622 283 q 678 393 678 344 q 650 472 678 440 q 581 504 622 504 q 528 494 550 504 q 485 450 506 483 l 400 450 l 443 764 l 729 764 l 729 682 l 517 682 l 499 543 q 542 574 519 564 q 593 583 564 583 q 717 528 668 583 q 767 393 767 474 q 714 255 767 308 q 578 201 661 201 z "},"❻":{"ha":1156,"x_min":65,"x_max":1090,"o":"m 578 -17 q 835 52 717 -17 q 1022 239 953 121 q 1090 497 1090 357 q 1022 753 1090 636 q 835 940 953 871 q 578 1008 717 1008 q 321 940 439 1008 q 134 753 203 871 q 65 497 65 636 q 134 239 65 357 q 321 52 203 121 q 578 -17 439 -17 m 579 206 q 439 279 488 206 q 390 461 390 353 q 441 690 390 597 q 594 782 492 782 q 699 748 653 782 q 764 651 746 714 l 678 643 q 594 700 657 700 q 511 653 542 700 q 471 535 481 607 q 594 594 517 594 q 717 541 668 594 q 765 401 765 488 q 713 259 765 313 q 579 206 660 206 m 581 288 q 651 319 626 288 q 676 401 676 350 q 652 483 676 453 q 582 513 628 513 q 513 481 540 513 q 485 397 485 449 q 511 318 485 349 q 581 288 538 288 z "},"❼":{"ha":1156,"x_min":65,"x_max":1090,"o":"m 578 -17 q 835 52 717 -17 q 1022 239 953 121 q 1090 497 1090 357 q 1022 753 1090 636 q 835 940 953 871 q 578 1008 717 1008 q 321 940 439 1008 q 134 753 203 871 q 65 497 65 636 q 134 239 65 357 q 321 52 203 121 q 578 -17 439 -17 m 499 224 q 542 462 499 346 q 665 681 586 578 l 386 681 l 386 763 l 769 763 l 769 701 q 588 224 588 468 l 499 224 z "},"❽":{"ha":1156,"x_min":65,"x_max":1090,"o":"m 578 -17 q 835 52 717 -17 q 1022 239 953 121 q 1090 497 1090 357 q 1022 753 1090 636 q 835 940 953 871 q 578 1008 717 1008 q 321 940 439 1008 q 134 753 203 871 q 65 497 65 636 q 134 239 65 357 q 321 52 203 121 q 578 -17 439 -17 m 578 206 q 438 250 493 206 q 382 369 382 294 q 410 460 382 421 q 488 518 438 499 q 408 631 408 551 q 458 739 408 696 q 578 782 507 782 q 699 739 650 782 q 747 631 747 696 q 668 518 747 551 q 746 458 718 497 q 774 369 774 419 q 718 250 774 294 q 578 206 663 206 m 578 288 q 656 311 626 288 q 685 375 685 335 q 655 447 685 419 q 578 475 625 475 q 501 447 531 475 q 471 375 471 419 q 500 311 471 335 q 578 288 529 288 m 578 553 q 636 574 614 553 q 658 631 658 596 q 636 681 658 663 q 578 700 614 700 q 519 681 542 700 q 497 631 497 663 q 519 574 497 596 q 578 553 542 553 z "},"❾":{"ha":1156,"x_min":65,"x_max":1090,"o":"m 578 -17 q 835 52 717 -17 q 1022 239 953 121 q 1090 497 1090 357 q 1022 753 1090 636 q 835 940 953 871 q 578 1008 717 1008 q 321 940 439 1008 q 134 753 203 871 q 65 497 65 636 q 134 239 65 357 q 321 52 203 121 q 578 -17 439 -17 m 561 206 q 455 240 501 206 q 390 336 408 274 l 478 344 q 561 288 499 288 q 644 331 611 288 q 686 454 676 375 q 633 409 665 425 q 561 393 601 393 q 439 447 488 393 q 390 586 390 500 q 443 728 390 675 q 576 782 496 782 q 717 708 668 782 q 765 526 765 635 q 710 292 765 379 q 561 206 656 206 m 574 475 q 644 507 615 475 q 672 589 672 539 q 644 669 672 639 q 575 700 617 700 q 504 669 529 700 q 479 586 479 638 q 503 505 479 535 q 574 475 528 475 z "},"⓪":{"ha":1156,"x_min":65,"x_max":1090,"o":"m 578 -17 q 321 52 439 -17 q 134 239 203 121 q 65 497 65 357 q 134 753 65 636 q 321 940 203 871 q 578 1008 439 1008 q 835 940 717 1008 q 1022 753 953 871 q 1090 497 1090 636 q 1022 239 1090 357 q 835 52 953 121 q 578 -17 717 -17 m 578 86 q 785 141 692 86 q 934 290 879 196 q 989 497 989 383 q 934 704 989 610 q 785 853 879 799 q 578 907 692 907 q 370 853 464 907 q 222 704 276 799 q 168 497 168 610 q 222 290 168 383 q 370 141 276 196 q 578 86 464 86 m 578 206 q 424 283 481 206 q 368 493 368 361 q 424 705 368 626 q 578 783 481 783 q 731 705 675 783 q 788 493 788 626 q 731 283 788 361 q 578 206 675 206 m 578 288 q 670 342 638 288 q 703 493 703 396 q 689 601 703 558 l 510 313 q 578 288 538 288 m 646 676 q 578 701 619 701 q 485 647 518 701 q 453 493 453 593 q 467 389 453 431 l 646 676 z "},"①":{"ha":1156,"x_min":65,"x_max":1090,"o":"m 578 -17 q 321 52 439 -17 q 134 239 203 121 q 65 497 65 357 q 134 753 65 636 q 321 940 203 871 q 578 1008 439 1008 q 835 940 717 1008 q 1022 753 953 871 q 1090 497 1090 636 q 1022 239 1090 357 q 835 52 953 121 q 578 -17 717 -17 m 578 86 q 785 141 692 86 q 934 290 879 196 q 989 497 989 383 q 934 704 989 610 q 785 853 879 799 q 578 907 692 907 q 370 853 464 907 q 222 704 276 799 q 168 497 168 610 q 222 290 168 383 q 370 141 276 196 q 578 86 464 86 m 547 572 l 414 571 l 414 639 l 447 639 q 539 671 507 639 q 571 763 571 703 l 640 763 l 640 224 l 547 224 l 547 572 z "},"②":{"ha":1156,"x_min":65,"x_max":1090,"o":"m 578 -17 q 321 52 439 -17 q 134 239 203 121 q 65 497 65 357 q 134 753 65 636 q 321 940 203 871 q 578 1008 439 1008 q 835 940 717 1008 q 1022 753 953 871 q 1090 497 1090 636 q 1022 239 1090 357 q 835 52 953 121 q 578 -17 717 -17 m 578 86 q 785 141 692 86 q 934 290 879 196 q 989 497 989 383 q 934 704 989 610 q 785 853 879 799 q 578 907 692 907 q 370 853 464 907 q 222 704 276 799 q 168 497 168 610 q 222 290 168 383 q 370 141 276 196 q 578 86 464 86 m 394 222 q 427 363 394 299 q 554 489 460 426 l 599 518 q 653 568 636 543 q 669 624 669 593 q 647 677 669 657 q 592 697 625 697 q 524 673 549 697 q 490 600 500 649 l 401 604 q 463 732 411 685 q 592 779 514 779 q 712 735 665 779 q 758 624 758 692 q 726 526 758 571 q 629 438 693 481 l 590 411 q 497 304 499 349 l 761 304 l 761 222 l 394 222 z "},"③":{"ha":1156,"x_min":65,"x_max":1090,"o":"m 578 -17 q 321 52 439 -17 q 134 239 203 121 q 65 497 65 357 q 134 753 65 636 q 321 940 203 871 q 578 1008 439 1008 q 835 940 717 1008 q 1022 753 953 871 q 1090 497 1090 636 q 1022 239 1090 357 q 835 52 953 121 q 578 -17 717 -17 m 578 86 q 785 141 692 86 q 934 290 879 196 q 989 497 989 383 q 934 704 989 610 q 785 853 879 799 q 578 907 692 907 q 370 853 464 907 q 222 704 276 799 q 168 497 168 610 q 222 290 168 383 q 370 141 276 196 q 578 86 464 86 m 582 206 q 447 251 503 206 q 386 361 390 296 l 475 365 q 508 310 478 332 q 582 288 539 288 q 653 313 625 288 q 682 375 682 338 q 651 445 682 417 q 575 474 621 474 l 540 474 l 540 553 l 575 553 q 636 576 611 553 q 661 626 661 599 q 638 681 661 658 q 581 703 615 703 q 521 687 544 703 q 494 646 497 671 l 406 651 q 465 747 414 708 q 581 785 515 785 q 701 743 653 785 q 750 640 750 701 q 726 565 750 600 q 658 518 701 531 q 739 461 707 503 q 771 369 771 419 q 716 253 771 301 q 582 206 661 206 z "},"④":{"ha":1156,"x_min":65,"x_max":1090,"o":"m 578 -17 q 321 52 439 -17 q 134 239 203 121 q 65 497 65 357 q 134 753 65 636 q 321 940 203 871 q 578 1008 439 1008 q 835 940 717 1008 q 1022 753 953 871 q 1090 497 1090 636 q 1022 239 1090 357 q 835 52 953 121 q 578 -17 717 -17 m 578 86 q 785 141 692 86 q 934 290 879 196 q 989 497 989 383 q 934 704 989 610 q 785 853 879 799 q 578 907 692 907 q 370 853 464 907 q 222 704 276 799 q 168 497 168 610 q 222 290 168 383 q 370 141 276 196 q 578 86 464 86 m 625 329 l 368 329 l 368 399 l 643 763 l 714 763 l 714 411 l 775 411 l 775 329 l 714 329 l 714 224 l 625 224 l 625 329 m 625 411 l 625 600 l 483 411 l 625 411 z "},"⑤":{"ha":1156,"x_min":65,"x_max":1090,"o":"m 578 -17 q 321 52 439 -17 q 134 239 203 121 q 65 497 65 357 q 134 753 65 636 q 321 940 203 871 q 578 1008 439 1008 q 835 940 717 1008 q 1022 753 953 871 q 1090 497 1090 636 q 1022 239 1090 357 q 835 52 953 121 q 578 -17 717 -17 m 578 86 q 785 141 692 86 q 934 290 879 196 q 989 497 989 383 q 934 704 989 610 q 785 853 879 799 q 578 907 692 907 q 370 853 464 907 q 222 704 276 799 q 168 497 168 610 q 222 290 168 383 q 370 141 276 196 q 578 86 464 86 m 578 201 q 449 244 501 201 q 390 356 396 288 l 479 360 q 515 304 486 325 q 581 283 543 283 q 650 314 622 283 q 678 393 678 344 q 650 472 678 440 q 581 504 622 504 q 528 494 550 504 q 485 450 506 483 l 400 450 l 443 764 l 729 764 l 729 682 l 517 682 l 499 543 q 542 574 519 564 q 593 583 564 583 q 717 528 668 583 q 767 393 767 474 q 714 255 767 308 q 578 201 661 201 z "},"⑥":{"ha":1156,"x_min":65,"x_max":1090,"o":"m 578 -17 q 321 52 439 -17 q 134 239 203 121 q 65 497 65 357 q 134 753 65 636 q 321 940 203 871 q 578 1008 439 1008 q 835 940 717 1008 q 1022 753 953 871 q 1090 497 1090 636 q 1022 239 1090 357 q 835 52 953 121 q 578 -17 717 -17 m 578 86 q 785 141 692 86 q 934 290 879 196 q 989 497 989 383 q 934 704 989 610 q 785 853 879 799 q 578 907 692 907 q 370 853 464 907 q 222 704 276 799 q 168 497 168 610 q 222 290 168 383 q 370 141 276 196 q 578 86 464 86 m 579 206 q 439 279 488 206 q 390 461 390 353 q 441 690 390 597 q 594 782 492 782 q 699 748 653 782 q 764 651 746 714 l 678 643 q 594 700 657 700 q 511 653 542 700 q 471 535 481 607 q 594 594 517 594 q 717 541 668 594 q 765 401 765 488 q 713 259 765 313 q 579 206 660 206 m 581 288 q 651 319 626 288 q 676 401 676 350 q 652 483 676 453 q 582 513 628 513 q 513 481 540 513 q 485 397 485 449 q 511 318 485 349 q 581 288 538 288 z "},"⑦":{"ha":1156,"x_min":65,"x_max":1090,"o":"m 578 -17 q 321 52 439 -17 q 134 239 203 121 q 65 497 65 357 q 134 753 65 636 q 321 940 203 871 q 578 1008 439 1008 q 835 940 717 1008 q 1022 753 953 871 q 1090 497 1090 636 q 1022 239 1090 357 q 835 52 953 121 q 578 -17 717 -17 m 578 86 q 785 141 692 86 q 934 290 879 196 q 989 497 989 383 q 934 704 989 610 q 785 853 879 799 q 578 907 692 907 q 370 853 464 907 q 222 704 276 799 q 168 497 168 610 q 222 290 168 383 q 370 141 276 196 q 578 86 464 86 m 499 224 q 542 462 499 346 q 665 681 586 578 l 386 681 l 386 763 l 769 763 l 769 701 q 588 224 588 468 l 499 224 z "},"⑧":{"ha":1156,"x_min":65,"x_max":1090,"o":"m 578 -17 q 321 52 439 -17 q 134 239 203 121 q 65 497 65 357 q 134 753 65 636 q 321 940 203 871 q 578 1008 439 1008 q 835 940 717 1008 q 1022 753 953 871 q 1090 497 1090 636 q 1022 239 1090 357 q 835 52 953 121 q 578 -17 717 -17 m 578 86 q 785 141 692 86 q 934 290 879 196 q 989 497 989 383 q 934 704 989 610 q 785 853 879 799 q 578 907 692 907 q 370 853 464 907 q 222 704 276 799 q 168 497 168 610 q 222 290 168 383 q 370 141 276 196 q 578 86 464 86 m 578 206 q 438 250 493 206 q 382 369 382 294 q 410 460 382 421 q 488 518 438 499 q 408 631 408 551 q 458 739 408 696 q 578 782 507 782 q 699 739 650 782 q 747 631 747 696 q 668 518 747 551 q 746 458 718 497 q 774 369 774 419 q 718 250 774 294 q 578 206 663 206 m 578 288 q 656 311 626 288 q 685 375 685 335 q 655 447 685 419 q 578 475 625 475 q 501 447 531 475 q 471 375 471 419 q 500 311 471 335 q 578 288 529 288 m 578 553 q 636 574 614 553 q 658 631 658 596 q 636 681 658 663 q 578 700 614 700 q 519 681 542 700 q 497 631 497 663 q 519 574 497 596 q 578 553 542 553 z "},"⑨":{"ha":1156,"x_min":65,"x_max":1090,"o":"m 578 -17 q 321 52 439 -17 q 134 239 203 121 q 65 497 65 357 q 134 753 65 636 q 321 940 203 871 q 578 1008 439 1008 q 835 940 717 1008 q 1022 753 953 871 q 1090 497 1090 636 q 1022 239 1090 357 q 835 52 953 121 q 578 -17 717 -17 m 578 86 q 785 141 692 86 q 934 290 879 196 q 989 497 989 383 q 934 704 989 610 q 785 853 879 799 q 578 907 692 907 q 370 853 464 907 q 222 704 276 799 q 168 497 168 610 q 222 290 168 383 q 370 141 276 196 q 578 86 464 86 m 561 206 q 455 240 501 206 q 390 336 408 274 l 478 344 q 561 288 499 288 q 644 331 611 288 q 686 454 676 375 q 633 409 665 425 q 561 393 601 393 q 439 447 488 393 q 390 586 390 500 q 443 728 390 675 q 576 782 496 782 q 717 708 668 782 q 765 526 765 635 q 710 292 765 379 q 561 206 656 206 m 574 475 q 644 507 615 475 q 672 589 672 539 q 644 669 672 639 q 575 700 617 700 q 504 669 529 700 q 479 586 479 638 q 503 505 479 535 q 574 475 528 475 z "},"⁄":{"ha":833,"x_min":18,"x_max":815,"o":"m 699 986 l 815 986 l 135 0 l 18 0 l 699 986 z "},"½":{"ha":1146,"x_min":68,"x_max":1078,"o":"m 890 986 l 1007 986 l 326 0 l 210 0 l 890 986 m 201 797 l 68 796 l 68 864 l 101 864 q 193 896 161 864 q 225 988 225 928 l 294 988 l 294 449 l 201 449 l 201 797 z "},"⅓":{"ha":1115,"x_min":68,"x_max":1047,"o":"m 810 986 l 926 986 l 246 0 l 129 0 l 810 986 m 201 797 l 68 796 l 68 864 l 101 864 q 193 896 161 864 q 225 988 225 928 l 294 988 l 294 449 l 201 449 l 201 797 z "},"⅔":{"ha":1199,"x_min":68,"x_max":1131,"o":"m 894 986 l 1011 986 l 331 0 l 214 0 l 894 986 m 68 451 q 101 592 68 528 q 228 718 133 656 l 272 747 q 326 797 310 772 q 343 853 343 822 q 321 906 343 886 q 265 926 299 926 q 198 902 222 926 q 164 829 174 878 l 75 833 q 136 961 85 914 q 265 1008 188 1008 q 385 965 339 1008 q 432 853 432 921 q 399 755 432 800 q 303 667 367 710 l 264 640 q 171 533 172 578 l 435 533 l 435 451 l 68 451 z "},"¼":{"ha":1083,"x_min":68,"x_max":1067,"o":"m 856 986 l 972 986 l 292 0 l 175 0 l 856 986 m 201 797 l 68 796 l 68 864 l 101 864 q 193 896 161 864 q 225 988 225 928 l 294 988 l 294 449 l 201 449 l 201 797 z "},"¾":{"ha":1118,"x_min":68,"x_max":1101,"o":"m 911 986 l 1028 986 l 347 0 l 231 0 l 911 986 m 264 429 q 128 474 185 429 q 68 585 72 519 l 157 589 q 190 533 160 556 q 264 511 221 511 q 335 536 307 511 q 364 599 364 561 q 333 669 364 640 q 257 697 303 697 l 222 697 l 222 776 l 257 776 q 318 799 293 776 q 343 850 343 822 q 320 904 343 882 q 263 926 297 926 q 203 910 226 926 q 176 869 179 894 l 88 875 q 147 970 96 932 q 263 1008 197 1008 q 383 967 335 1008 q 432 864 432 925 q 408 789 432 824 q 340 742 383 754 q 421 685 389 726 q 453 593 453 643 q 398 477 453 525 q 264 429 343 429 z "},"⅕":{"ha":1175,"x_min":68,"x_max":1107,"o":"m 836 986 l 953 986 l 272 0 l 156 0 l 836 986 m 201 797 l 68 796 l 68 864 l 101 864 q 193 896 161 864 q 225 988 225 928 l 294 988 l 294 449 l 201 449 l 201 797 z "},"⅛":{"ha":1163,"x_min":68,"x_max":1094,"o":"m 831 986 l 947 986 l 267 0 l 150 0 l 831 986 m 201 797 l 68 796 l 68 864 l 101 864 q 193 896 161 864 q 225 988 225 928 l 294 988 l 294 449 l 201 449 l 201 797 z "},"⅜":{"ha":1200,"x_min":68,"x_max":1132,"o":"m 896 986 l 1013 986 l 332 0 l 215 0 l 896 986 m 264 429 q 128 474 185 429 q 68 585 72 519 l 157 589 q 190 533 160 556 q 264 511 221 511 q 335 536 307 511 q 364 599 364 561 q 333 669 364 640 q 257 697 303 697 l 222 697 l 222 776 l 257 776 q 318 799 293 776 q 343 850 343 822 q 320 904 343 882 q 263 926 297 926 q 203 910 226 926 q 176 869 179 894 l 88 875 q 147 970 96 932 q 263 1008 197 1008 q 383 967 335 1008 q 432 864 432 925 q 408 789 432 824 q 340 742 383 754 q 421 685 389 726 q 453 593 453 643 q 398 477 453 525 q 264 429 343 429 z "},"⅝":{"ha":1185,"x_min":68,"x_max":1117,"o":"m 894 986 l 1011 986 l 331 0 l 214 0 l 894 986 m 256 425 q 126 468 179 425 q 68 579 74 511 l 157 583 q 192 528 164 549 q 258 507 221 507 q 328 538 300 507 q 356 617 356 568 q 328 696 356 664 q 258 728 300 728 q 206 717 228 728 q 163 674 183 707 l 78 674 l 121 988 l 407 988 l 407 906 l 194 906 l 176 767 q 219 797 197 788 q 271 807 242 807 q 395 752 346 807 q 444 617 444 697 q 392 478 444 532 q 256 425 339 425 z "},"⅞":{"ha":1108,"x_min":68,"x_max":1040,"o":"m 813 986 l 929 986 l 249 0 l 132 0 l 813 986 m 181 447 q 224 685 181 569 q 347 904 268 801 l 68 904 l 68 986 l 451 986 l 451 925 q 269 447 269 692 l 181 447 z "},"₀":{"ha":544,"x_min":63,"x_max":482,"o":"m 272 -21 q 119 57 175 -21 q 63 267 63 135 q 119 478 63 400 q 272 557 175 557 q 426 478 369 557 q 482 267 482 400 q 426 57 482 135 q 272 -21 369 -21 m 272 61 q 365 115 332 61 q 397 267 397 169 q 383 375 397 332 l 204 86 q 272 61 232 61 m 340 450 q 272 475 314 475 q 180 421 213 475 q 147 267 147 367 q 161 163 147 204 l 340 450 z "},"₁":{"ha":358,"x_min":42,"x_max":268,"o":"m 175 349 l 42 347 l 42 415 l 75 415 q 167 447 135 415 q 199 539 199 479 l 268 539 l 268 0 l 175 0 l 175 349 z "},"₂":{"ha":492,"x_min":63,"x_max":429,"o":"m 63 0 q 95 140 63 76 q 222 267 128 204 l 267 296 q 321 346 304 321 q 338 401 338 371 q 315 455 338 435 q 260 475 293 475 q 192 451 217 475 q 158 378 168 426 l 69 382 q 131 510 79 463 q 260 557 182 557 q 380 513 333 557 q 426 401 426 469 q 394 303 426 349 q 297 215 361 258 l 258 189 q 165 82 167 126 l 429 82 l 429 0 l 63 0 z "},"₃":{"ha":517,"x_min":63,"x_max":447,"o":"m 258 -22 q 123 23 179 -22 q 63 133 67 68 l 151 138 q 185 82 154 104 q 258 60 215 60 q 330 85 301 60 q 358 147 358 110 q 328 217 358 189 q 251 246 297 246 l 217 246 l 217 325 l 251 325 q 313 348 288 325 q 338 399 338 371 q 315 453 338 431 q 257 475 292 475 q 197 459 221 475 q 171 418 174 443 l 82 424 q 141 519 90 481 q 257 557 192 557 q 378 515 329 557 q 426 413 426 474 q 402 338 426 372 q 335 290 378 303 q 415 233 383 275 q 447 142 447 192 q 392 26 447 74 q 258 -22 338 -22 z "},"₄":{"ha":549,"x_min":72,"x_max":479,"o":"m 329 106 l 72 106 l 72 175 l 347 539 l 418 539 l 418 188 l 479 188 l 479 106 l 418 106 l 418 0 l 329 0 l 329 106 m 329 188 l 329 376 l 188 188 l 329 188 z "},"₅":{"ha":494,"x_min":63,"x_max":439,"o":"m 250 -22 q 121 21 174 -22 q 63 132 68 64 l 151 136 q 187 81 158 101 q 253 60 215 60 q 322 90 294 60 q 350 169 350 121 q 322 249 350 217 q 253 281 294 281 q 200 270 222 281 q 157 226 178 260 l 72 226 l 115 540 l 401 540 l 401 458 l 189 458 l 171 319 q 214 350 192 340 q 265 360 236 360 q 390 305 340 360 q 439 169 439 250 q 386 31 439 85 q 250 -22 333 -22 z "},"₆":{"ha":493,"x_min":63,"x_max":438,"o":"m 251 -22 q 111 51 160 -22 q 63 233 63 125 q 113 462 63 369 q 267 554 164 554 q 372 520 325 554 q 436 424 418 486 l 350 415 q 267 472 329 472 q 183 426 214 472 q 143 307 153 379 q 267 367 189 367 q 389 313 340 367 q 438 174 438 260 q 385 31 438 85 q 251 -22 332 -22 m 253 60 q 324 91 299 60 q 349 174 349 122 q 324 255 349 225 q 254 285 300 285 q 185 253 213 285 q 157 169 157 221 q 183 90 157 121 q 253 60 210 60 z "},"₇":{"ha":460,"x_min":42,"x_max":425,"o":"m 154 -1 q 198 237 154 121 q 321 456 242 353 l 42 456 l 42 538 l 425 538 l 425 476 q 243 -1 243 243 l 154 -1 z "},"₈":{"ha":517,"x_min":63,"x_max":454,"o":"m 258 -22 q 118 22 174 -22 q 63 142 63 67 q 90 232 63 193 q 168 290 118 271 q 89 403 89 324 q 138 511 89 468 q 258 554 188 554 q 379 511 331 554 q 428 403 428 468 q 349 290 428 324 q 426 231 399 269 q 454 142 454 192 q 399 22 454 67 q 258 -22 343 -22 m 258 60 q 336 83 307 60 q 365 147 365 107 q 335 219 365 192 q 258 247 306 247 q 181 219 211 247 q 151 147 151 192 q 181 83 151 107 q 258 60 210 60 m 258 325 q 317 347 294 325 q 339 403 339 368 q 317 453 339 435 q 258 472 294 472 q 200 453 222 472 q 178 403 178 435 q 200 347 178 368 q 258 325 222 325 z "},"₉":{"ha":500,"x_min":63,"x_max":438,"o":"m 233 -22 q 127 12 174 -22 q 63 108 81 46 l 150 117 q 233 60 171 60 q 316 103 283 60 q 358 226 349 147 q 306 181 338 197 q 233 165 274 165 q 111 219 160 165 q 63 358 63 272 q 115 501 63 447 q 249 554 168 554 q 389 481 340 554 q 438 299 438 407 q 383 65 438 151 q 233 -22 328 -22 m 246 247 q 316 279 288 247 q 344 361 344 311 q 317 442 344 411 q 247 472 289 472 q 176 441 201 472 q 151 358 151 410 q 176 277 151 307 q 246 247 200 247 z "},"⁰":{"ha":544,"x_min":63,"x_max":482,"o":"m 272 431 q 119 508 175 431 q 63 718 63 586 q 119 930 63 851 q 272 1008 175 1008 q 426 930 369 1008 q 482 718 482 851 q 426 508 482 586 q 272 431 369 431 m 272 513 q 365 567 332 513 q 397 718 397 621 q 383 826 397 783 l 204 538 q 272 513 232 513 m 340 901 q 272 926 314 926 q 180 872 213 926 q 147 718 147 818 q 161 614 147 656 l 340 901 z "},"¹":{"ha":358,"x_min":42,"x_max":268,"o":"m 175 797 l 42 796 l 42 864 l 75 864 q 167 896 135 864 q 199 988 199 928 l 268 988 l 268 449 l 175 449 l 175 797 z "},"²":{"ha":492,"x_min":63,"x_max":429,"o":"m 63 451 q 95 592 63 528 q 222 718 128 656 l 267 747 q 321 797 304 772 q 338 853 338 822 q 315 906 338 886 q 260 926 293 926 q 192 902 217 926 q 158 829 168 878 l 69 833 q 131 961 79 914 q 260 1008 182 1008 q 380 965 333 1008 q 426 853 426 921 q 394 755 426 800 q 297 667 361 710 l 258 640 q 165 533 167 578 l 429 533 l 429 451 l 63 451 z "},"³":{"ha":517,"x_min":63,"x_max":447,"o":"m 258 429 q 123 474 179 429 q 63 585 67 519 l 151 589 q 185 533 154 556 q 258 511 215 511 q 330 536 301 511 q 358 599 358 561 q 328 669 358 640 q 251 697 297 697 l 217 697 l 217 776 l 251 776 q 313 799 288 776 q 338 850 338 822 q 315 904 338 882 q 257 926 292 926 q 197 910 221 926 q 171 869 174 894 l 82 875 q 141 970 90 932 q 257 1008 192 1008 q 378 967 329 1008 q 426 864 426 925 q 402 789 426 824 q 335 742 378 754 q 415 685 383 726 q 447 593 447 643 q 392 477 447 525 q 258 429 338 429 z "},"⁴":{"ha":549,"x_min":72,"x_max":479,"o":"m 329 554 l 72 554 l 72 624 l 347 988 l 418 988 l 418 636 l 479 636 l 479 554 l 418 554 l 418 449 l 329 449 l 329 554 m 329 636 l 329 825 l 188 636 l 329 636 z "},"⁵":{"ha":494,"x_min":63,"x_max":439,"o":"m 250 425 q 121 468 174 425 q 63 579 68 511 l 151 583 q 187 528 158 549 q 253 507 215 507 q 322 538 294 507 q 350 617 350 568 q 322 696 350 664 q 253 728 294 728 q 200 717 222 728 q 157 674 178 707 l 72 674 l 115 988 l 401 988 l 401 906 l 189 906 l 171 767 q 214 797 192 788 q 265 807 236 807 q 390 752 340 807 q 439 617 439 697 q 386 478 439 532 q 250 425 333 425 z "},"⁶":{"ha":493,"x_min":63,"x_max":438,"o":"m 251 432 q 111 506 160 432 q 63 688 63 579 q 113 916 63 824 q 267 1008 164 1008 q 372 974 325 1008 q 436 878 418 940 l 350 869 q 267 926 329 926 q 183 880 214 926 q 143 761 153 833 q 267 821 189 821 q 389 767 340 821 q 438 628 438 714 q 385 485 438 539 q 251 432 332 432 m 253 514 q 324 545 299 514 q 349 628 349 576 q 324 709 349 679 q 254 739 300 739 q 185 707 213 739 q 157 624 157 675 q 183 544 157 575 q 253 514 210 514 z "},"⁷":{"ha":460,"x_min":42,"x_max":425,"o":"m 154 447 q 198 685 154 569 q 321 904 242 801 l 42 904 l 42 986 l 425 986 l 425 925 q 243 447 243 692 l 154 447 z "},"⁸":{"ha":517,"x_min":63,"x_max":454,"o":"m 258 432 q 118 476 174 432 q 63 596 63 521 q 90 686 63 647 q 168 744 118 725 q 89 857 89 778 q 138 965 89 922 q 258 1008 188 1008 q 379 965 331 1008 q 428 857 428 922 q 349 744 428 778 q 426 685 399 724 q 454 596 454 646 q 399 476 454 521 q 258 432 343 432 m 258 514 q 336 538 307 514 q 365 601 365 561 q 335 674 365 646 q 258 701 306 701 q 181 674 211 701 q 151 601 151 646 q 181 538 151 561 q 258 514 210 514 m 258 779 q 317 801 294 779 q 339 857 339 822 q 317 908 339 889 q 258 926 294 926 q 200 908 222 926 q 178 857 178 889 q 200 801 178 822 q 258 779 222 779 z "},"⁹":{"ha":500,"x_min":63,"x_max":438,"o":"m 233 432 q 127 466 174 432 q 63 563 81 500 l 150 571 q 233 514 171 514 q 316 558 283 514 q 358 681 349 601 q 306 635 338 651 q 233 619 274 619 q 111 673 160 619 q 63 813 63 726 q 115 955 63 901 q 249 1008 168 1008 q 389 935 340 1008 q 438 753 438 861 q 383 519 438 606 q 233 432 328 432 m 246 701 q 316 733 288 701 q 344 815 344 765 q 317 896 344 865 q 247 926 289 926 q 176 895 201 926 q 151 813 151 864 q 176 731 151 761 q 246 701 200 701 z "}," ":{"ha":347,"x_min":0,"x_max":0,"o":""},".":{"ha":288,"x_min":65,"x_max":222,"o":"m 65 157 l 222 157 l 222 0 l 65 0 l 65 157 z "},",":{"ha":288,"x_min":65,"x_max":222,"o":"m 136 0 l 65 0 l 65 157 l 222 157 l 222 19 l 139 -217 l 69 -217 l 136 0 z "},":":{"ha":413,"x_min":128,"x_max":285,"o":"m 128 157 l 285 157 l 285 0 l 128 0 l 128 157 m 128 703 l 285 703 l 285 546 l 128 546 l 128 703 z "},";":{"ha":413,"x_min":128,"x_max":285,"o":"m 128 703 l 285 703 l 285 546 l 128 546 l 128 703 m 199 0 l 128 0 l 128 157 l 285 157 l 285 19 l 201 -217 l 132 -217 l 199 0 z "},"…":{"ha":801,"x_min":65,"x_max":736,"o":"m 65 157 l 222 157 l 222 0 l 65 0 l 65 157 m 322 157 l 479 157 l 479 0 l 322 0 l 322 157 m 579 157 l 736 157 l 736 0 l 579 0 l 579 157 z "},"!":{"ha":307,"x_min":75,"x_max":232,"o":"m 117 285 q 94 667 94 544 l 94 986 l 214 986 l 214 667 q 193 285 214 528 l 117 285 m 75 157 l 232 157 l 232 0 l 75 0 l 75 157 z "},"¡":{"ha":307,"x_min":75,"x_max":232,"o":"m 193 476 q 214 94 214 233 l 214 -225 l 94 -225 l 94 94 q 117 476 94 217 l 193 476 m 232 761 l 232 604 l 75 604 l 75 761 l 232 761 z "},"?":{"ha":785,"x_min":65,"x_max":719,"o":"m 329 279 q 360 437 329 378 q 464 542 392 496 q 547 601 519 576 q 584 654 574 626 q 594 725 594 682 q 546 845 594 799 q 414 892 497 892 q 190 686 211 892 l 65 694 q 118 858 74 786 q 238 969 163 929 q 414 1008 314 1008 q 572 972 503 1008 q 681 872 642 936 q 719 725 719 807 q 679 586 719 642 q 544 469 639 531 q 469 393 489 433 q 449 279 449 353 l 329 279 m 311 157 l 468 157 l 468 0 l 311 0 l 311 157 z "},"¿":{"ha":785,"x_min":65,"x_max":719,"o":"m 456 504 q 424 347 456 406 q 321 242 393 288 q 238 182 265 207 q 201 129 211 157 q 190 58 190 101 q 239 -62 190 -15 q 371 -108 288 -108 q 594 97 574 -108 l 719 89 q 667 -74 711 -3 q 547 -185 622 -146 q 371 -225 471 -225 q 213 -189 282 -225 q 104 -88 143 -153 q 65 58 65 -24 q 106 197 65 142 q 240 314 146 253 q 316 390 296 350 q 336 504 336 431 l 456 504 m 474 626 l 317 626 l 317 783 l 474 783 l 474 626 z "},"·":{"ha":288,"x_min":65,"x_max":222,"o":"m 65 501 l 222 501 l 222 344 l 65 344 l 65 501 z "},"•":{"ha":408,"x_min":65,"x_max":343,"o":"m 204 288 q 106 326 146 288 q 65 422 65 364 q 105 520 65 482 q 204 558 144 558 q 304 520 265 558 q 343 422 343 482 q 303 326 343 364 q 204 288 264 288 z "},"*":{"ha":606,"x_min":65,"x_max":540,"o":"m 139 578 l 232 719 l 65 719 l 65 808 l 232 808 l 139 950 l 211 997 l 303 849 l 396 997 l 468 950 l 374 808 l 540 808 l 540 719 l 374 719 l 468 578 l 396 531 l 303 678 l 211 531 l 139 578 z "},"〃":{"ha":517,"x_min":65,"x_max":451,"o":"m 153 668 l 282 668 l 156 390 l 65 390 l 153 668 m 324 668 l 451 668 l 326 390 l 236 390 l 324 668 z "},"#":{"ha":664,"x_min":-14,"x_max":671,"o":"m 376 274 l 201 274 l 150 0 l 50 0 l 101 274 l -14 274 l 3 371 l 119 371 l 164 611 l 42 611 l 58 708 l 182 708 l 233 986 l 333 986 l 282 708 l 457 708 l 508 986 l 608 986 l 557 708 l 671 708 l 654 611 l 539 611 l 494 371 l 615 371 l 599 274 l 476 274 l 425 0 l 325 0 l 376 274 m 394 371 l 439 611 l 264 611 l 219 371 l 394 371 z "},"/":{"ha":667,"x_min":56,"x_max":576,"o":"m 465 1042 l 576 1042 l 167 -153 l 56 -153 l 465 1042 z "},"\\":{"ha":663,"x_min":72,"x_max":593,"o":"m 482 -153 l 72 1042 l 183 1042 l 593 -153 l 482 -153 z "},"-":{"ha":590,"x_min":65,"x_max":525,"o":"m 65 460 l 525 460 l 525 350 l 65 350 l 65 460 z "},"–":{"ha":829,"x_min":65,"x_max":764,"o":"m 65 460 l 764 460 l 764 351 l 65 351 l 65 460 z "},"—":{"ha":1268,"x_min":65,"x_max":1203,"o":"m 65 460 l 1203 460 l 1203 351 l 65 351 l 65 460 z "},"_":{"ha":782,"x_min":65,"x_max":717,"o":"m 65 0 l 717 0 l 717 -108 l 65 -108 l 65 0 z "},"〜":{"ha":1189,"x_min":65,"x_max":1124,"o":"m 817 326 q 727 341 771 326 q 568 414 683 356 q 470 451 522 438 q 378 465 418 465 q 251 435 308 465 q 132 339 193 406 l 65 433 q 226 551 158 518 q 376 585 294 585 q 474 571 419 585 q 572 535 529 557 q 695 474 657 492 q 758 451 733 457 q 817 446 782 446 q 933 471 881 446 q 1056 561 985 496 l 1124 471 q 817 326 972 326 z "},"(":{"ha":403,"x_min":68,"x_max":365,"o":"m 261 -153 q 68 444 68 138 q 261 1042 68 753 l 365 1042 q 189 444 189 742 q 365 -153 189 150 l 261 -153 z "},")":{"ha":403,"x_min":38,"x_max":335,"o":"m 38 -153 q 214 444 214 146 q 38 1042 214 744 l 142 1042 q 335 444 335 756 q 142 -153 335 133 l 38 -153 z "},"{":{"ha":563,"x_min":68,"x_max":525,"o":"m 461 -160 q 332 -129 389 -160 q 243 -44 275 -99 q 211 79 211 10 l 211 194 q 171 333 211 279 q 68 383 131 386 l 68 499 q 171 549 131 496 q 211 688 211 603 l 211 803 q 243 926 211 872 q 332 1011 275 981 q 461 1042 389 1042 l 525 1042 l 525 933 q 369 908 415 938 q 322 806 322 879 l 322 678 q 275 522 322 585 q 153 443 228 458 l 153 442 q 276 363 229 426 q 322 204 322 299 l 322 76 q 369 -25 322 4 q 525 -51 415 -54 l 525 -160 l 461 -160 z "},"}":{"ha":563,"x_min":38,"x_max":494,"o":"m 38 -160 l 38 -51 q 194 -25 147 -54 q 240 76 240 4 l 240 204 q 287 363 240 299 q 410 442 333 426 l 410 443 q 288 522 335 458 q 240 678 240 585 l 240 806 q 194 908 240 879 q 38 933 147 938 l 38 1042 l 101 1042 q 231 1011 174 1042 q 319 926 288 981 q 351 803 351 872 l 351 688 q 392 549 351 603 q 494 499 432 496 l 494 383 q 392 333 432 386 q 351 194 351 279 l 351 79 q 319 -44 351 10 q 231 -129 288 -99 q 101 -160 174 -160 l 38 -160 z "},"[":{"ha":499,"x_min":128,"x_max":461,"o":"m 128 -153 l 128 1042 l 461 1042 l 461 936 l 239 936 l 239 -47 l 461 -47 l 461 -153 l 128 -153 z "},"]":{"ha":499,"x_min":38,"x_max":371,"o":"m 38 -47 l 260 -47 l 260 936 l 38 936 l 38 1042 l 371 1042 l 371 -153 l 38 -153 l 38 -47 z "},"〈":{"ha":497,"x_min":65,"x_max":432,"o":"m 65 492 l 319 1140 l 432 1140 l 178 492 l 432 -158 l 319 -158 l 65 492 z "},"〉":{"ha":497,"x_min":65,"x_max":432,"o":"m 65 -158 l 319 492 l 65 1140 l 178 1140 l 432 492 l 178 -158 l 65 -158 z "},"【":{"ha":511,"x_min":65,"x_max":446,"o":"m 65 -87 l 65 1146 l 446 1146 q 258 529 258 849 q 446 -87 258 213 l 65 -87 z "},"】":{"ha":511,"x_min":65,"x_max":446,"o":"m 65 -87 q 253 529 253 213 q 65 1146 253 849 l 446 1146 l 446 -87 l 65 -87 z "},"「":{"ha":550,"x_min":65,"x_max":485,"o":"m 65 1147 l 485 1147 l 485 1039 l 176 1039 l 176 326 l 65 326 l 65 1147 z "},"」":{"ha":550,"x_min":65,"x_max":485,"o":"m 485 -143 l 65 -143 l 65 -35 l 374 -35 l 374 678 l 485 678 l 485 -143 z "},"《":{"ha":729,"x_min":65,"x_max":664,"o":"m 65 492 l 319 1140 l 432 1140 l 178 492 l 432 -158 l 319 -158 l 65 492 m 297 492 l 551 1140 l 664 1140 l 410 492 l 664 -158 l 551 -158 l 297 492 z "},"》":{"ha":729,"x_min":65,"x_max":664,"o":"m 297 -158 l 551 492 l 297 1140 l 410 1140 l 664 492 l 410 -158 l 297 -158 m 65 -158 l 319 492 l 65 1140 l 178 1140 l 432 492 l 178 -158 l 65 -158 z "},"〔":{"ha":551,"x_min":65,"x_max":486,"o":"m 65 111 l 65 871 l 411 1181 l 483 1101 l 176 826 l 176 156 l 486 -124 l 414 -203 l 65 111 z "},"〕":{"ha":551,"x_min":65,"x_max":486,"o":"m 65 -124 l 375 156 l 375 826 l 68 1101 l 140 1181 l 486 871 l 486 111 l 138 -203 l 65 -124 z "},"『":{"ha":551,"x_min":65,"x_max":486,"o":"m 65 1147 l 486 1147 l 486 925 l 288 925 l 288 324 l 65 324 l 65 1147 m 232 379 l 232 981 l 431 981 l 431 1092 l 121 1092 l 121 379 l 232 379 z "},"』":{"ha":551,"x_min":65,"x_max":486,"o":"m 486 -143 l 65 -143 l 65 79 l 264 79 l 264 681 l 486 681 l 486 -143 m 319 625 l 319 24 l 121 24 l 121 -87 l 431 -87 l 431 625 l 319 625 z "},"〖":{"ha":499,"x_min":65,"x_max":433,"o":"m 65 -87 l 65 1146 l 433 1146 q 246 529 246 849 q 433 -87 246 213 l 65 -87 m 335 -32 q 190 529 190 250 q 335 1090 190 810 l 121 1090 l 121 -32 l 335 -32 z "},"〗":{"ha":499,"x_min":65,"x_max":433,"o":"m 65 -87 q 253 529 253 213 q 65 1146 253 849 l 433 1146 l 433 -87 l 65 -87 m 378 -32 l 378 1090 l 164 1090 q 308 529 308 814 q 164 -32 308 247 l 378 -32 z "},"‚":{"ha":293,"x_min":68,"x_max":225,"o":"m 139 0 l 68 0 l 68 157 l 225 157 l 225 19 l 142 -217 l 72 -217 l 139 0 z "},"„":{"ha":522,"x_min":68,"x_max":454,"o":"m 368 0 l 297 0 l 297 157 l 454 157 l 454 19 l 371 -217 l 301 -217 l 368 0 m 139 0 l 68 0 l 68 157 l 225 157 l 225 19 l 142 -217 l 72 -217 l 139 0 z "},"“":{"ha":522,"x_min":68,"x_max":454,"o":"m 154 792 l 225 792 l 225 635 l 68 635 l 68 772 l 151 1008 l 221 1008 l 154 792 m 383 792 l 454 792 l 454 635 l 297 635 l 297 772 l 381 1008 l 450 1008 l 383 792 z "},"”":{"ha":522,"x_min":68,"x_max":454,"o":"m 368 835 l 297 835 l 297 992 l 454 992 l 454 854 l 371 618 l 301 618 l 368 835 m 139 835 l 68 835 l 68 992 l 225 992 l 225 854 l 142 618 l 72 618 l 139 835 z "},"‘":{"ha":293,"x_min":68,"x_max":225,"o":"m 154 792 l 225 792 l 225 635 l 68 635 l 68 772 l 151 1008 l 221 1008 l 154 792 z "},"’":{"ha":293,"x_min":68,"x_max":225,"o":"m 139 836 l 68 836 l 68 993 l 225 993 l 225 856 l 142 619 l 72 619 l 139 836 z "},"«":{"ha":746,"x_min":65,"x_max":681,"o":"m 257 106 l 65 332 l 65 435 l 257 661 l 400 661 l 164 383 l 400 106 l 257 106 m 538 106 l 346 332 l 346 435 l 538 661 l 681 661 l 444 383 l 681 106 l 538 106 z "},"»":{"ha":746,"x_min":65,"x_max":681,"o":"m 582 383 l 346 661 l 489 661 l 681 435 l 681 332 l 489 106 l 346 106 l 582 383 m 301 383 l 65 661 l 208 661 l 400 435 l 400 332 l 208 106 l 65 106 l 301 383 z "},"‹":{"ha":465,"x_min":65,"x_max":400,"o":"m 257 106 l 65 332 l 65 435 l 257 661 l 400 661 l 164 383 l 400 106 l 257 106 z "},"›":{"ha":465,"x_min":65,"x_max":400,"o":"m 301 383 l 65 661 l 208 661 l 400 435 l 400 332 l 208 106 l 65 106 l 301 383 z "},"\"":{"ha":494,"x_min":68,"x_max":426,"o":"m 68 875 l 68 986 l 190 986 l 185 622 l 101 622 l 68 875 m 304 986 l 426 986 l 426 875 l 394 622 l 310 622 l 304 986 z "},"'":{"ha":258,"x_min":68,"x_max":190,"o":"m 68 881 l 68 986 l 190 986 l 190 881 l 172 622 l 88 622 l 68 881 z "},"ƒ":{"ha":714,"x_min":83,"x_max":656,"o":"m 83 103 l 172 103 q 258 179 250 103 l 308 633 l 199 633 l 199 736 l 319 736 l 326 800 q 535 986 347 988 l 656 985 l 656 883 l 525 883 q 466 863 488 883 q 440 806 444 843 l 432 736 l 656 736 l 656 633 l 421 633 l 371 185 q 308 44 360 92 q 161 -1 256 -3 l 83 0 l 83 103 z "},"฿":{"ha":889,"x_min":128,"x_max":803,"o":"m 128 986 l 365 986 l 365 1118 l 469 1118 l 469 983 q 685 902 610 972 q 761 713 761 832 q 713 580 761 635 q 586 510 665 525 q 745 436 688 497 q 803 279 803 375 q 713 76 803 151 q 469 0 624 0 l 469 -126 l 365 -126 l 365 0 l 128 0 l 128 986 m 365 117 l 365 443 l 247 443 l 247 117 l 365 117 m 365 560 l 365 869 l 247 869 l 247 560 l 365 560 m 469 117 q 622 160 565 117 q 678 279 678 203 q 623 400 678 357 q 469 443 568 443 l 469 117 m 469 563 q 594 611 551 574 q 636 713 636 649 q 593 817 636 778 q 469 867 550 857 l 469 563 z "},"☹":{"ha":1156,"x_min":65,"x_max":1090,"o":"m 301 282 q 402 452 326 389 q 582 515 478 515 q 762 452 686 515 q 863 282 838 389 l 763 282 q 692 385 739 349 q 582 421 644 421 q 472 385 519 421 q 401 282 425 349 l 301 282 m 578 -17 q 321 52 439 -17 q 134 239 203 121 q 65 497 65 357 q 134 753 65 636 q 321 940 203 871 q 578 1008 439 1008 q 835 940 717 1008 q 1022 753 953 871 q 1090 497 1090 636 q 1022 239 1090 357 q 835 52 953 121 q 578 -17 717 -17 m 578 86 q 785 141 692 86 q 934 290 879 196 q 989 497 989 383 q 934 704 989 610 q 785 853 879 799 q 578 907 692 907 q 370 853 464 907 q 222 704 276 799 q 168 497 168 610 q 222 290 168 383 q 370 141 276 196 q 578 86 464 86 m 442 576 q 392 597 413 576 q 372 646 372 617 q 392 693 372 674 q 442 713 413 713 q 490 693 469 713 q 510 646 510 674 q 490 597 510 617 q 442 576 469 576 m 725 576 q 676 597 696 576 q 656 646 656 617 q 676 693 656 674 q 725 713 696 713 q 773 693 753 713 q 793 646 793 674 q 773 597 793 617 q 725 576 753 576 z "},"☺":{"ha":1156,"x_min":65,"x_max":1090,"o":"m 582 226 q 442 260 507 226 q 335 353 378 293 q 283 486 293 413 l 379 486 q 452 366 396 413 q 582 319 508 319 q 712 366 656 319 q 785 486 768 413 l 882 486 q 828 353 871 413 q 722 260 786 293 q 582 226 657 226 m 578 -17 q 321 52 439 -17 q 134 239 203 121 q 65 497 65 357 q 134 753 65 636 q 321 940 203 871 q 578 1008 439 1008 q 835 940 717 1008 q 1022 753 953 871 q 1090 497 1090 636 q 1022 239 1090 357 q 835 52 953 121 q 578 -17 717 -17 m 578 86 q 785 141 692 86 q 934 290 879 196 q 989 497 989 383 q 934 704 989 610 q 785 853 879 799 q 578 907 692 907 q 370 853 464 907 q 222 704 276 799 q 168 497 168 610 q 222 290 168 383 q 370 141 276 196 q 578 86 464 86 m 442 576 q 392 597 413 576 q 372 646 372 617 q 392 693 372 674 q 442 713 413 713 q 490 693 469 713 q 510 646 510 674 q 490 597 510 617 q 442 576 469 576 m 725 576 q 676 597 696 576 q 656 646 656 617 q 676 693 656 674 q 725 713 696 713 q 773 693 753 713 q 793 646 793 674 q 773 597 793 617 q 725 576 753 576 z "},"":{"ha":833,"x_min":11,"x_max":822,"o":"m 146 0 q 49 38 88 0 q 11 135 11 76 l 11 676 q 49 773 11 735 q 146 811 88 811 l 688 811 q 784 773 746 811 q 822 676 822 735 l 822 135 q 784 38 822 76 q 688 0 746 0 l 146 0 m 713 172 l 415 688 l 119 172 l 713 172 z "},"@":{"ha":1269,"x_min":68,"x_max":1201,"o":"m 883 -81 q 575 -139 746 -139 q 311 -84 425 -139 q 133 80 197 -29 q 68 347 68 189 q 149 683 68 538 q 369 907 229 828 q 685 986 510 986 q 958 919 840 986 q 1138 737 1075 853 q 1201 476 1201 621 q 1164 272 1201 354 q 1068 152 1126 190 q 947 114 1010 114 q 846 144 888 114 q 794 228 804 174 q 698 144 760 176 q 569 111 636 111 q 389 183 453 111 q 325 361 325 254 q 363 530 325 454 q 469 650 401 606 q 625 694 538 694 q 735 671 688 694 q 806 606 783 647 l 813 681 l 914 681 l 889 361 q 886 279 886 336 q 903 226 886 247 q 958 206 921 206 q 1026 233 993 206 q 1080 322 1058 261 q 1101 472 1101 382 q 1053 691 1101 597 q 910 837 1006 785 q 681 889 815 889 q 412 821 528 889 q 232 630 296 753 q 168 350 168 507 q 277 60 168 161 q 578 -42 386 -42 q 860 14 733 -42 l 883 -81 m 597 197 q 708 231 663 197 q 775 319 753 265 q 797 432 797 372 q 758 560 797 511 q 636 608 718 608 q 531 576 576 608 q 463 491 486 544 q 439 375 439 438 q 477 247 439 297 q 597 197 515 197 z "},"&":{"ha":861,"x_min":56,"x_max":833,"o":"m 361 -22 q 137 47 218 -22 q 56 242 56 115 q 98 403 56 336 q 250 547 140 469 q 174 667 197 615 q 150 781 150 719 q 215 947 150 886 q 392 1008 279 1008 q 562 952 501 1008 q 622 797 622 896 q 576 656 622 718 q 417 518 529 593 l 642 231 q 692 442 692 300 l 808 431 q 782 271 807 349 q 715 143 757 193 l 833 0 l 693 0 l 642 63 q 529 0 600 22 q 361 -22 458 -22 m 375 89 q 491 105 443 89 q 564 147 539 121 l 319 456 q 213 354 244 403 q 181 242 181 306 q 228 129 181 169 q 375 89 276 89 m 353 603 q 465 694 432 651 q 497 789 497 736 q 469 865 497 839 q 392 892 442 892 q 306 863 336 892 q 275 781 275 833 q 292 698 275 738 q 353 603 310 658 z "},"¶":{"ha":818,"x_min":49,"x_max":690,"o":"m 386 425 q 140 501 231 425 q 49 706 49 576 q 140 910 49 835 q 386 986 231 986 l 690 986 l 690 0 l 586 0 l 586 881 l 490 881 l 490 0 l 386 0 l 386 425 z "},"§":{"ha":774,"x_min":82,"x_max":692,"o":"m 400 -151 q 247 -119 318 -151 q 133 -31 176 -87 q 82 97 89 25 l 203 106 q 267 -1 213 39 q 400 -40 321 -40 q 520 -12 475 -40 q 565 63 565 15 q 523 135 565 106 q 382 190 481 165 q 168 272 231 225 q 106 399 106 319 q 236 576 106 521 q 110 728 110 631 q 190 888 110 831 q 393 946 271 946 q 521 917 456 946 q 633 835 586 889 q 690 710 681 782 l 571 701 q 510 799 560 764 q 381 835 461 835 q 274 808 317 835 q 232 738 232 781 q 247 689 232 708 q 300 653 263 669 q 407 618 338 636 q 578 561 517 592 q 665 488 639 531 q 692 381 692 446 q 575 229 692 275 q 663 156 638 199 q 688 53 688 113 q 647 -58 688 -12 q 540 -128 606 -104 q 400 -151 474 -151 m 403 292 q 524 318 478 292 q 569 390 569 344 q 508 477 569 449 q 376 506 447 506 q 270 478 313 506 q 228 410 228 451 q 403 292 228 311 z "},"©":{"ha":1161,"x_min":68,"x_max":1093,"o":"m 581 -17 q 324 52 442 -17 q 137 239 206 121 q 68 496 68 357 q 137 753 68 635 q 324 940 206 871 q 581 1008 442 1008 q 838 940 719 1008 q 1024 753 956 871 q 1093 496 1093 635 q 1024 239 1093 357 q 838 52 956 121 q 581 -17 719 -17 m 581 99 q 778 152 688 99 q 923 297 869 206 q 976 496 976 389 q 923 694 976 603 q 778 840 869 786 q 581 893 688 893 q 383 840 474 893 q 238 694 292 786 q 185 496 185 603 q 238 297 185 389 q 383 152 292 206 q 581 99 474 99 m 586 200 q 440 238 504 200 q 340 342 376 275 q 304 496 304 410 q 340 647 304 581 q 440 751 376 714 q 586 789 504 789 q 760 729 689 789 q 840 575 831 669 l 732 568 q 683 655 724 621 q 586 689 642 689 q 461 635 510 689 q 413 496 413 581 q 461 355 413 410 q 586 300 510 300 q 687 338 644 300 q 738 433 729 375 l 846 426 q 763 264 835 328 q 586 200 690 200 z "},"®":{"ha":836,"x_min":68,"x_max":768,"o":"m 418 306 q 242 353 322 306 q 115 481 163 400 q 68 658 68 563 q 115 833 68 753 q 242 961 163 914 q 418 1008 322 1008 q 594 961 514 1008 q 721 833 674 914 q 768 658 768 753 q 721 481 768 563 q 594 353 674 400 q 418 306 514 306 m 418 385 q 554 422 492 385 q 653 522 617 458 q 690 658 690 585 q 653 794 690 732 q 554 892 617 856 q 418 929 492 929 q 282 892 344 929 q 183 794 219 856 q 146 658 146 732 q 183 522 146 585 q 282 422 219 458 q 418 385 344 385 m 279 846 l 406 846 q 522 815 479 846 q 564 728 564 783 q 542 660 564 688 q 481 622 519 632 l 579 465 l 499 465 l 410 613 l 350 613 l 350 465 l 279 465 l 279 846 m 417 672 q 474 688 454 672 q 494 731 494 703 q 474 771 494 757 q 417 785 454 785 l 350 785 l 350 672 l 417 672 z "},"℗":{"ha":836,"x_min":68,"x_max":768,"o":"m 418 306 q 242 353 322 306 q 115 481 163 400 q 68 658 68 563 q 115 833 68 753 q 242 961 163 914 q 418 1008 322 1008 q 594 961 514 1008 q 721 833 674 914 q 768 658 768 753 q 721 481 768 563 q 594 353 674 400 q 418 306 514 306 m 418 385 q 554 422 492 385 q 653 522 617 458 q 690 658 690 585 q 653 794 690 732 q 554 892 617 856 q 418 929 492 929 q 282 892 344 929 q 183 794 219 856 q 146 658 146 732 q 183 522 146 585 q 282 422 219 458 q 418 385 344 385 m 300 846 l 426 846 q 542 814 499 846 q 585 728 585 782 q 544 642 585 672 q 429 613 504 613 l 371 613 l 371 465 l 300 465 l 300 846 m 438 672 q 495 688 475 672 q 515 731 515 703 q 495 771 515 757 q 438 785 475 785 l 371 785 l 371 672 l 438 672 z "},"™":{"ha":1236,"x_min":128,"x_max":1108,"o":"m 671 835 l 671 499 l 589 499 l 589 986 l 701 986 l 849 583 l 997 986 l 1108 986 l 1108 499 l 1026 499 l 1026 835 l 900 499 l 797 499 l 671 835 m 283 908 l 128 908 l 128 986 l 519 986 l 519 908 l 365 908 l 365 499 l 283 499 l 283 908 z "},"°":{"ha":547,"x_min":65,"x_max":482,"o":"m 274 542 q 170 570 218 542 q 94 647 122 599 q 65 750 65 694 q 94 853 65 806 q 170 930 122 901 q 274 958 218 958 q 377 930 329 958 q 453 853 425 901 q 482 750 482 806 q 453 647 482 694 q 377 570 425 599 q 274 542 329 542 m 274 643 q 348 674 317 643 q 379 750 379 706 q 348 826 379 794 q 274 857 317 857 q 199 826 231 857 q 168 750 168 794 q 199 674 168 706 q 274 643 231 643 z "},"′":{"ha":347,"x_min":65,"x_max":288,"o":"z "},"″":{"ha":528,"x_min":68,"x_max":460,"o":"z "},"|":{"ha":365,"x_min":128,"x_max":238,"o":"m 128 986 l 238 986 l 238 -208 l 128 -208 l 128 986 z "},"¦":{"ha":365,"x_min":128,"x_max":238,"o":"m 128 986 l 238 986 l 238 493 l 128 493 l 128 986 m 128 285 l 238 285 l 238 -208 l 128 -208 l 128 285 z "},"†":{"ha":792,"x_min":128,"x_max":664,"o":"m 342 633 l 128 633 l 128 736 l 342 736 l 342 986 l 451 986 l 451 736 l 664 736 l 664 633 l 451 633 l 451 0 l 342 0 l 342 633 z "},"‡":{"ha":792,"x_min":128,"x_max":664,"o":"m 342 19 l 128 19 l 128 124 l 342 124 l 342 633 l 128 633 l 128 736 l 342 736 l 342 986 l 451 986 l 451 736 l 664 736 l 664 633 l 451 633 l 451 124 l 664 124 l 664 19 l 451 19 l 451 -208 l 342 -208 l 342 19 z "},"№":{"ha":1514,"x_min":128,"x_max":1386,"o":"m 1186 196 q 1040 261 1094 196 q 986 436 986 326 q 1040 610 986 546 q 1186 675 1094 675 q 1333 611 1279 675 q 1386 436 1386 547 q 1333 260 1386 325 q 1186 196 1279 196 m 128 986 l 297 986 l 785 119 l 785 986 l 904 986 l 904 0 l 726 0 l 247 850 l 247 0 l 128 0 l 128 986 m 1007 108 l 1365 108 l 1365 0 l 1007 0 l 1007 108 m 1186 301 q 1258 336 1233 301 q 1283 436 1283 371 q 1258 535 1283 500 q 1186 569 1233 569 q 1116 535 1140 569 q 1092 436 1092 501 q 1116 336 1092 371 q 1186 301 1140 301 z "},"␌":{"ha":833,"x_min":110,"x_max":744,"o":"m 461 557 l 744 557 l 744 489 l 531 489 l 531 357 l 732 357 l 732 289 l 531 289 l 531 99 l 461 99 l 461 557 m 110 875 l 393 875 l 393 807 l 181 807 l 181 675 l 381 675 l 381 607 l 181 607 l 181 417 l 110 417 l 110 875 z "},"⏎":{"ha":1189,"x_min":68,"x_max":1121,"o":"m 68 419 l 581 932 l 581 626 l 707 626 l 707 986 l 1121 986 l 1121 213 l 581 213 l 581 -94 l 68 419 m 471 322 l 1013 322 l 1013 878 l 817 878 l 817 517 l 471 517 l 471 675 l 215 419 l 471 163 l 471 322 z "},"␋":{"ha":833,"x_min":72,"x_max":761,"o":"m 72 875 l 146 875 l 250 521 l 354 875 l 428 875 l 288 417 l 213 417 l 72 875 m 558 489 l 426 489 l 426 557 l 761 557 l 761 489 l 629 489 l 629 99 l 558 99 l 558 489 z "},"¢":{"ha":767,"x_min":65,"x_max":715,"o":"m 303 -3 q 128 126 192 29 q 65 368 65 224 q 147 635 65 532 q 368 751 229 739 l 379 874 l 483 874 l 472 747 q 636 666 572 731 q 715 497 700 601 l 593 489 q 549 583 583 546 q 463 635 515 621 l 415 94 q 535 140 488 97 q 593 261 582 183 l 715 253 q 613 58 696 131 q 406 -17 531 -15 l 396 -126 l 292 -126 l 303 -3 m 188 368 q 219 206 188 272 q 313 113 251 140 l 358 638 q 233 553 278 624 q 188 368 188 482 z "},"¤":{"ha":814,"x_min":68,"x_max":746,"o":"m 407 135 q 250 183 324 135 l 142 75 l 68 147 l 178 257 q 129 413 129 328 q 178 569 129 499 l 68 679 l 142 751 l 251 643 q 407 690 324 690 q 563 643 490 690 l 672 751 l 746 679 l 636 569 q 685 413 685 499 q 636 257 685 328 l 746 147 l 672 75 l 564 183 q 407 135 492 135 m 407 236 q 494 260 454 236 q 559 324 535 283 q 583 413 583 365 q 559 501 583 460 q 494 565 535 542 q 407 589 454 589 q 319 565 360 589 q 253 501 278 542 q 229 413 229 460 q 253 324 229 365 q 319 260 278 283 q 407 236 360 236 z "},"$":{"ha":900,"x_min":82,"x_max":818,"o":"m 410 -18 q 181 88 268 -1 q 82 315 93 178 l 207 324 q 271 172 219 229 q 410 100 322 114 l 410 456 q 228 519 294 485 q 133 603 163 554 q 103 728 103 653 q 185 926 103 849 q 410 1008 268 1003 l 410 1118 l 514 1118 l 514 1001 q 709 897 636 979 q 797 694 782 814 l 672 686 q 622 809 663 758 q 514 881 582 860 l 514 549 q 749 434 679 504 q 818 258 818 364 q 734 65 818 140 q 514 -21 650 -10 l 514 -126 l 410 -126 l 410 -18 m 228 733 q 243 665 228 692 q 297 617 258 638 q 410 575 336 596 l 410 892 q 277 844 326 886 q 228 733 228 801 m 514 96 q 647 142 600 103 q 693 250 693 182 q 656 351 693 311 q 514 426 618 392 l 514 96 z "},"€":{"ha":1021,"x_min":82,"x_max":960,"o":"m 604 -22 q 360 74 463 -22 q 218 326 257 171 l 82 326 l 82 429 l 201 429 l 199 492 l 200 540 l 82 540 l 82 643 l 214 643 q 354 908 250 807 q 604 1008 458 1008 q 826 922 732 1008 q 951 697 919 836 l 826 689 q 743 836 803 781 q 604 892 683 892 q 437 824 504 892 q 342 643 369 756 l 611 643 l 596 540 l 325 540 l 324 492 q 326 429 324 471 l 583 429 l 568 326 l 346 326 q 442 158 375 221 q 604 94 508 94 q 749 157 688 94 q 832 319 811 219 l 960 311 q 838 70 933 163 q 604 -22 743 -22 z "},"₴":{"ha":935,"x_min":82,"x_max":853,"o":"m 82 643 l 651 643 q 686 732 686 678 q 629 847 686 801 q 483 892 572 892 q 359 849 414 892 q 271 729 304 807 l 139 742 q 259 936 171 864 q 467 1008 347 1008 q 718 933 625 1008 q 811 732 811 858 q 785 643 811 689 l 853 643 l 853 540 l 82 540 l 82 643 m 458 -17 q 282 18 360 -17 q 161 115 204 53 q 118 256 118 176 q 136 326 118 293 l 82 326 l 82 429 l 853 429 l 853 326 l 269 326 q 243 256 243 292 q 301 144 243 188 q 451 100 360 100 q 589 139 528 100 q 678 243 650 178 l 815 232 q 686 50 782 117 q 458 -17 590 -17 z "},"₽":{"ha":999,"x_min":64,"x_max":926,"o":"m 64 272 l 224 272 l 224 986 l 578 986 q 834 907 742 986 q 926 688 926 828 q 834 464 926 544 q 578 383 742 383 l 343 383 l 343 272 l 503 272 l 503 169 l 343 169 l 343 0 l 224 0 l 224 169 l 64 169 l 64 272 m 578 500 q 801 688 801 500 q 578 869 801 869 l 343 869 l 343 500 l 578 500 z "},"₹":{"ha":943,"x_min":128,"x_max":857,"o":"m 128 383 l 128 500 l 397 500 q 617 632 585 500 l 128 632 l 128 736 l 618 736 q 397 869 589 869 l 128 869 l 128 986 l 857 986 l 857 883 l 678 883 q 743 736 731 825 l 857 736 l 857 632 l 742 632 q 634 449 724 514 q 397 383 544 383 l 292 383 l 713 0 l 546 0 l 128 383 z "},"₪":{"ha":1074,"x_min":128,"x_max":946,"o":"m 361 771 l 481 771 l 481 115 l 742 115 q 803 138 781 115 q 826 201 826 161 l 826 986 l 946 986 l 946 208 q 890 56 946 113 q 739 0 835 0 l 361 0 l 361 771 m 128 986 l 506 986 q 657 930 601 986 q 713 778 713 874 l 713 215 l 593 215 l 593 785 q 570 848 593 825 q 508 871 547 871 l 247 871 l 247 0 l 128 0 l 128 986 z "},"£":{"ha":854,"x_min":82,"x_max":789,"o":"m 83 121 q 243 386 243 217 l 240 440 l 82 440 l 82 543 l 217 543 l 208 571 q 176 735 176 669 q 215 874 176 811 q 322 972 254 936 q 469 1008 389 1008 q 632 976 564 1008 q 739 891 700 943 q 789 778 778 839 l 650 768 q 584 858 632 825 q 475 892 536 892 q 389 869 429 892 q 324 806 349 846 q 300 715 300 765 q 336 543 300 663 l 583 543 l 583 440 l 360 440 q 361 403 361 428 q 317 235 361 310 q 189 121 274 160 l 774 121 l 774 4 l 83 0 l 83 121 z "},"¥":{"ha":875,"x_min":29,"x_max":846,"o":"m 150 307 l 378 307 l 378 399 l 150 399 l 150 507 l 315 507 l 29 986 l 171 986 l 438 525 l 704 986 l 846 986 l 560 507 l 725 507 l 725 399 l 497 399 l 497 307 l 725 307 l 725 199 l 497 199 l 497 0 l 378 0 l 378 199 l 150 199 l 150 307 z "},"+":{"ha":792,"x_min":65,"x_max":726,"o":"m 342 356 l 65 356 l 65 464 l 342 464 l 342 740 l 450 740 l 450 464 l 726 464 l 726 356 l 450 356 l 450 79 l 342 79 l 342 356 z "},"−":{"ha":792,"x_min":65,"x_max":726,"o":"m 65 464 l 726 464 l 726 354 l 65 354 l 65 464 z "},"×":{"ha":675,"x_min":65,"x_max":610,"o":"m 261 419 l 65 615 l 142 692 l 338 496 l 533 692 l 610 615 l 414 419 l 610 224 l 533 147 l 338 343 l 142 147 l 65 224 l 261 419 z "},"÷":{"ha":792,"x_min":65,"x_max":726,"o":"m 65 507 l 726 507 l 726 399 l 65 399 l 65 507 m 404 121 q 348 143 371 121 q 325 199 325 165 q 348 254 325 232 q 404 276 371 276 q 461 255 439 276 q 483 199 483 233 q 461 143 483 165 q 404 121 439 121 m 404 639 q 348 661 371 639 q 325 717 325 683 q 348 772 325 750 q 404 794 371 794 q 461 773 439 794 q 483 717 483 751 q 461 661 483 683 q 404 639 439 639 z "},"=":{"ha":917,"x_min":128,"x_max":789,"o":"m 128 613 l 789 613 l 789 504 l 128 504 l 128 613 m 128 326 l 789 326 l 789 218 l 128 218 l 128 326 z "},"≠":{"ha":792,"x_min":65,"x_max":726,"o":"m 299 218 l 65 218 l 65 326 l 332 326 l 386 504 l 65 504 l 65 613 l 419 613 l 457 736 l 564 736 l 526 613 l 726 613 l 726 504 l 493 504 l 439 326 l 726 326 l 726 218 l 406 218 l 347 28 l 240 28 l 299 218 z "},">":{"ha":768,"x_min":68,"x_max":700,"o":"m 68 165 l 596 401 l 68 638 l 68 757 l 700 475 l 700 328 l 68 46 l 68 165 z "},"<":{"ha":763,"x_min":65,"x_max":697,"o":"m 65 328 l 65 475 l 697 757 l 697 638 l 169 401 l 697 165 l 697 46 l 65 328 z "},"≥":{"ha":792,"x_min":65,"x_max":726,"o":"m 65 338 l 608 481 l 65 625 l 65 738 l 726 554 l 726 407 l 65 224 l 65 338 m 65 108 l 726 108 l 726 0 l 65 0 l 65 108 z "},"≤":{"ha":792,"x_min":65,"x_max":726,"o":"m 65 407 l 65 554 l 726 738 l 726 625 l 183 481 l 726 338 l 726 224 l 65 407 m 65 0 l 65 108 l 726 108 l 726 0 l 65 0 z "},"±":{"ha":792,"x_min":65,"x_max":726,"o":"m 65 554 l 342 554 l 342 736 l 450 736 l 450 554 l 726 554 l 726 446 l 450 446 l 450 264 l 342 264 l 342 446 l 65 446 l 65 554 m 65 158 l 726 158 l 726 50 l 65 50 l 65 158 z "},"≈":{"ha":746,"x_min":65,"x_max":681,"o":"m 499 419 q 413 442 444 419 q 349 506 381 464 q 299 560 317 544 q 250 576 281 576 q 193 538 211 576 q 175 432 175 500 l 65 432 q 115 610 65 542 q 246 679 164 679 q 329 658 297 679 q 390 601 361 638 q 422 563 406 582 q 455 533 438 543 q 494 522 472 522 q 552 560 533 522 q 571 665 571 597 l 681 665 q 631 488 681 557 q 499 419 581 419 m 499 115 q 410 139 442 115 q 343 207 378 163 q 299 256 319 239 q 250 272 278 272 q 175 129 175 272 l 65 129 q 115 306 65 238 q 246 375 164 375 q 320 360 290 375 q 375 318 350 344 q 401 283 389 303 q 446 234 426 250 q 494 218 465 218 q 552 256 533 218 q 571 363 571 294 l 681 363 q 631 185 681 254 q 499 115 581 115 z "},"~":{"ha":746,"x_min":65,"x_max":681,"o":"m 499 328 q 419 347 451 328 q 361 400 388 367 l 340 426 q 297 474 317 458 q 250 490 278 490 q 193 451 211 490 q 175 342 175 413 l 65 342 q 115 526 65 454 q 246 597 164 597 q 334 574 301 597 q 397 508 367 551 q 445 452 426 469 q 494 435 464 435 q 571 583 571 435 l 681 583 q 631 399 681 471 q 499 328 581 328 z "},"¬":{"ha":674,"x_min":65,"x_max":608,"o":"m 500 329 l 65 329 l 65 438 l 608 438 l 608 92 l 500 92 l 500 329 z "},"^":{"ha":556,"x_min":65,"x_max":490,"o":"m 204 935 l 351 935 l 490 532 l 376 532 l 278 825 l 179 532 l 65 532 l 204 935 z "},"∞":{"ha":1168,"x_min":65,"x_max":1103,"o":"m 306 132 q 185 165 240 132 q 98 253 131 197 q 65 376 65 310 q 98 499 65 443 q 185 588 131 556 q 306 621 240 621 q 466 576 392 621 q 585 453 540 532 q 704 576 629 533 q 868 621 779 619 q 985 588 932 621 q 1071 499 1039 556 q 1103 376 1103 443 q 1071 253 1103 310 q 985 165 1039 197 q 868 132 932 132 q 703 175 781 132 q 585 299 626 218 q 467 176 542 219 q 306 132 392 132 m 319 238 q 430 274 378 238 q 521 376 482 310 q 431 478 482 443 q 319 515 379 514 q 226 474 264 515 q 188 376 188 433 q 226 278 188 319 q 319 238 264 238 m 850 238 q 942 278 904 238 q 981 376 981 319 q 942 474 981 433 q 850 514 904 514 q 739 478 792 514 q 647 376 686 443 q 738 274 686 310 q 850 238 790 238 z "},"∫":{"ha":525,"x_min":0,"x_max":525,"o":"m 0 -207 l 10 -103 l 76 -106 q 135 -86 114 -107 q 161 -28 157 -65 l 251 800 q 315 940 263 893 q 461 986 368 988 l 525 985 l 515 881 l 451 883 q 392 865 414 885 q 365 806 369 844 l 274 -22 q 210 -162 263 -115 q 64 -208 158 -210 l 0 -207 z "}}}
